STARTFONT 2.1
COMMENT This font was automatically resized by bdfresize-1.5
COMMENT   mag_x = 4/1, mag_y = 4/1, blackness = 4
COMMENT MZ-700 like ASCII font
COMMENT 8x8 dot bitmap font
COMMENT not resize. original size.
FONT -Pet2015bdfascii-Fixed-Medium-R-Normal--32-320-75-75-M-320-ISO10646-1
SIZE 32 75 75
FONTBOUNDINGBOX 32 32 0 0
STARTPROPERTIES 19
FONT_ASCENT 32
FONT_DESCENT 0
DEFAULT_CHAR 32
COPYRIGHT "mieki256"
FONTNAME_REGISTRY ""
FOUNDRY "Pet2015bdfascii"
FAMILY_NAME "Fixed"
WEIGHT_NAME "Medium"
SLANT "R"
SETWIDTH_NAME "Normal"
ADD_STYLE_NAME ""
PIXEL_SIZE 32
POINT_SIZE 320
RESOLUTION_X 75
RESOLUTION_Y 75
SPACING "M"
AVERAGE_WIDTH 320
CHARSET_REGISTRY "ISO10646"
CHARSET_ENCODING "1"
ENDPROPERTIES
CHARS 344
STARTCHAR 20
ENCODING 32
SWIDTH 3840 0
DWIDTH 32 0
BBX 32 32 0 0
BITMAP
00000000
00000000
00000000
00000000
00000000
00000000
00000000
00000000
00000000
00000000
00000000
00000000
00000000
00000000
00000000
00000000
00000000
00000000
00000000
00000000
00000000
00000000
00000000
00000000
00000000
00000000
00000000
00000000
00000000
00000000
00000000
00000000
ENDCHAR
STARTCHAR 21
ENCODING 33
SWIDTH 3840 0
DWIDTH 32 0
BBX 32 32 0 0
BITMAP
000FF000
000FF000
000FF000
000FF000
000FF000
000FF000
000FF000
000FF000
000FF000
000FF000
000FF000
000FF000
000FF000
000FF000
000FF000
000FF000
00000000
00000000
00000000
00000000
000FF000
000FF000
000FF000
000FF000
000FF000
000FF000
000FF000
000FF000
00000000
00000000
00000000
00000000
ENDCHAR
STARTCHAR 22
ENCODING 34
SWIDTH 3840 0
DWIDTH 32 0
BBX 32 32 0 0
BITMAP
0FF0FF00
0FF0FF00
0FF0FF00
0FF0FF00
0FF0FF00
0FF0FF00
0FF0FF00
0FF0FF00
00000000
00000000
00000000
00000000
00000000
00000000
00000000
00000000
00000000
00000000
00000000
00000000
00000000
00000000
00000000
00000000
00000000
00000000
00000000
00000000
00000000
00000000
00000000
00000000
ENDCHAR
STARTCHAR 23
ENCODING 35
SWIDTH 3840 0
DWIDTH 32 0
BBX 32 32 0 0
BITMAP
0F000F00
0F000F00
0F000F00
0F000F00
FFFFFFF0
FFFFFFF0
FFFFFFF0
FFFFFFF0
0F000F00
0F000F00
0F000F00
0F000F00
0F000F00
0F000F00
0F000F00
0F000F00
FFFFFFF0
FFFFFFF0
FFFFFFF0
FFFFFFF0
0F000F00
0F000F00
0F000F00
0F000F00
0F000F00
0F000F00
0F000F00
0F000F00
00000000
00000000
00000000
00000000
ENDCHAR
STARTCHAR 24
ENCODING 36
SWIDTH 3840 0
DWIDTH 32 0
BBX 32 32 0 0
BITMAP
000F0000
000F0000
000F0000
000F0000
FFFFFFF0
FFFFFFF0
FFFFFFF0
FFFFFFF0
F00F0000
F00F0000
F00F0000
F00F0000
FFFFFFF0
FFFFFFF0
FFFFFFF0
FFFFFFF0
000F00F0
000F00F0
000F00F0
000F00F0
FFFFFFF0
FFFFFFF0
FFFFFFF0
FFFFFFF0
000F0000
000F0000
000F0000
000F0000
00000000
00000000
00000000
00000000
ENDCHAR
STARTCHAR 25
ENCODING 37
SWIDTH 3840 0
DWIDTH 32 0
BBX 32 32 0 0
BITMAP
FFF000F0
FFF000F0
FFF000F0
FFF000F0
F0F00F00
F0F00F00
F0F00F00
F0F00F00
F0F0F000
F0F0F000
F0F0F000
F0F0F000
FFFFFFF0
FFFFFFF0
FFFFFFF0
FFFFFFF0
00F0F0F0
00F0F0F0
00F0F0F0
00F0F0F0
0F00F0F0
0F00F0F0
0F00F0F0
0F00F0F0
F000FFF0
F000FFF0
F000FFF0
F000FFF0
00000000
00000000
00000000
00000000
ENDCHAR
STARTCHAR 26
ENCODING 38
SWIDTH 3840 0
DWIDTH 32 0
BBX 32 32 0 0
BITMAP
FFFFF000
FFFFF000
FFFFF000
FFFFF000
F000F000
F000F000
F000F000
F000F000
F000F000
F000F000
F000F000
F000F000
0FFF0000
0FFF0000
0FFF0000
0FFF0000
F000F0F0
F000F0F0
F000F0F0
F000F0F0
F0000F00
F0000F00
F0000F00
F0000F00
FFFFF0F0
FFFFF0F0
FFFFF0F0
FFFFF0F0
00000000
00000000
00000000
00000000
ENDCHAR
STARTCHAR 27
ENCODING 39
SWIDTH 3840 0
DWIDTH 32 0
BBX 32 32 0 0
BITMAP
000FF000
000FF000
000FF000
000FF000
00FF0000
00FF0000
00FF0000
00FF0000
00000000
00000000
00000000
00000000
00000000
00000000
00000000
00000000
00000000
00000000
00000000
00000000
00000000
00000000
00000000
00000000
00000000
00000000
00000000
00000000
00000000
00000000
00000000
00000000
ENDCHAR
STARTCHAR 28
ENCODING 40
SWIDTH 3840 0
DWIDTH 32 0
BBX 32 32 0 0
BITMAP
0000F000
0000F000
0000F000
0000F000
000F0000
000F0000
000F0000
000F0000
00F00000
00F00000
00F00000
00F00000
00F00000
00F00000
00F00000
00F00000
00F00000
00F00000
00F00000
00F00000
000F0000
000F0000
000F0000
000F0000
0000F000
0000F000
0000F000
0000F000
00000000
00000000
00000000
00000000
ENDCHAR
STARTCHAR 29
ENCODING 41
SWIDTH 3840 0
DWIDTH 32 0
BBX 32 32 0 0
BITMAP
00F00000
00F00000
00F00000
00F00000
000F0000
000F0000
000F0000
000F0000
0000F000
0000F000
0000F000
0000F000
0000F000
0000F000
0000F000
0000F000
0000F000
0000F000
0000F000
0000F000
000F0000
000F0000
000F0000
000F0000
00F00000
00F00000
00F00000
00F00000
00000000
00000000
00000000
00000000
ENDCHAR
STARTCHAR 2a
ENCODING 42
SWIDTH 3840 0
DWIDTH 32 0
BBX 32 32 0 0
BITMAP
000F0000
000F0000
000F0000
000F0000
F00F00F0
F00F00F0
F00F00F0
F00F00F0
0F0F0F00
0F0F0F00
0F0F0F00
0F0F0F00
00FFF000
00FFF000
00FFF000
00FFF000
0F0F0F00
0F0F0F00
0F0F0F00
0F0F0F00
F00F00F0
F00F00F0
F00F00F0
F00F00F0
000F0000
000F0000
000F0000
000F0000
00000000
00000000
00000000
00000000
ENDCHAR
STARTCHAR 2b
ENCODING 43
SWIDTH 3840 0
DWIDTH 32 0
BBX 32 32 0 0
BITMAP
000F0000
000F0000
000F0000
000F0000
000F0000
000F0000
000F0000
000F0000
000F0000
000F0000
000F0000
000F0000
FFFFFFF0
FFFFFFF0
FFFFFFF0
FFFFFFF0
000F0000
000F0000
000F0000
000F0000
000F0000
000F0000
000F0000
000F0000
000F0000
000F0000
000F0000
000F0000
00000000
00000000
00000000
00000000
ENDCHAR
STARTCHAR 2c
ENCODING 44
SWIDTH 3840 0
DWIDTH 32 0
BBX 32 32 0 0
BITMAP
00000000
00000000
00000000
00000000
00000000
00000000
00000000
00000000
00000000
00000000
00000000
00000000
00000000
00000000
00000000
00000000
000FF000
000FF000
000FF000
000FF000
000FF000
000FF000
000FF000
000FF000
0000F000
0000F000
0000F000
0000F000
000F0000
000F0000
000F0000
000F0000
ENDCHAR
STARTCHAR 2d
ENCODING 45
SWIDTH 3840 0
DWIDTH 32 0
BBX 32 32 0 0
BITMAP
00000000
00000000
00000000
00000000
00000000
00000000
00000000
00000000
00000000
00000000
00000000
00000000
FFFFFFF0
FFFFFFF0
FFFFFFF0
FFFFFFF0
00000000
00000000
00000000
00000000
00000000
00000000
00000000
00000000
00000000
00000000
00000000
00000000
00000000
00000000
00000000
00000000
ENDCHAR
STARTCHAR 2e
ENCODING 46
SWIDTH 3840 0
DWIDTH 32 0
BBX 32 32 0 0
BITMAP
00000000
00000000
00000000
00000000
00000000
00000000
00000000
00000000
00000000
00000000
00000000
00000000
00000000
00000000
00000000
00000000
00000000
00000000
00000000
00000000
000FF000
000FF000
000FF000
000FF000
000FF000
000FF000
000FF000
000FF000
00000000
00000000
00000000
00000000
ENDCHAR
STARTCHAR 2f
ENCODING 47
SWIDTH 3840 0
DWIDTH 32 0
BBX 32 32 0 0
BITMAP
00000000
00000000
00000000
00000000
000000F0
000000F0
000000F0
000000F0
00000F00
00000F00
00000F00
00000F00
0000F000
0000F000
0000F000
0000F000
000F0000
000F0000
000F0000
000F0000
00F00000
00F00000
00F00000
00F00000
0F000000
0F000000
0F000000
0F000000
00000000
00000000
00000000
00000000
ENDCHAR
STARTCHAR 30
ENCODING 48
SWIDTH 3840 0
DWIDTH 32 0
BBX 32 32 0 0
BITMAP
0FFFFF00
0FFFFF00
0FFFFF00
0FFFFF00
F00000F0
F00000F0
F00000F0
F00000F0
F000F0F0
F000F0F0
F000F0F0
F000F0F0
F00F00F0
F00F00F0
F00F00F0
F00F00F0
F0F000F0
F0F000F0
F0F000F0
F0F000F0
F00000F0
F00000F0
F00000F0
F00000F0
0FFFFF00
0FFFFF00
0FFFFF00
0FFFFF00
00000000
00000000
00000000
00000000
ENDCHAR
STARTCHAR 31
ENCODING 49
SWIDTH 3840 0
DWIDTH 32 0
BBX 32 32 0 0
BITMAP
000F0000
000F0000
000F0000
000F0000
00FF0000
00FF0000
00FF0000
00FF0000
0F0F0000
0F0F0000
0F0F0000
0F0F0000
000F0000
000F0000
000F0000
000F0000
000F0000
000F0000
000F0000
000F0000
000F0000
000F0000
000F0000
000F0000
0FFFFF00
0FFFFF00
0FFFFF00
0FFFFF00
00000000
00000000
00000000
00000000
ENDCHAR
STARTCHAR 32
ENCODING 50
SWIDTH 3840 0
DWIDTH 32 0
BBX 32 32 0 0
BITMAP
0FFFFF00
0FFFFF00
0FFFFF00
0FFFFF00
F00000F0
F00000F0
F00000F0
F00000F0
000000F0
000000F0
000000F0
000000F0
0FFFFF00
0FFFFF00
0FFFFF00
0FFFFF00
F0000000
F0000000
F0000000
F0000000
F0000000
F0000000
F0000000
F0000000
FFFFFFF0
FFFFFFF0
FFFFFFF0
FFFFFFF0
00000000
00000000
00000000
00000000
ENDCHAR
STARTCHAR 33
ENCODING 51
SWIDTH 3840 0
DWIDTH 32 0
BBX 32 32 0 0
BITMAP
0FFFFF00
0FFFFF00
0FFFFF00
0FFFFF00
F00000F0
F00000F0
F00000F0
F00000F0
000000F0
000000F0
000000F0
000000F0
000FFF00
000FFF00
000FFF00
000FFF00
000000F0
000000F0
000000F0
000000F0
F00000F0
F00000F0
F00000F0
F00000F0
0FFFFF00
0FFFFF00
0FFFFF00
0FFFFF00
00000000
00000000
00000000
00000000
ENDCHAR
STARTCHAR 34
ENCODING 52
SWIDTH 3840 0
DWIDTH 32 0
BBX 32 32 0 0
BITMAP
00000F00
00000F00
00000F00
00000F00
0000FF00
0000FF00
0000FF00
0000FF00
000F0F00
000F0F00
000F0F00
000F0F00
00F00F00
00F00F00
00F00F00
00F00F00
0F000F00
0F000F00
0F000F00
0F000F00
FFFFFFF0
FFFFFFF0
FFFFFFF0
FFFFFFF0
00000F00
00000F00
00000F00
00000F00
00000000
00000000
00000000
00000000
ENDCHAR
STARTCHAR 35
ENCODING 53
SWIDTH 3840 0
DWIDTH 32 0
BBX 32 32 0 0
BITMAP
FFFFFFF0
FFFFFFF0
FFFFFFF0
FFFFFFF0
F0000000
F0000000
F0000000
F0000000
F0000000
F0000000
F0000000
F0000000
FFFFFF00
FFFFFF00
FFFFFF00
FFFFFF00
000000F0
000000F0
000000F0
000000F0
F00000F0
F00000F0
F00000F0
F00000F0
0FFFFF00
0FFFFF00
0FFFFF00
0FFFFF00
00000000
00000000
00000000
00000000
ENDCHAR
STARTCHAR 36
ENCODING 54
SWIDTH 3840 0
DWIDTH 32 0
BBX 32 32 0 0
BITMAP
0FFFFF00
0FFFFF00
0FFFFF00
0FFFFF00
F0000000
F0000000
F0000000
F0000000
F0000000
F0000000
F0000000
F0000000
FFFFFF00
FFFFFF00
FFFFFF00
FFFFFF00
F00000F0
F00000F0
F00000F0
F00000F0
F00000F0
F00000F0
F00000F0
F00000F0
0FFFFF00
0FFFFF00
0FFFFF00
0FFFFF00
00000000
00000000
00000000
00000000
ENDCHAR
STARTCHAR 37
ENCODING 55
SWIDTH 3840 0
DWIDTH 32 0
BBX 32 32 0 0
BITMAP
FFFFFFF0
FFFFFFF0
FFFFFFF0
FFFFFFF0
000000F0
000000F0
000000F0
000000F0
00000F00
00000F00
00000F00
00000F00
0000F000
0000F000
0000F000
0000F000
000F0000
000F0000
000F0000
000F0000
000F0000
000F0000
000F0000
000F0000
000F0000
000F0000
000F0000
000F0000
00000000
00000000
00000000
00000000
ENDCHAR
STARTCHAR 38
ENCODING 56
SWIDTH 3840 0
DWIDTH 32 0
BBX 32 32 0 0
BITMAP
0FFFFF00
0FFFFF00
0FFFFF00
0FFFFF00
F00000F0
F00000F0
F00000F0
F00000F0
F00000F0
F00000F0
F00000F0
F00000F0
0FFFFF00
0FFFFF00
0FFFFF00
0FFFFF00
F00000F0
F00000F0
F00000F0
F00000F0
F00000F0
F00000F0
F00000F0
F00000F0
0FFFFF00
0FFFFF00
0FFFFF00
0FFFFF00
00000000
00000000
00000000
00000000
ENDCHAR
STARTCHAR 39
ENCODING 57
SWIDTH 3840 0
DWIDTH 32 0
BBX 32 32 0 0
BITMAP
0FFFFF00
0FFFFF00
0FFFFF00
0FFFFF00
F00000F0
F00000F0
F00000F0
F00000F0
F00000F0
F00000F0
F00000F0
F00000F0
0FFFFFF0
0FFFFFF0
0FFFFFF0
0FFFFFF0
000000F0
000000F0
000000F0
000000F0
000000F0
000000F0
000000F0
000000F0
0FFFFF00
0FFFFF00
0FFFFF00
0FFFFF00
00000000
00000000
00000000
00000000
ENDCHAR
STARTCHAR 3a
ENCODING 58
SWIDTH 3840 0
DWIDTH 32 0
BBX 32 32 0 0
BITMAP
00000000
00000000
00000000
00000000
000FF000
000FF000
000FF000
000FF000
000FF000
000FF000
000FF000
000FF000
00000000
00000000
00000000
00000000
000FF000
000FF000
000FF000
000FF000
000FF000
000FF000
000FF000
000FF000
00000000
00000000
00000000
00000000
00000000
00000000
00000000
00000000
ENDCHAR
STARTCHAR 3b
ENCODING 59
SWIDTH 3840 0
DWIDTH 32 0
BBX 32 32 0 0
BITMAP
00000000
00000000
00000000
00000000
000FF000
000FF000
000FF000
000FF000
000FF000
000FF000
000FF000
000FF000
00000000
00000000
00000000
00000000
000FF000
000FF000
000FF000
000FF000
000FF000
000FF000
000FF000
000FF000
0000F000
0000F000
0000F000
0000F000
000F0000
000F0000
000F0000
000F0000
ENDCHAR
STARTCHAR 3c
ENCODING 60
SWIDTH 3840 0
DWIDTH 32 0
BBX 32 32 0 0
BITMAP
00000F00
00000F00
00000F00
00000F00
0000F000
0000F000
0000F000
0000F000
000F0000
000F0000
000F0000
000F0000
00F00000
00F00000
00F00000
00F00000
000F0000
000F0000
000F0000
000F0000
0000F000
0000F000
0000F000
0000F000
00000F00
00000F00
00000F00
00000F00
00000000
00000000
00000000
00000000
ENDCHAR
STARTCHAR 3d
ENCODING 61
SWIDTH 3840 0
DWIDTH 32 0
BBX 32 32 0 0
BITMAP
00000000
00000000
00000000
00000000
00000000
00000000
00000000
00000000
FFFFFFF0
FFFFFFF0
FFFFFFF0
FFFFFFF0
00000000
00000000
00000000
00000000
FFFFFFF0
FFFFFFF0
FFFFFFF0
FFFFFFF0
00000000
00000000
00000000
00000000
00000000
00000000
00000000
00000000
00000000
00000000
00000000
00000000
ENDCHAR
STARTCHAR 3e
ENCODING 62
SWIDTH 3840 0
DWIDTH 32 0
BBX 32 32 0 0
BITMAP
00F00000
00F00000
00F00000
00F00000
000F0000
000F0000
000F0000
000F0000
0000F000
0000F000
0000F000
0000F000
00000F00
00000F00
00000F00
00000F00
0000F000
0000F000
0000F000
0000F000
000F0000
000F0000
000F0000
000F0000
00F00000
00F00000
00F00000
00F00000
00000000
00000000
00000000
00000000
ENDCHAR
STARTCHAR 3f
ENCODING 63
SWIDTH 3840 0
DWIDTH 32 0
BBX 32 32 0 0
BITMAP
0FFFFF00
0FFFFF00
0FFFFF00
0FFFFF00
FF000FF0
FF000FF0
FF000FF0
FF000FF0
FF000FF0
FF000FF0
FF000FF0
FF000FF0
0000FF00
0000FF00
0000FF00
0000FF00
000FF000
000FF000
000FF000
000FF000
00000000
00000000
00000000
00000000
000FF000
000FF000
000FF000
000FF000
00000000
00000000
00000000
00000000
ENDCHAR
STARTCHAR 40
ENCODING 64
SWIDTH 3840 0
DWIDTH 32 0
BBX 32 32 0 0
BITMAP
0FFFFF00
0FFFFF00
0FFFFF00
0FFFFF00
F00000F0
F00000F0
F00000F0
F00000F0
F0FFF0F0
F0FFF0F0
F0FFF0F0
F0FFF0F0
F0F0F0F0
F0F0F0F0
F0F0F0F0
F0F0F0F0
F0FFFF00
F0FFFF00
F0FFFF00
F0FFFF00
F0000000
F0000000
F0000000
F0000000
0FFFFFF0
0FFFFFF0
0FFFFFF0
0FFFFFF0
00000000
00000000
00000000
00000000
ENDCHAR
STARTCHAR 41
ENCODING 65
SWIDTH 3840 0
DWIDTH 32 0
BBX 32 32 0 0
BITMAP
0FFFFF00
0FFFFF00
0FFFFF00
0FFFFF00
F00000F0
F00000F0
F00000F0
F00000F0
F00000F0
F00000F0
F00000F0
F00000F0
F00000F0
F00000F0
F00000F0
F00000F0
FFFFFFF0
FFFFFFF0
FFFFFFF0
FFFFFFF0
F00000F0
F00000F0
F00000F0
F00000F0
F00000F0
F00000F0
F00000F0
F00000F0
00000000
00000000
00000000
00000000
ENDCHAR
STARTCHAR 42
ENCODING 66
SWIDTH 3840 0
DWIDTH 32 0
BBX 32 32 0 0
BITMAP
FFFFFF00
FFFFFF00
FFFFFF00
FFFFFF00
F00000F0
F00000F0
F00000F0
F00000F0
F00000F0
F00000F0
F00000F0
F00000F0
FFFFFF00
FFFFFF00
FFFFFF00
FFFFFF00
F00000F0
F00000F0
F00000F0
F00000F0
F00000F0
F00000F0
F00000F0
F00000F0
FFFFFF00
FFFFFF00
FFFFFF00
FFFFFF00
00000000
00000000
00000000
00000000
ENDCHAR
STARTCHAR 43
ENCODING 67
SWIDTH 3840 0
DWIDTH 32 0
BBX 32 32 0 0
BITMAP
0FFFFF00
0FFFFF00
0FFFFF00
0FFFFF00
F00000F0
F00000F0
F00000F0
F00000F0
F0000000
F0000000
F0000000
F0000000
F0000000
F0000000
F0000000
F0000000
F0000000
F0000000
F0000000
F0000000
F00000F0
F00000F0
F00000F0
F00000F0
0FFFFF00
0FFFFF00
0FFFFF00
0FFFFF00
00000000
00000000
00000000
00000000
ENDCHAR
STARTCHAR 44
ENCODING 68
SWIDTH 3840 0
DWIDTH 32 0
BBX 32 32 0 0
BITMAP
FFFFFF00
FFFFFF00
FFFFFF00
FFFFFF00
F00000F0
F00000F0
F00000F0
F00000F0
F00000F0
F00000F0
F00000F0
F00000F0
F00000F0
F00000F0
F00000F0
F00000F0
F00000F0
F00000F0
F00000F0
F00000F0
F00000F0
F00000F0
F00000F0
F00000F0
FFFFFF00
FFFFFF00
FFFFFF00
FFFFFF00
00000000
00000000
00000000
00000000
ENDCHAR
STARTCHAR 45
ENCODING 69
SWIDTH 3840 0
DWIDTH 32 0
BBX 32 32 0 0
BITMAP
FFFFFFF0
FFFFFFF0
FFFFFFF0
FFFFFFF0
F0000000
F0000000
F0000000
F0000000
F0000000
F0000000
F0000000
F0000000
FFFFFF00
FFFFFF00
FFFFFF00
FFFFFF00
F0000000
F0000000
F0000000
F0000000
F0000000
F0000000
F0000000
F0000000
FFFFFFF0
FFFFFFF0
FFFFFFF0
FFFFFFF0
00000000
00000000
00000000
00000000
ENDCHAR
STARTCHAR 46
ENCODING 70
SWIDTH 3840 0
DWIDTH 32 0
BBX 32 32 0 0
BITMAP
FFFFFFF0
FFFFFFF0
FFFFFFF0
FFFFFFF0
F0000000
F0000000
F0000000
F0000000
F0000000
F0000000
F0000000
F0000000
FFFFFF00
FFFFFF00
FFFFFF00
FFFFFF00
F0000000
F0000000
F0000000
F0000000
F0000000
F0000000
F0000000
F0000000
F0000000
F0000000
F0000000
F0000000
00000000
00000000
00000000
00000000
ENDCHAR
STARTCHAR 47
ENCODING 71
SWIDTH 3840 0
DWIDTH 32 0
BBX 32 32 0 0
BITMAP
0FFFFF00
0FFFFF00
0FFFFF00
0FFFFF00
F00000F0
F00000F0
F00000F0
F00000F0
F0000000
F0000000
F0000000
F0000000
F000FFF0
F000FFF0
F000FFF0
F000FFF0
F00000F0
F00000F0
F00000F0
F00000F0
F00000F0
F00000F0
F00000F0
F00000F0
0FFFFF00
0FFFFF00
0FFFFF00
0FFFFF00
00000000
00000000
00000000
00000000
ENDCHAR
STARTCHAR 48
ENCODING 72
SWIDTH 3840 0
DWIDTH 32 0
BBX 32 32 0 0
BITMAP
F00000F0
F00000F0
F00000F0
F00000F0
F00000F0
F00000F0
F00000F0
F00000F0
F00000F0
F00000F0
F00000F0
F00000F0
FFFFFFF0
FFFFFFF0
FFFFFFF0
FFFFFFF0
F00000F0
F00000F0
F00000F0
F00000F0
F00000F0
F00000F0
F00000F0
F00000F0
F00000F0
F00000F0
F00000F0
F00000F0
00000000
00000000
00000000
00000000
ENDCHAR
STARTCHAR 49
ENCODING 73
SWIDTH 3840 0
DWIDTH 32 0
BBX 32 32 0 0
BITMAP
00FFF000
00FFF000
00FFF000
00FFF000
000F0000
000F0000
000F0000
000F0000
000F0000
000F0000
000F0000
000F0000
000F0000
000F0000
000F0000
000F0000
000F0000
000F0000
000F0000
000F0000
000F0000
000F0000
000F0000
000F0000
00FFF000
00FFF000
00FFF000
00FFF000
00000000
00000000
00000000
00000000
ENDCHAR
STARTCHAR 4a
ENCODING 74
SWIDTH 3840 0
DWIDTH 32 0
BBX 32 32 0 0
BITMAP
0000FFF0
0000FFF0
0000FFF0
0000FFF0
00000F00
00000F00
00000F00
00000F00
00000F00
00000F00
00000F00
00000F00
00000F00
00000F00
00000F00
00000F00
00000F00
00000F00
00000F00
00000F00
F0000F00
F0000F00
F0000F00
F0000F00
0FFFF000
0FFFF000
0FFFF000
0FFFF000
00000000
00000000
00000000
00000000
ENDCHAR
STARTCHAR 4b
ENCODING 75
SWIDTH 3840 0
DWIDTH 32 0
BBX 32 32 0 0
BITMAP
F00000F0
F00000F0
F00000F0
F00000F0
F0000F00
F0000F00
F0000F00
F0000F00
F000F000
F000F000
F000F000
F000F000
FFFF0000
FFFF0000
FFFF0000
FFFF0000
F000F000
F000F000
F000F000
F000F000
F0000F00
F0000F00
F0000F00
F0000F00
F00000F0
F00000F0
F00000F0
F00000F0
00000000
00000000
00000000
00000000
ENDCHAR
STARTCHAR 4c
ENCODING 76
SWIDTH 3840 0
DWIDTH 32 0
BBX 32 32 0 0
BITMAP
F0000000
F0000000
F0000000
F0000000
F0000000
F0000000
F0000000
F0000000
F0000000
F0000000
F0000000
F0000000
F0000000
F0000000
F0000000
F0000000
F0000000
F0000000
F0000000
F0000000
F0000000
F0000000
F0000000
F0000000
FFFFFFF0
FFFFFFF0
FFFFFFF0
FFFFFFF0
00000000
00000000
00000000
00000000
ENDCHAR
STARTCHAR 4d
ENCODING 77
SWIDTH 3840 0
DWIDTH 32 0
BBX 32 32 0 0
BITMAP
F00000F0
F00000F0
F00000F0
F00000F0
FF000FF0
FF000FF0
FF000FF0
FF000FF0
F0F0F0F0
F0F0F0F0
F0F0F0F0
F0F0F0F0
F00F00F0
F00F00F0
F00F00F0
F00F00F0
F00000F0
F00000F0
F00000F0
F00000F0
F00000F0
F00000F0
F00000F0
F00000F0
F00000F0
F00000F0
F00000F0
F00000F0
00000000
00000000
00000000
00000000
ENDCHAR
STARTCHAR 4e
ENCODING 78
SWIDTH 3840 0
DWIDTH 32 0
BBX 32 32 0 0
BITMAP
F00000F0
F00000F0
F00000F0
F00000F0
FF0000F0
FF0000F0
FF0000F0
FF0000F0
F0F000F0
F0F000F0
F0F000F0
F0F000F0
F00F00F0
F00F00F0
F00F00F0
F00F00F0
F000F0F0
F000F0F0
F000F0F0
F000F0F0
F0000FF0
F0000FF0
F0000FF0
F0000FF0
F00000F0
F00000F0
F00000F0
F00000F0
00000000
00000000
00000000
00000000
ENDCHAR
STARTCHAR 4f
ENCODING 79
SWIDTH 3840 0
DWIDTH 32 0
BBX 32 32 0 0
BITMAP
0FFFFF00
0FFFFF00
0FFFFF00
0FFFFF00
F00000F0
F00000F0
F00000F0
F00000F0
F00000F0
F00000F0
F00000F0
F00000F0
F00000F0
F00000F0
F00000F0
F00000F0
F00000F0
F00000F0
F00000F0
F00000F0
F00000F0
F00000F0
F00000F0
F00000F0
0FFFFF00
0FFFFF00
0FFFFF00
0FFFFF00
00000000
00000000
00000000
00000000
ENDCHAR
STARTCHAR 50
ENCODING 80
SWIDTH 3840 0
DWIDTH 32 0
BBX 32 32 0 0
BITMAP
FFFFFF00
FFFFFF00
FFFFFF00
FFFFFF00
F00000F0
F00000F0
F00000F0
F00000F0
F00000F0
F00000F0
F00000F0
F00000F0
FFFFFF00
FFFFFF00
FFFFFF00
FFFFFF00
F0000000
F0000000
F0000000
F0000000
F0000000
F0000000
F0000000
F0000000
F0000000
F0000000
F0000000
F0000000
00000000
00000000
00000000
00000000
ENDCHAR
STARTCHAR 51
ENCODING 81
SWIDTH 3840 0
DWIDTH 32 0
BBX 32 32 0 0
BITMAP
0FFFFF00
0FFFFF00
0FFFFF00
0FFFFF00
F00000F0
F00000F0
F00000F0
F00000F0
F00000F0
F00000F0
F00000F0
F00000F0
F00000F0
F00000F0
F00000F0
F00000F0
F000F0F0
F000F0F0
F000F0F0
F000F0F0
F0000F00
F0000F00
F0000F00
F0000F00
0FFFF0F0
0FFFF0F0
0FFFF0F0
0FFFF0F0
00000000
00000000
00000000
00000000
ENDCHAR
STARTCHAR 52
ENCODING 82
SWIDTH 3840 0
DWIDTH 32 0
BBX 32 32 0 0
BITMAP
FFFFFF00
FFFFFF00
FFFFFF00
FFFFFF00
F00000F0
F00000F0
F00000F0
F00000F0
F00000F0
F00000F0
F00000F0
F00000F0
FFFFFF00
FFFFFF00
FFFFFF00
FFFFFF00
F000F000
F000F000
F000F000
F000F000
F0000F00
F0000F00
F0000F00
F0000F00
F00000F0
F00000F0
F00000F0
F00000F0
00000000
00000000
00000000
00000000
ENDCHAR
STARTCHAR 53
ENCODING 83
SWIDTH 3840 0
DWIDTH 32 0
BBX 32 32 0 0
BITMAP
0FFFFF00
0FFFFF00
0FFFFF00
0FFFFF00
F00000F0
F00000F0
F00000F0
F00000F0
F0000000
F0000000
F0000000
F0000000
0FFFFF00
0FFFFF00
0FFFFF00
0FFFFF00
000000F0
000000F0
000000F0
000000F0
F00000F0
F00000F0
F00000F0
F00000F0
0FFFFF00
0FFFFF00
0FFFFF00
0FFFFF00
00000000
00000000
00000000
00000000
ENDCHAR
STARTCHAR 54
ENCODING 84
SWIDTH 3840 0
DWIDTH 32 0
BBX 32 32 0 0
BITMAP
FFFFFFF0
FFFFFFF0
FFFFFFF0
FFFFFFF0
000F0000
000F0000
000F0000
000F0000
000F0000
000F0000
000F0000
000F0000
000F0000
000F0000
000F0000
000F0000
000F0000
000F0000
000F0000
000F0000
000F0000
000F0000
000F0000
000F0000
000F0000
000F0000
000F0000
000F0000
00000000
00000000
00000000
00000000
ENDCHAR
STARTCHAR 55
ENCODING 85
SWIDTH 3840 0
DWIDTH 32 0
BBX 32 32 0 0
BITMAP
F00000F0
F00000F0
F00000F0
F00000F0
F00000F0
F00000F0
F00000F0
F00000F0
F00000F0
F00000F0
F00000F0
F00000F0
F00000F0
F00000F0
F00000F0
F00000F0
F00000F0
F00000F0
F00000F0
F00000F0
F00000F0
F00000F0
F00000F0
F00000F0
0FFFFF00
0FFFFF00
0FFFFF00
0FFFFF00
00000000
00000000
00000000
00000000
ENDCHAR
STARTCHAR 56
ENCODING 86
SWIDTH 3840 0
DWIDTH 32 0
BBX 32 32 0 0
BITMAP
F00000F0
F00000F0
F00000F0
F00000F0
F00000F0
F00000F0
F00000F0
F00000F0
0F000F00
0F000F00
0F000F00
0F000F00
0F000F00
0F000F00
0F000F00
0F000F00
00F0F000
00F0F000
00F0F000
00F0F000
00F0F000
00F0F000
00F0F000
00F0F000
000F0000
000F0000
000F0000
000F0000
00000000
00000000
00000000
00000000
ENDCHAR
STARTCHAR 57
ENCODING 87
SWIDTH 3840 0
DWIDTH 32 0
BBX 32 32 0 0
BITMAP
F00000F0
F00000F0
F00000F0
F00000F0
F00000F0
F00000F0
F00000F0
F00000F0
F00000F0
F00000F0
F00000F0
F00000F0
F00F00F0
F00F00F0
F00F00F0
F00F00F0
F0F0F0F0
F0F0F0F0
F0F0F0F0
F0F0F0F0
FF000FF0
FF000FF0
FF000FF0
FF000FF0
F00000F0
F00000F0
F00000F0
F00000F0
00000000
00000000
00000000
00000000
ENDCHAR
STARTCHAR 58
ENCODING 88
SWIDTH 3840 0
DWIDTH 32 0
BBX 32 32 0 0
BITMAP
F00000F0
F00000F0
F00000F0
F00000F0
0F000F00
0F000F00
0F000F00
0F000F00
00F0F000
00F0F000
00F0F000
00F0F000
000F0000
000F0000
000F0000
000F0000
00F0F000
00F0F000
00F0F000
00F0F000
0F000F00
0F000F00
0F000F00
0F000F00
F00000F0
F00000F0
F00000F0
F00000F0
00000000
00000000
00000000
00000000
ENDCHAR
STARTCHAR 59
ENCODING 89
SWIDTH 3840 0
DWIDTH 32 0
BBX 32 32 0 0
BITMAP
F00000F0
F00000F0
F00000F0
F00000F0
F00000F0
F00000F0
F00000F0
F00000F0
0F000F00
0F000F00
0F000F00
0F000F00
00F0F000
00F0F000
00F0F000
00F0F000
000F0000
000F0000
000F0000
000F0000
000F0000
000F0000
000F0000
000F0000
000F0000
000F0000
000F0000
000F0000
00000000
00000000
00000000
00000000
ENDCHAR
STARTCHAR 5a
ENCODING 90
SWIDTH 3840 0
DWIDTH 32 0
BBX 32 32 0 0
BITMAP
FFFFFFF0
FFFFFFF0
FFFFFFF0
FFFFFFF0
00000F00
00000F00
00000F00
00000F00
0000F000
0000F000
0000F000
0000F000
000F0000
000F0000
000F0000
000F0000
00F00000
00F00000
00F00000
00F00000
0F000000
0F000000
0F000000
0F000000
FFFFFFF0
FFFFFFF0
FFFFFFF0
FFFFFFF0
00000000
00000000
00000000
00000000
ENDCHAR
STARTCHAR 5b
ENCODING 91
SWIDTH 3840 0
DWIDTH 32 0
BBX 32 32 0 0
BITMAP
00FFF000
00FFF000
00FFF000
00FFF000
00F00000
00F00000
00F00000
00F00000
00F00000
00F00000
00F00000
00F00000
00F00000
00F00000
00F00000
00F00000
00F00000
00F00000
00F00000
00F00000
00F00000
00F00000
00F00000
00F00000
00FFF000
00FFF000
00FFF000
00FFF000
00000000
00000000
00000000
00000000
ENDCHAR
STARTCHAR 5c
ENCODING 92
SWIDTH 3840 0
DWIDTH 32 0
BBX 32 32 0 0
BITMAP
00000000
00000000
00000000
00000000
0F000000
0F000000
0F000000
0F000000
00F00000
00F00000
00F00000
00F00000
000F0000
000F0000
000F0000
000F0000
0000F000
0000F000
0000F000
0000F000
00000F00
00000F00
00000F00
00000F00
000000F0
000000F0
000000F0
000000F0
00000000
00000000
00000000
00000000
ENDCHAR
STARTCHAR 5d
ENCODING 93
SWIDTH 3840 0
DWIDTH 32 0
BBX 32 32 0 0
BITMAP
00FFF000
00FFF000
00FFF000
00FFF000
0000F000
0000F000
0000F000
0000F000
0000F000
0000F000
0000F000
0000F000
0000F000
0000F000
0000F000
0000F000
0000F000
0000F000
0000F000
0000F000
0000F000
0000F000
0000F000
0000F000
00FFF000
00FFF000
00FFF000
00FFF000
00000000
00000000
00000000
00000000
ENDCHAR
STARTCHAR 5f
ENCODING 95
SWIDTH 3840 0
DWIDTH 32 0
BBX 32 32 0 0
BITMAP
00000000
00000000
00000000
00000000
00000000
00000000
00000000
00000000
00000000
00000000
00000000
00000000
00000000
00000000
00000000
00000000
00000000
00000000
00000000
00000000
00000000
00000000
00000000
00000000
00000000
00000000
00000000
00000000
FFFFFFFF
FFFFFFFF
FFFFFFFF
FFFFFFFF
ENDCHAR
STARTCHAR 61
ENCODING 97
SWIDTH 3840 0
DWIDTH 32 0
BBX 32 32 0 0
BITMAP
00000000
00000000
00000000
00000000
00000000
00000000
00000000
00000000
0FFFFF00
0FFFFF00
0FFFFF00
0FFFFF00
000000F0
000000F0
000000F0
000000F0
0FFFFFF0
0FFFFFF0
0FFFFFF0
0FFFFFF0
F00000F0
F00000F0
F00000F0
F00000F0
0FFFFFF0
0FFFFFF0
0FFFFFF0
0FFFFFF0
00000000
00000000
00000000
00000000
ENDCHAR
STARTCHAR 62
ENCODING 98
SWIDTH 3840 0
DWIDTH 32 0
BBX 32 32 0 0
BITMAP
F0000000
F0000000
F0000000
F0000000
F0000000
F0000000
F0000000
F0000000
F0000000
F0000000
F0000000
F0000000
FFFFFF00
FFFFFF00
FFFFFF00
FFFFFF00
F00000F0
F00000F0
F00000F0
F00000F0
F00000F0
F00000F0
F00000F0
F00000F0
FFFFFF00
FFFFFF00
FFFFFF00
FFFFFF00
00000000
00000000
00000000
00000000
ENDCHAR
STARTCHAR 63
ENCODING 99
SWIDTH 3840 0
DWIDTH 32 0
BBX 32 32 0 0
BITMAP
00000000
00000000
00000000
00000000
00000000
00000000
00000000
00000000
00000000
00000000
00000000
00000000
0FFFFFF0
0FFFFFF0
0FFFFFF0
0FFFFFF0
F0000000
F0000000
F0000000
F0000000
F0000000
F0000000
F0000000
F0000000
0FFFFFF0
0FFFFFF0
0FFFFFF0
0FFFFFF0
00000000
00000000
00000000
00000000
ENDCHAR
STARTCHAR 64
ENCODING 100
SWIDTH 3840 0
DWIDTH 32 0
BBX 32 32 0 0
BITMAP
000000F0
000000F0
000000F0
000000F0
000000F0
000000F0
000000F0
000000F0
000000F0
000000F0
000000F0
000000F0
0FFFFFF0
0FFFFFF0
0FFFFFF0
0FFFFFF0
F00000F0
F00000F0
F00000F0
F00000F0
F00000F0
F00000F0
F00000F0
F00000F0
0FFFFFF0
0FFFFFF0
0FFFFFF0
0FFFFFF0
00000000
00000000
00000000
00000000
ENDCHAR
STARTCHAR 65
ENCODING 101
SWIDTH 3840 0
DWIDTH 32 0
BBX 32 32 0 0
BITMAP
00000000
00000000
00000000
00000000
00000000
00000000
00000000
00000000
0FFFFF00
0FFFFF00
0FFFFF00
0FFFFF00
F00000F0
F00000F0
F00000F0
F00000F0
FFFFFFF0
FFFFFFF0
FFFFFFF0
FFFFFFF0
F0000000
F0000000
F0000000
F0000000
0FFFFF00
0FFFFF00
0FFFFF00
0FFFFF00
00000000
00000000
00000000
00000000
ENDCHAR
STARTCHAR 66
ENCODING 102
SWIDTH 3840 0
DWIDTH 32 0
BBX 32 32 0 0
BITMAP
0000FFF0
0000FFF0
0000FFF0
0000FFF0
000F0000
000F0000
000F0000
000F0000
000F0000
000F0000
000F0000
000F0000
FFFFFFF0
FFFFFFF0
FFFFFFF0
FFFFFFF0
000F0000
000F0000
000F0000
000F0000
000F0000
000F0000
000F0000
000F0000
000F0000
000F0000
000F0000
000F0000
00000000
00000000
00000000
00000000
ENDCHAR
STARTCHAR 67
ENCODING 103
SWIDTH 3840 0
DWIDTH 32 0
BBX 32 32 0 0
BITMAP
00000000
00000000
00000000
00000000
00000000
00000000
00000000
00000000
0FFFFFF0
0FFFFFF0
0FFFFFF0
0FFFFFF0
F00000F0
F00000F0
F00000F0
F00000F0
F00000F0
F00000F0
F00000F0
F00000F0
0FFFFFF0
0FFFFFF0
0FFFFFF0
0FFFFFF0
000000F0
000000F0
000000F0
000000F0
0FFFFF00
0FFFFF00
0FFFFF00
0FFFFF00
ENDCHAR
STARTCHAR 68
ENCODING 104
SWIDTH 3840 0
DWIDTH 32 0
BBX 32 32 0 0
BITMAP
F0000000
F0000000
F0000000
F0000000
F0000000
F0000000
F0000000
F0000000
F0000000
F0000000
F0000000
F0000000
FFFFFF00
FFFFFF00
FFFFFF00
FFFFFF00
F00000F0
F00000F0
F00000F0
F00000F0
F00000F0
F00000F0
F00000F0
F00000F0
F00000F0
F00000F0
F00000F0
F00000F0
00000000
00000000
00000000
00000000
ENDCHAR
STARTCHAR 69
ENCODING 105
SWIDTH 3840 0
DWIDTH 32 0
BBX 32 32 0 0
BITMAP
000F0000
000F0000
000F0000
000F0000
00000000
00000000
00000000
00000000
00000000
00000000
00000000
00000000
000F0000
000F0000
000F0000
000F0000
000F0000
000F0000
000F0000
000F0000
000F0000
000F0000
000F0000
000F0000
000F0000
000F0000
000F0000
000F0000
00000000
00000000
00000000
00000000
ENDCHAR
STARTCHAR 6a
ENCODING 106
SWIDTH 3840 0
DWIDTH 32 0
BBX 32 32 0 0
BITMAP
000000F0
000000F0
000000F0
000000F0
00000000
00000000
00000000
00000000
000000F0
000000F0
000000F0
000000F0
000000F0
000000F0
000000F0
000000F0
000000F0
000000F0
000000F0
000000F0
000000F0
000000F0
000000F0
000000F0
F00000F0
F00000F0
F00000F0
F00000F0
0FFFFF00
0FFFFF00
0FFFFF00
0FFFFF00
ENDCHAR
STARTCHAR 6b
ENCODING 107
SWIDTH 3840 0
DWIDTH 32 0
BBX 32 32 0 0
BITMAP
F0000000
F0000000
F0000000
F0000000
F0000000
F0000000
F0000000
F0000000
F0000F00
F0000F00
F0000F00
F0000F00
F000F000
F000F000
F000F000
F000F000
FFFF0000
FFFF0000
FFFF0000
FFFF0000
F000F000
F000F000
F000F000
F000F000
F0000F00
F0000F00
F0000F00
F0000F00
00000000
00000000
00000000
00000000
ENDCHAR
STARTCHAR 6c
ENCODING 108
SWIDTH 3840 0
DWIDTH 32 0
BBX 32 32 0 0
BITMAP
00FF0000
00FF0000
00FF0000
00FF0000
000F0000
000F0000
000F0000
000F0000
000F0000
000F0000
000F0000
000F0000
000F0000
000F0000
000F0000
000F0000
000F0000
000F0000
000F0000
000F0000
000F0000
000F0000
000F0000
000F0000
0FFFFF00
0FFFFF00
0FFFFF00
0FFFFF00
00000000
00000000
00000000
00000000
ENDCHAR
STARTCHAR 6d
ENCODING 109
SWIDTH 3840 0
DWIDTH 32 0
BBX 32 32 0 0
BITMAP
00000000
00000000
00000000
00000000
00000000
00000000
00000000
00000000
FFF0FF00
FFF0FF00
FFF0FF00
FFF0FF00
F00F00F0
F00F00F0
F00F00F0
F00F00F0
F00F00F0
F00F00F0
F00F00F0
F00F00F0
F00F00F0
F00F00F0
F00F00F0
F00F00F0
F00F00F0
F00F00F0
F00F00F0
F00F00F0
00000000
00000000
00000000
00000000
ENDCHAR
STARTCHAR 6e
ENCODING 110
SWIDTH 3840 0
DWIDTH 32 0
BBX 32 32 0 0
BITMAP
00000000
00000000
00000000
00000000
00000000
00000000
00000000
00000000
F0FFFF00
F0FFFF00
F0FFFF00
F0FFFF00
FF0000F0
FF0000F0
FF0000F0
FF0000F0
F00000F0
F00000F0
F00000F0
F00000F0
F00000F0
F00000F0
F00000F0
F00000F0
F00000F0
F00000F0
F00000F0
F00000F0
00000000
00000000
00000000
00000000
ENDCHAR
STARTCHAR 6f
ENCODING 111
SWIDTH 3840 0
DWIDTH 32 0
BBX 32 32 0 0
BITMAP
00000000
00000000
00000000
00000000
00000000
00000000
00000000
00000000
0FFFFF00
0FFFFF00
0FFFFF00
0FFFFF00
F00000F0
F00000F0
F00000F0
F00000F0
F00000F0
F00000F0
F00000F0
F00000F0
F00000F0
F00000F0
F00000F0
F00000F0
0FFFFF00
0FFFFF00
0FFFFF00
0FFFFF00
00000000
00000000
00000000
00000000
ENDCHAR
STARTCHAR 70
ENCODING 112
SWIDTH 3840 0
DWIDTH 32 0
BBX 32 32 0 0
BITMAP
00000000
00000000
00000000
00000000
00000000
00000000
00000000
00000000
FFFFFF00
FFFFFF00
FFFFFF00
FFFFFF00
F00000F0
F00000F0
F00000F0
F00000F0
F00000F0
F00000F0
F00000F0
F00000F0
FFFFFF00
FFFFFF00
FFFFFF00
FFFFFF00
F0000000
F0000000
F0000000
F0000000
F0000000
F0000000
F0000000
F0000000
ENDCHAR
STARTCHAR 71
ENCODING 113
SWIDTH 3840 0
DWIDTH 32 0
BBX 32 32 0 0
BITMAP
00000000
00000000
00000000
00000000
00000000
00000000
00000000
00000000
0FFFFFF0
0FFFFFF0
0FFFFFF0
0FFFFFF0
F00000F0
F00000F0
F00000F0
F00000F0
F00000F0
F00000F0
F00000F0
F00000F0
0FFFFFF0
0FFFFFF0
0FFFFFF0
0FFFFFF0
000000F0
000000F0
000000F0
000000F0
000000F0
000000F0
000000F0
000000F0
ENDCHAR
STARTCHAR 72
ENCODING 114
SWIDTH 3840 0
DWIDTH 32 0
BBX 32 32 0 0
BITMAP
00000000
00000000
00000000
00000000
00000000
00000000
00000000
00000000
0F00FFF0
0F00FFF0
0F00FFF0
0F00FFF0
0F0F0000
0F0F0000
0F0F0000
0F0F0000
0FF00000
0FF00000
0FF00000
0FF00000
0F000000
0F000000
0F000000
0F000000
0F000000
0F000000
0F000000
0F000000
00000000
00000000
00000000
00000000
ENDCHAR
STARTCHAR 73
ENCODING 115
SWIDTH 3840 0
DWIDTH 32 0
BBX 32 32 0 0
BITMAP
00000000
00000000
00000000
00000000
00000000
00000000
00000000
00000000
0FFFFFF0
0FFFFFF0
0FFFFFF0
0FFFFFF0
F0000000
F0000000
F0000000
F0000000
0FFFFF00
0FFFFF00
0FFFFF00
0FFFFF00
000000F0
000000F0
000000F0
000000F0
FFFFFF00
FFFFFF00
FFFFFF00
FFFFFF00
00000000
00000000
00000000
00000000
ENDCHAR
STARTCHAR 74
ENCODING 116
SWIDTH 3840 0
DWIDTH 32 0
BBX 32 32 0 0
BITMAP
00F00000
00F00000
00F00000
00F00000
00F00000
00F00000
00F00000
00F00000
FFFFFF00
FFFFFF00
FFFFFF00
FFFFFF00
00F00000
00F00000
00F00000
00F00000
00F00000
00F00000
00F00000
00F00000
00F00000
00F00000
00F00000
00F00000
000FFFF0
000FFFF0
000FFFF0
000FFFF0
00000000
00000000
00000000
00000000
ENDCHAR
STARTCHAR 75
ENCODING 117
SWIDTH 3840 0
DWIDTH 32 0
BBX 32 32 0 0
BITMAP
00000000
00000000
00000000
00000000
00000000
00000000
00000000
00000000
F00000F0
F00000F0
F00000F0
F00000F0
F00000F0
F00000F0
F00000F0
F00000F0
F00000F0
F00000F0
F00000F0
F00000F0
F00000F0
F00000F0
F00000F0
F00000F0
0FFFFF00
0FFFFF00
0FFFFF00
0FFFFF00
00000000
00000000
00000000
00000000
ENDCHAR
STARTCHAR 76
ENCODING 118
SWIDTH 3840 0
DWIDTH 32 0
BBX 32 32 0 0
BITMAP
00000000
00000000
00000000
00000000
00000000
00000000
00000000
00000000
F00000F0
F00000F0
F00000F0
F00000F0
F00000F0
F00000F0
F00000F0
F00000F0
0F000F00
0F000F00
0F000F00
0F000F00
00F0F000
00F0F000
00F0F000
00F0F000
000F0000
000F0000
000F0000
000F0000
00000000
00000000
00000000
00000000
ENDCHAR
STARTCHAR 77
ENCODING 119
SWIDTH 3840 0
DWIDTH 32 0
BBX 32 32 0 0
BITMAP
00000000
00000000
00000000
00000000
00000000
00000000
00000000
00000000
F00000F0
F00000F0
F00000F0
F00000F0
F00000F0
F00000F0
F00000F0
F00000F0
F00F00F0
F00F00F0
F00F00F0
F00F00F0
F0F0F0F0
F0F0F0F0
F0F0F0F0
F0F0F0F0
0F000F00
0F000F00
0F000F00
0F000F00
00000000
00000000
00000000
00000000
ENDCHAR
STARTCHAR 78
ENCODING 120
SWIDTH 3840 0
DWIDTH 32 0
BBX 32 32 0 0
BITMAP
00000000
00000000
00000000
00000000
00000000
00000000
00000000
00000000
F00000F0
F00000F0
F00000F0
F00000F0
0F000F00
0F000F00
0F000F00
0F000F00
00FFF000
00FFF000
00FFF000
00FFF000
0F000F00
0F000F00
0F000F00
0F000F00
F00000F0
F00000F0
F00000F0
F00000F0
00000000
00000000
00000000
00000000
ENDCHAR
STARTCHAR 79
ENCODING 121
SWIDTH 3840 0
DWIDTH 32 0
BBX 32 32 0 0
BITMAP
00000000
00000000
00000000
00000000
00000000
00000000
00000000
00000000
F00000F0
F00000F0
F00000F0
F00000F0
F00000F0
F00000F0
F00000F0
F00000F0
F00000F0
F00000F0
F00000F0
F00000F0
0FFFFFF0
0FFFFFF0
0FFFFFF0
0FFFFFF0
000000F0
000000F0
000000F0
000000F0
0FFFFF00
0FFFFF00
0FFFFF00
0FFFFF00
ENDCHAR
STARTCHAR 7a
ENCODING 122
SWIDTH 3840 0
DWIDTH 32 0
BBX 32 32 0 0
BITMAP
00000000
00000000
00000000
00000000
00000000
00000000
00000000
00000000
FFFFFFF0
FFFFFFF0
FFFFFFF0
FFFFFFF0
00000F00
00000F00
00000F00
00000F00
00FFF000
00FFF000
00FFF000
00FFF000
0F000000
0F000000
0F000000
0F000000
FFFFFFF0
FFFFFFF0
FFFFFFF0
FFFFFFF0
00000000
00000000
00000000
00000000
ENDCHAR
STARTCHAR 7c
ENCODING 124
SWIDTH 3840 0
DWIDTH 32 0
BBX 32 32 0 0
BITMAP
0000F000
0000F000
0000F000
0000F000
0000F000
0000F000
0000F000
0000F000
0000F000
0000F000
0000F000
0000F000
0000F000
0000F000
0000F000
0000F000
0000F000
0000F000
0000F000
0000F000
0000F000
0000F000
0000F000
0000F000
0000F000
0000F000
0000F000
0000F000
0000F000
0000F000
0000F000
0000F000
ENDCHAR
STARTCHAR 7e
ENCODING 126
SWIDTH 3840 0
DWIDTH 32 0
BBX 32 32 0 0
BITMAP
00000000
00000000
00000000
00000000
00000000
00000000
00000000
00000000
0FF00000
0FF00000
0FF00000
0FF00000
F00F0000
F00F0000
F00F0000
F00F0000
0000F00F
0000F00F
0000F00F
0000F00F
00000FF0
00000FF0
00000FF0
00000FF0
00000000
00000000
00000000
00000000
00000000
00000000
00000000
00000000
ENDCHAR
STARTCHAR d7
ENCODING 215
SWIDTH 3840 0
DWIDTH 32 0
BBX 32 32 0 0
BITMAP
F000000F
F000000F
F000000F
F000000F
0F0000F0
0F0000F0
0F0000F0
0F0000F0
00F00F00
00F00F00
00F00F00
00F00F00
000FF000
000FF000
000FF000
000FF000
000FF000
000FF000
000FF000
000FF000
00F00F00
00F00F00
00F00F00
00F00F00
0F0000F0
0F0000F0
0F0000F0
0F0000F0
F000000F
F000000F
F000000F
F000000F
ENDCHAR
STARTCHAR 3c0
ENCODING 960
SWIDTH 3840 0
DWIDTH 32 0
BBX 32 32 0 0
BITMAP
00000000
00000000
00000000
00000000
000000F0
000000F0
000000F0
000000F0
000000F0
000000F0
000000F0
000000F0
0FFFFF00
0FFFFF00
0FFFFF00
0FFFFF00
F0F0F000
F0F0F000
F0F0F000
F0F0F000
F0F0F000
F0F0F000
F0F0F000
F0F0F000
00F0F000
00F0F000
00F0F000
00F0F000
00000000
00000000
00000000
00000000
ENDCHAR
STARTCHAR 2026
ENCODING 8230
SWIDTH 3840 0
DWIDTH 32 0
BBX 32 32 0 0
BITMAP
00000000
00000000
00000000
00000000
00000000
00000000
00000000
00000000
00000000
00000000
00000000
00000000
0FF00000
0FF00000
0FF00000
0FF00000
F00F0000
F00F0000
F00F0000
F00F0000
F00F0000
F00F0000
F00F0000
F00F0000
0FF00000
0FF00000
0FF00000
0FF00000
00000000
00000000
00000000
00000000
ENDCHAR
STARTCHAR 2190
ENCODING 8592
SWIDTH 3840 0
DWIDTH 32 0
BBX 32 32 0 0
BITMAP
00000000
00000000
00000000
00000000
0000F000
0000F000
0000F000
0000F000
000FF000
000FF000
000FF000
000FF000
00FFF000
00FFF000
00FFF000
00FFF000
0FFFFFFF
0FFFFFFF
0FFFFFFF
0FFFFFFF
00FFF000
00FFF000
00FFF000
00FFF000
000FF000
000FF000
000FF000
000FF000
0000F000
0000F000
0000F000
0000F000
ENDCHAR
STARTCHAR 2191
ENCODING 8593
SWIDTH 3840 0
DWIDTH 32 0
BBX 32 32 0 0
BITMAP
00000000
00000000
00000000
00000000
0000F000
0000F000
0000F000
0000F000
000FFF00
000FFF00
000FFF00
000FFF00
00FFFFF0
00FFFFF0
00FFFFF0
00FFFFF0
0FFFFFFF
0FFFFFFF
0FFFFFFF
0FFFFFFF
0000F000
0000F000
0000F000
0000F000
0000F000
0000F000
0000F000
0000F000
0000F000
0000F000
0000F000
0000F000
ENDCHAR
STARTCHAR 2192
ENCODING 8594
SWIDTH 3840 0
DWIDTH 32 0
BBX 32 32 0 0
BITMAP
00000000
00000000
00000000
00000000
000F0000
000F0000
000F0000
000F0000
000FF000
000FF000
000FF000
000FF000
000FFF00
000FFF00
000FFF00
000FFF00
FFFFFFF0
FFFFFFF0
FFFFFFF0
FFFFFFF0
000FFF00
000FFF00
000FFF00
000FFF00
000FF000
000FF000
000FF000
000FF000
000F0000
000F0000
000F0000
000F0000
ENDCHAR
STARTCHAR 2193
ENCODING 8595
SWIDTH 3840 0
DWIDTH 32 0
BBX 32 32 0 0
BITMAP
0000F000
0000F000
0000F000
0000F000
0000F000
0000F000
0000F000
0000F000
0000F000
0000F000
0000F000
0000F000
0FFFFFFF
0FFFFFFF
0FFFFFFF
0FFFFFFF
00FFFFF0
00FFFFF0
00FFFFF0
00FFFFF0
000FFF00
000FFF00
000FFF00
000FFF00
0000F000
0000F000
0000F000
0000F000
00000000
00000000
00000000
00000000
ENDCHAR
STARTCHAR 21bf
ENCODING 8639
SWIDTH 3840 0
DWIDTH 32 0
BBX 32 32 0 0
BITMAP
000000F0
000000F0
000000F0
000000F0
000000F0
000000F0
000000F0
000000F0
000000F0
000000F0
000000F0
000000F0
000000F0
000000F0
000000F0
000000F0
000000F0
000000F0
000000F0
000000F0
000000F0
000000F0
000000F0
000000F0
00000FFF
00000FFF
00000FFF
00000FFF
000000F0
000000F0
000000F0
000000F0
ENDCHAR
STARTCHAR 21c0
ENCODING 8640
SWIDTH 3840 0
DWIDTH 32 0
BBX 32 32 0 0
BITMAP
00000000
00000000
00000000
00000000
00000000
00000000
00000000
00000000
00000000
00000000
00000000
00000000
00000000
00000000
00000000
00000000
00000000
00000000
00000000
00000000
000000F0
000000F0
000000F0
000000F0
FFFFFFFF
FFFFFFFF
FFFFFFFF
FFFFFFFF
000000F0
000000F0
000000F0
000000F0
ENDCHAR
STARTCHAR 21d6
ENCODING 8662
SWIDTH 3840 0
DWIDTH 32 0
BBX 32 32 0 0
BITMAP
00F00000
00F00000
00F00000
00F00000
000F0000
000F0000
000F0000
000F0000
F000F000
F000F000
F000F000
F000F000
0F000F00
0F000F00
0F000F00
0F000F00
00F000F0
00F000F0
00F000F0
00F000F0
000F000F
000F000F
000F000F
000F000F
0000F000
0000F000
0000F000
0000F000
00000F00
00000F00
00000F00
00000F00
ENDCHAR
STARTCHAR 21d7
ENCODING 8663
SWIDTH 3840 0
DWIDTH 32 0
BBX 32 32 0 0
BITMAP
00000F00
00000F00
00000F00
00000F00
0000F000
0000F000
0000F000
0000F000
000F000F
000F000F
000F000F
000F000F
00F000F0
00F000F0
00F000F0
00F000F0
0F000F00
0F000F00
0F000F00
0F000F00
F000F000
F000F000
F000F000
F000F000
000F0000
000F0000
000F0000
000F0000
00F00000
00F00000
00F00000
00F00000
ENDCHAR
STARTCHAR 21e6
ENCODING 8678
SWIDTH 3840 0
DWIDTH 32 0
BBX 32 32 0 0
BITMAP
FFFFFFFF
FFFFFFFF
FFFFFFFF
FFFFFFFF
FFFF0FFF
FFFF0FFF
FFFF0FFF
FFFF0FFF
FFF00FFF
FFF00FFF
FFF00FFF
FFF00FFF
FF000FFF
FF000FFF
FF000FFF
FF000FFF
F0000000
F0000000
F0000000
F0000000
FF000FFF
FF000FFF
FF000FFF
FF000FFF
FFF00FFF
FFF00FFF
FFF00FFF
FFF00FFF
FFFF0FFF
FFFF0FFF
FFFF0FFF
FFFF0FFF
ENDCHAR
STARTCHAR 21e7
ENCODING 8679
SWIDTH 3840 0
DWIDTH 32 0
BBX 32 32 0 0
BITMAP
FFFFFFFF
FFFFFFFF
FFFFFFFF
FFFFFFFF
FFFF0FFF
FFFF0FFF
FFFF0FFF
FFFF0FFF
FFF000FF
FFF000FF
FFF000FF
FFF000FF
FF00000F
FF00000F
FF00000F
FF00000F
F0000000
F0000000
F0000000
F0000000
FFFF0FFF
FFFF0FFF
FFFF0FFF
FFFF0FFF
FFFF0FFF
FFFF0FFF
FFFF0FFF
FFFF0FFF
FFFF0FFF
FFFF0FFF
FFFF0FFF
FFFF0FFF
ENDCHAR
STARTCHAR 21e8
ENCODING 8680
SWIDTH 3840 0
DWIDTH 32 0
BBX 32 32 0 0
BITMAP
FFFFFFFF
FFFFFFFF
FFFFFFFF
FFFFFFFF
FFF0FFFF
FFF0FFFF
FFF0FFFF
FFF0FFFF
FFF00FFF
FFF00FFF
FFF00FFF
FFF00FFF
FFF000FF
FFF000FF
FFF000FF
FFF000FF
0000000F
0000000F
0000000F
0000000F
FFF000FF
FFF000FF
FFF000FF
FFF000FF
FFF00FFF
FFF00FFF
FFF00FFF
FFF00FFF
FFF0FFFF
FFF0FFFF
FFF0FFFF
FFF0FFFF
ENDCHAR
STARTCHAR 21e9
ENCODING 8681
SWIDTH 3840 0
DWIDTH 32 0
BBX 32 32 0 0
BITMAP
FFFF0FFF
FFFF0FFF
FFFF0FFF
FFFF0FFF
FFFF0FFF
FFFF0FFF
FFFF0FFF
FFFF0FFF
FFFF0FFF
FFFF0FFF
FFFF0FFF
FFFF0FFF
F0000000
F0000000
F0000000
F0000000
FF00000F
FF00000F
FF00000F
FF00000F
FFF000FF
FFF000FF
FFF000FF
FFF000FF
FFFF0FFF
FFFF0FFF
FFFF0FFF
FFFF0FFF
FFFFFFFF
FFFFFFFF
FFFFFFFF
FFFFFFFF
ENDCHAR
STARTCHAR 22a5
ENCODING 8869
SWIDTH 3840 0
DWIDTH 32 0
BBX 32 32 0 0
BITMAP
000000F0
000000F0
000000F0
000000F0
000000F0
000000F0
000000F0
000000F0
000000F0
000000F0
000000F0
000000F0
000000F0
000000F0
000000F0
000000F0
000000F0
000000F0
000000F0
000000F0
000000F0
000000F0
000000F0
000000F0
FFFFFFFF
FFFFFFFF
FFFFFFFF
FFFFFFFF
000000F0
000000F0
000000F0
000000F0
ENDCHAR
STARTCHAR 2460
ENCODING 9312
SWIDTH 3840 0
DWIDTH 32 0
BBX 32 32 0 0
BITMAP
FFFF0000
FFFF0000
FFFF0000
FFFF0000
FFFF0000
FFFF0000
FFFF0000
FFFF0000
FFFF0000
FFFF0000
FFFF0000
FFFF0000
FFFF0000
FFFF0000
FFFF0000
FFFF0000
00000000
00000000
00000000
00000000
00000000
00000000
00000000
00000000
00000000
00000000
00000000
00000000
00000000
00000000
00000000
00000000
ENDCHAR
STARTCHAR 2461
ENCODING 9313
SWIDTH 3840 0
DWIDTH 32 0
BBX 32 32 0 0
BITMAP
0000FFFF
0000FFFF
0000FFFF
0000FFFF
0000FFFF
0000FFFF
0000FFFF
0000FFFF
0000FFFF
0000FFFF
0000FFFF
0000FFFF
0000FFFF
0000FFFF
0000FFFF
0000FFFF
00000000
00000000
00000000
00000000
00000000
00000000
00000000
00000000
00000000
00000000
00000000
00000000
00000000
00000000
00000000
00000000
ENDCHAR
STARTCHAR 2462
ENCODING 9314
SWIDTH 3840 0
DWIDTH 32 0
BBX 32 32 0 0
BITMAP
FFFFFFFF
FFFFFFFF
FFFFFFFF
FFFFFFFF
FFFFFFFF
FFFFFFFF
FFFFFFFF
FFFFFFFF
FFFFFFFF
FFFFFFFF
FFFFFFFF
FFFFFFFF
FFFFFFFF
FFFFFFFF
FFFFFFFF
FFFFFFFF
00000000
00000000
00000000
00000000
00000000
00000000
00000000
00000000
00000000
00000000
00000000
00000000
00000000
00000000
00000000
00000000
ENDCHAR
STARTCHAR 2463
ENCODING 9315
SWIDTH 3840 0
DWIDTH 32 0
BBX 32 32 0 0
BITMAP
00000000
00000000
00000000
00000000
00000000
00000000
00000000
00000000
00000000
00000000
00000000
00000000
00000000
00000000
00000000
00000000
FFFF0000
FFFF0000
FFFF0000
FFFF0000
FFFF0000
FFFF0000
FFFF0000
FFFF0000
FFFF0000
FFFF0000
FFFF0000
FFFF0000
FFFF0000
FFFF0000
FFFF0000
FFFF0000
ENDCHAR
STARTCHAR 2464
ENCODING 9316
SWIDTH 3840 0
DWIDTH 32 0
BBX 32 32 0 0
BITMAP
FFFF0000
FFFF0000
FFFF0000
FFFF0000
FFFF0000
FFFF0000
FFFF0000
FFFF0000
FFFF0000
FFFF0000
FFFF0000
FFFF0000
FFFF0000
FFFF0000
FFFF0000
FFFF0000
FFFF0000
FFFF0000
FFFF0000
FFFF0000
FFFF0000
FFFF0000
FFFF0000
FFFF0000
FFFF0000
FFFF0000
FFFF0000
FFFF0000
FFFF0000
FFFF0000
FFFF0000
FFFF0000
ENDCHAR
STARTCHAR 2465
ENCODING 9317
SWIDTH 3840 0
DWIDTH 32 0
BBX 32 32 0 0
BITMAP
0000FFFF
0000FFFF
0000FFFF
0000FFFF
0000FFFF
0000FFFF
0000FFFF
0000FFFF
0000FFFF
0000FFFF
0000FFFF
0000FFFF
0000FFFF
0000FFFF
0000FFFF
0000FFFF
FFFF0000
FFFF0000
FFFF0000
FFFF0000
FFFF0000
FFFF0000
FFFF0000
FFFF0000
FFFF0000
FFFF0000
FFFF0000
FFFF0000
FFFF0000
FFFF0000
FFFF0000
FFFF0000
ENDCHAR
STARTCHAR 2466
ENCODING 9318
SWIDTH 3840 0
DWIDTH 32 0
BBX 32 32 0 0
BITMAP
FFFFFFFF
FFFFFFFF
FFFFFFFF
FFFFFFFF
FFFFFFFF
FFFFFFFF
FFFFFFFF
FFFFFFFF
FFFFFFFF
FFFFFFFF
FFFFFFFF
FFFFFFFF
FFFFFFFF
FFFFFFFF
FFFFFFFF
FFFFFFFF
FFFF0000
FFFF0000
FFFF0000
FFFF0000
FFFF0000
FFFF0000
FFFF0000
FFFF0000
FFFF0000
FFFF0000
FFFF0000
FFFF0000
FFFF0000
FFFF0000
FFFF0000
FFFF0000
ENDCHAR
STARTCHAR 2467
ENCODING 9319
SWIDTH 3840 0
DWIDTH 32 0
BBX 32 32 0 0
BITMAP
00000000
00000000
00000000
00000000
00000000
00000000
00000000
00000000
00000000
00000000
00000000
00000000
00000000
00000000
00000000
00000000
0000FFFF
0000FFFF
0000FFFF
0000FFFF
0000FFFF
0000FFFF
0000FFFF
0000FFFF
0000FFFF
0000FFFF
0000FFFF
0000FFFF
0000FFFF
0000FFFF
0000FFFF
0000FFFF
ENDCHAR
STARTCHAR 2468
ENCODING 9320
SWIDTH 3840 0
DWIDTH 32 0
BBX 32 32 0 0
BITMAP
FFFF0000
FFFF0000
FFFF0000
FFFF0000
FFFF0000
FFFF0000
FFFF0000
FFFF0000
FFFF0000
FFFF0000
FFFF0000
FFFF0000
FFFF0000
FFFF0000
FFFF0000
FFFF0000
0000FFFF
0000FFFF
0000FFFF
0000FFFF
0000FFFF
0000FFFF
0000FFFF
0000FFFF
0000FFFF
0000FFFF
0000FFFF
0000FFFF
0000FFFF
0000FFFF
0000FFFF
0000FFFF
ENDCHAR
STARTCHAR 2469
ENCODING 9321
SWIDTH 3840 0
DWIDTH 32 0
BBX 32 32 0 0
BITMAP
0000FFFF
0000FFFF
0000FFFF
0000FFFF
0000FFFF
0000FFFF
0000FFFF
0000FFFF
0000FFFF
0000FFFF
0000FFFF
0000FFFF
0000FFFF
0000FFFF
0000FFFF
0000FFFF
0000FFFF
0000FFFF
0000FFFF
0000FFFF
0000FFFF
0000FFFF
0000FFFF
0000FFFF
0000FFFF
0000FFFF
0000FFFF
0000FFFF
0000FFFF
0000FFFF
0000FFFF
0000FFFF
ENDCHAR
STARTCHAR 246a
ENCODING 9322
SWIDTH 3840 0
DWIDTH 32 0
BBX 32 32 0 0
BITMAP
FFFFFFFF
FFFFFFFF
FFFFFFFF
FFFFFFFF
FFFFFFFF
FFFFFFFF
FFFFFFFF
FFFFFFFF
FFFFFFFF
FFFFFFFF
FFFFFFFF
FFFFFFFF
FFFFFFFF
FFFFFFFF
FFFFFFFF
FFFFFFFF
0000FFFF
0000FFFF
0000FFFF
0000FFFF
0000FFFF
0000FFFF
0000FFFF
0000FFFF
0000FFFF
0000FFFF
0000FFFF
0000FFFF
0000FFFF
0000FFFF
0000FFFF
0000FFFF
ENDCHAR
STARTCHAR 246b
ENCODING 9323
SWIDTH 3840 0
DWIDTH 32 0
BBX 32 32 0 0
BITMAP
00000000
00000000
00000000
00000000
00000000
00000000
00000000
00000000
00000000
00000000
00000000
00000000
00000000
00000000
00000000
00000000
FFFFFFFF
FFFFFFFF
FFFFFFFF
FFFFFFFF
FFFFFFFF
FFFFFFFF
FFFFFFFF
FFFFFFFF
FFFFFFFF
FFFFFFFF
FFFFFFFF
FFFFFFFF
FFFFFFFF
FFFFFFFF
FFFFFFFF
FFFFFFFF
ENDCHAR
STARTCHAR 246c
ENCODING 9324
SWIDTH 3840 0
DWIDTH 32 0
BBX 32 32 0 0
BITMAP
FFFF0000
FFFF0000
FFFF0000
FFFF0000
FFFF0000
FFFF0000
FFFF0000
FFFF0000
FFFF0000
FFFF0000
FFFF0000
FFFF0000
FFFF0000
FFFF0000
FFFF0000
FFFF0000
FFFFFFFF
FFFFFFFF
FFFFFFFF
FFFFFFFF
FFFFFFFF
FFFFFFFF
FFFFFFFF
FFFFFFFF
FFFFFFFF
FFFFFFFF
FFFFFFFF
FFFFFFFF
FFFFFFFF
FFFFFFFF
FFFFFFFF
FFFFFFFF
ENDCHAR
STARTCHAR 246d
ENCODING 9325
SWIDTH 3840 0
DWIDTH 32 0
BBX 32 32 0 0
BITMAP
0000FFFF
0000FFFF
0000FFFF
0000FFFF
0000FFFF
0000FFFF
0000FFFF
0000FFFF
0000FFFF
0000FFFF
0000FFFF
0000FFFF
0000FFFF
0000FFFF
0000FFFF
0000FFFF
FFFFFFFF
FFFFFFFF
FFFFFFFF
FFFFFFFF
FFFFFFFF
FFFFFFFF
FFFFFFFF
FFFFFFFF
FFFFFFFF
FFFFFFFF
FFFFFFFF
FFFFFFFF
FFFFFFFF
FFFFFFFF
FFFFFFFF
FFFFFFFF
ENDCHAR
STARTCHAR 246e
ENCODING 9326
SWIDTH 3840 0
DWIDTH 32 0
BBX 32 32 0 0
BITMAP
FFFFFFFF
FFFFFFFF
FFFFFFFF
FFFFFFFF
FFFFFFFF
FFFFFFFF
FFFFFFFF
FFFFFFFF
FFFFFFFF
FFFFFFFF
FFFFFFFF
FFFFFFFF
FFFFFFFF
FFFFFFFF
FFFFFFFF
FFFFFFFF
FFFFFFFF
FFFFFFFF
FFFFFFFF
FFFFFFFF
FFFFFFFF
FFFFFFFF
FFFFFFFF
FFFFFFFF
FFFFFFFF
FFFFFFFF
FFFFFFFF
FFFFFFFF
FFFFFFFF
FFFFFFFF
FFFFFFFF
FFFFFFFF
ENDCHAR
STARTCHAR 24b8
ENCODING 9400
SWIDTH 3840 0
DWIDTH 32 0
BBX 32 32 0 0
BITMAP
F00000FF
F00000FF
F00000FF
F00000FF
0FFFFF0F
0FFFFF0F
0FFFFF0F
0FFFFF0F
0FFFFFFF
0FFFFFFF
0FFFFFFF
0FFFFFFF
0FFFFFFF
0FFFFFFF
0FFFFFFF
0FFFFFFF
0FFFFFFF
0FFFFFFF
0FFFFFFF
0FFFFFFF
0FFFFF0F
0FFFFF0F
0FFFFF0F
0FFFFF0F
F00000FF
F00000FF
F00000FF
F00000FF
FFFFFFFF
FFFFFFFF
FFFFFFFF
FFFFFFFF
ENDCHAR
STARTCHAR 24bd
ENCODING 9405
SWIDTH 3840 0
DWIDTH 32 0
BBX 32 32 0 0
BITMAP
0FFFFF0F
0FFFFF0F
0FFFFF0F
0FFFFF0F
0FFFFF0F
0FFFFF0F
0FFFFF0F
0FFFFF0F
0FFFFF0F
0FFFFF0F
0FFFFF0F
0FFFFF0F
0000000F
0000000F
0000000F
0000000F
0FFFFF0F
0FFFFF0F
0FFFFF0F
0FFFFF0F
0FFFFF0F
0FFFFF0F
0FFFFF0F
0FFFFF0F
0FFFFF0F
0FFFFF0F
0FFFFF0F
0FFFFF0F
FFFFFFFF
FFFFFFFF
FFFFFFFF
FFFFFFFF
ENDCHAR
STARTCHAR 2500
ENCODING 9472
SWIDTH 3840 0
DWIDTH 32 0
BBX 32 32 0 0
BITMAP
00000000
00000000
00000000
00000000
00000000
00000000
00000000
00000000
00000000
00000000
00000000
00000000
00000000
00000000
00000000
00000000
FFFFFFFF
FFFFFFFF
FFFFFFFF
FFFFFFFF
00000000
00000000
00000000
00000000
00000000
00000000
00000000
00000000
00000000
00000000
00000000
00000000
ENDCHAR
STARTCHAR 2503
ENCODING 9475
SWIDTH 3840 0
DWIDTH 32 0
BBX 32 32 0 0
BITMAP
000F0000
000F0000
000F0000
000F0000
000F0000
000F0000
000F0000
000F0000
000F0000
000F0000
000F0000
000F0000
000F0000
000F0000
000F0000
000F0000
000F0000
000F0000
000F0000
000F0000
000F0000
000F0000
000F0000
000F0000
000F0000
000F0000
000F0000
000F0000
000F0000
000F0000
000F0000
000F0000
ENDCHAR
STARTCHAR 2506
ENCODING 9478
SWIDTH 3840 0
DWIDTH 32 0
BBX 32 32 0 0
BITMAP
000000F0
000000F0
000000F0
000000F0
000000F0
000000F0
000000F0
000000F0
000000F0
000000F0
000000F0
000000F0
000000F0
000000F0
000000F0
000000F0
000000F0
000000F0
000000F0
000000F0
000000F0
000000F0
000000F0
000000F0
000000F0
000000F0
000000F0
000000F0
000000F0
000000F0
000000F0
000000F0
ENDCHAR
STARTCHAR 2507
ENCODING 9479
SWIDTH 3840 0
DWIDTH 32 0
BBX 32 32 0 0
BITMAP
0F000000
0F000000
0F000000
0F000000
0F000000
0F000000
0F000000
0F000000
0F000000
0F000000
0F000000
0F000000
0F000000
0F000000
0F000000
0F000000
0F000000
0F000000
0F000000
0F000000
0F000000
0F000000
0F000000
0F000000
0F000000
0F000000
0F000000
0F000000
0F000000
0F000000
0F000000
0F000000
ENDCHAR
STARTCHAR 250a
ENCODING 9482
SWIDTH 3840 0
DWIDTH 32 0
BBX 32 32 0 0
BITMAP
00000F00
00000F00
00000F00
00000F00
00000F00
00000F00
00000F00
00000F00
00000F00
00000F00
00000F00
00000F00
00000F00
00000F00
00000F00
00000F00
00000F00
00000F00
00000F00
00000F00
00000F00
00000F00
00000F00
00000F00
00000F00
00000F00
00000F00
00000F00
00000F00
00000F00
00000F00
00000F00
ENDCHAR
STARTCHAR 250b
ENCODING 9483
SWIDTH 3840 0
DWIDTH 32 0
BBX 32 32 0 0
BITMAP
00F00000
00F00000
00F00000
00F00000
00F00000
00F00000
00F00000
00F00000
00F00000
00F00000
00F00000
00F00000
00F00000
00F00000
00F00000
00F00000
00F00000
00F00000
00F00000
00F00000
00F00000
00F00000
00F00000
00F00000
00F00000
00F00000
00F00000
00F00000
00F00000
00F00000
00F00000
00F00000
ENDCHAR
STARTCHAR 250c
ENCODING 9484
SWIDTH 3840 0
DWIDTH 32 0
BBX 32 32 0 0
BITMAP
00000000
00000000
00000000
00000000
00000000
00000000
00000000
00000000
00000000
00000000
00000000
00000000
00000000
00000000
00000000
00000000
0000FFFF
0000FFFF
0000FFFF
0000FFFF
0000F000
0000F000
0000F000
0000F000
0000F000
0000F000
0000F000
0000F000
0000F000
0000F000
0000F000
0000F000
ENDCHAR
STARTCHAR 250f
ENCODING 9487
SWIDTH 3840 0
DWIDTH 32 0
BBX 32 32 0 0
BITMAP
FFFFFFFF
FFFFFFFF
FFFFFFFF
FFFFFFFF
F0000000
F0000000
F0000000
F0000000
F0000000
F0000000
F0000000
F0000000
F0000000
F0000000
F0000000
F0000000
F0000000
F0000000
F0000000
F0000000
F0000000
F0000000
F0000000
F0000000
F0000000
F0000000
F0000000
F0000000
F0000000
F0000000
F0000000
F0000000
ENDCHAR
STARTCHAR 2510
ENCODING 9488
SWIDTH 3840 0
DWIDTH 32 0
BBX 32 32 0 0
BITMAP
00000000
00000000
00000000
00000000
00000000
00000000
00000000
00000000
00000000
00000000
00000000
00000000
00000000
00000000
00000000
00000000
FFFFF000
FFFFF000
FFFFF000
FFFFF000
0000F000
0000F000
0000F000
0000F000
0000F000
0000F000
0000F000
0000F000
0000F000
0000F000
0000F000
0000F000
ENDCHAR
STARTCHAR 2513
ENCODING 9491
SWIDTH 3840 0
DWIDTH 32 0
BBX 32 32 0 0
BITMAP
FFFFFFFF
FFFFFFFF
FFFFFFFF
FFFFFFFF
0000000F
0000000F
0000000F
0000000F
0000000F
0000000F
0000000F
0000000F
0000000F
0000000F
0000000F
0000000F
0000000F
0000000F
0000000F
0000000F
0000000F
0000000F
0000000F
0000000F
0000000F
0000000F
0000000F
0000000F
0000000F
0000000F
0000000F
0000000F
ENDCHAR
STARTCHAR 2514
ENCODING 9492
SWIDTH 3840 0
DWIDTH 32 0
BBX 32 32 0 0
BITMAP
0000F000
0000F000
0000F000
0000F000
0000F000
0000F000
0000F000
0000F000
0000F000
0000F000
0000F000
0000F000
0000F000
0000F000
0000F000
0000F000
0000FFFF
0000FFFF
0000FFFF
0000FFFF
00000000
00000000
00000000
00000000
00000000
00000000
00000000
00000000
00000000
00000000
00000000
00000000
ENDCHAR
STARTCHAR 2517
ENCODING 9495
SWIDTH 3840 0
DWIDTH 32 0
BBX 32 32 0 0
BITMAP
F0000000
F0000000
F0000000
F0000000
F0000000
F0000000
F0000000
F0000000
F0000000
F0000000
F0000000
F0000000
F0000000
F0000000
F0000000
F0000000
F0000000
F0000000
F0000000
F0000000
F0000000
F0000000
F0000000
F0000000
F0000000
F0000000
F0000000
F0000000
FFFFFFFF
FFFFFFFF
FFFFFFFF
FFFFFFFF
ENDCHAR
STARTCHAR 2518
ENCODING 9496
SWIDTH 3840 0
DWIDTH 32 0
BBX 32 32 0 0
BITMAP
0000F000
0000F000
0000F000
0000F000
0000F000
0000F000
0000F000
0000F000
0000F000
0000F000
0000F000
0000F000
0000F000
0000F000
0000F000
0000F000
FFFFF000
FFFFF000
FFFFF000
FFFFF000
00000000
00000000
00000000
00000000
00000000
00000000
00000000
00000000
00000000
00000000
00000000
00000000
ENDCHAR
STARTCHAR 251b
ENCODING 9499
SWIDTH 3840 0
DWIDTH 32 0
BBX 32 32 0 0
BITMAP
0000000F
0000000F
0000000F
0000000F
0000000F
0000000F
0000000F
0000000F
0000000F
0000000F
0000000F
0000000F
0000000F
0000000F
0000000F
0000000F
0000000F
0000000F
0000000F
0000000F
0000000F
0000000F
0000000F
0000000F
0000000F
0000000F
0000000F
0000000F
FFFFFFFF
FFFFFFFF
FFFFFFFF
FFFFFFFF
ENDCHAR
STARTCHAR 251c
ENCODING 9500
SWIDTH 3840 0
DWIDTH 32 0
BBX 32 32 0 0
BITMAP
0000F000
0000F000
0000F000
0000F000
0000F000
0000F000
0000F000
0000F000
0000F000
0000F000
0000F000
0000F000
0000F000
0000F000
0000F000
0000F000
0000FFFF
0000FFFF
0000FFFF
0000FFFF
0000F000
0000F000
0000F000
0000F000
0000F000
0000F000
0000F000
0000F000
0000F000
0000F000
0000F000
0000F000
ENDCHAR
STARTCHAR 2524
ENCODING 9508
SWIDTH 3840 0
DWIDTH 32 0
BBX 32 32 0 0
BITMAP
0000F000
0000F000
0000F000
0000F000
0000F000
0000F000
0000F000
0000F000
0000F000
0000F000
0000F000
0000F000
0000F000
0000F000
0000F000
0000F000
FFFFF000
FFFFF000
FFFFF000
FFFFF000
0000F000
0000F000
0000F000
0000F000
0000F000
0000F000
0000F000
0000F000
0000F000
0000F000
0000F000
0000F000
ENDCHAR
STARTCHAR 252c
ENCODING 9516
SWIDTH 3840 0
DWIDTH 32 0
BBX 32 32 0 0
BITMAP
00000000
00000000
00000000
00000000
00000000
00000000
00000000
00000000
00000000
00000000
00000000
00000000
00000000
00000000
00000000
00000000
FFFFFFFF
FFFFFFFF
FFFFFFFF
FFFFFFFF
0000F000
0000F000
0000F000
0000F000
0000F000
0000F000
0000F000
0000F000
0000F000
0000F000
0000F000
0000F000
ENDCHAR
STARTCHAR 2534
ENCODING 9524
SWIDTH 3840 0
DWIDTH 32 0
BBX 32 32 0 0
BITMAP
0000F000
0000F000
0000F000
0000F000
0000F000
0000F000
0000F000
0000F000
0000F000
0000F000
0000F000
0000F000
0000F000
0000F000
0000F000
0000F000
FFFFFFFF
FFFFFFFF
FFFFFFFF
FFFFFFFF
00000000
00000000
00000000
00000000
00000000
00000000
00000000
00000000
00000000
00000000
00000000
00000000
ENDCHAR
STARTCHAR 253c
ENCODING 9532
SWIDTH 3840 0
DWIDTH 32 0
BBX 32 32 0 0
BITMAP
0000F000
0000F000
0000F000
0000F000
0000F000
0000F000
0000F000
0000F000
0000F000
0000F000
0000F000
0000F000
0000F000
0000F000
0000F000
0000F000
FFFFFFFF
FFFFFFFF
FFFFFFFF
FFFFFFFF
0000F000
0000F000
0000F000
0000F000
0000F000
0000F000
0000F000
0000F000
0000F000
0000F000
0000F000
0000F000
ENDCHAR
STARTCHAR 256d
ENCODING 9581
SWIDTH 3840 0
DWIDTH 32 0
BBX 32 32 0 0
BITMAP
00000000
00000000
00000000
00000000
00000000
00000000
00000000
00000000
00000000
00000000
00000000
00000000
00000000
00000000
00000000
00000000
000000FF
000000FF
000000FF
000000FF
00000F00
00000F00
00000F00
00000F00
0000F000
0000F000
0000F000
0000F000
0000F000
0000F000
0000F000
0000F000
ENDCHAR
STARTCHAR 256e
ENCODING 9582
SWIDTH 3840 0
DWIDTH 32 0
BBX 32 32 0 0
BITMAP
00000000
00000000
00000000
00000000
00000000
00000000
00000000
00000000
00000000
00000000
00000000
00000000
00000000
00000000
00000000
00000000
FFF00000
FFF00000
FFF00000
FFF00000
000F0000
000F0000
000F0000
000F0000
0000F000
0000F000
0000F000
0000F000
0000F000
0000F000
0000F000
0000F000
ENDCHAR
STARTCHAR 256f
ENCODING 9583
SWIDTH 3840 0
DWIDTH 32 0
BBX 32 32 0 0
BITMAP
0000F000
0000F000
0000F000
0000F000
0000F000
0000F000
0000F000
0000F000
0000F000
0000F000
0000F000
0000F000
000F0000
000F0000
000F0000
000F0000
FFF00000
FFF00000
FFF00000
FFF00000
00000000
00000000
00000000
00000000
00000000
00000000
00000000
00000000
00000000
00000000
00000000
00000000
ENDCHAR
STARTCHAR 2570
ENCODING 9584
SWIDTH 3840 0
DWIDTH 32 0
BBX 32 32 0 0
BITMAP
0000F000
0000F000
0000F000
0000F000
0000F000
0000F000
0000F000
0000F000
0000F000
0000F000
0000F000
0000F000
00000F00
00000F00
00000F00
00000F00
000000FF
000000FF
000000FF
000000FF
00000000
00000000
00000000
00000000
00000000
00000000
00000000
00000000
00000000
00000000
00000000
00000000
ENDCHAR
STARTCHAR 2580
ENCODING 9600
SWIDTH 3840 0
DWIDTH 32 0
BBX 32 32 0 0
BITMAP
FFFFFFFF
FFFFFFFF
FFFFFFFF
FFFFFFFF
FFFFFFFF
FFFFFFFF
FFFFFFFF
FFFFFFFF
FFFFFFFF
FFFFFFFF
FFFFFFFF
FFFFFFFF
FFFFFFFF
FFFFFFFF
FFFFFFFF
FFFFFFFF
00000000
00000000
00000000
00000000
00000000
00000000
00000000
00000000
00000000
00000000
00000000
00000000
00000000
00000000
00000000
00000000
ENDCHAR
STARTCHAR 2582
ENCODING 9602
SWIDTH 3840 0
DWIDTH 32 0
BBX 32 32 0 0
BITMAP
00000000
00000000
00000000
00000000
00000000
00000000
00000000
00000000
00000000
00000000
00000000
00000000
00000000
00000000
00000000
00000000
00000000
00000000
00000000
00000000
00000000
00000000
00000000
00000000
FFFFFFFF
FFFFFFFF
FFFFFFFF
FFFFFFFF
FFFFFFFF
FFFFFFFF
FFFFFFFF
FFFFFFFF
ENDCHAR
STARTCHAR 2583
ENCODING 9603
SWIDTH 3840 0
DWIDTH 32 0
BBX 32 32 0 0
BITMAP
00000000
00000000
00000000
00000000
00000000
00000000
00000000
00000000
00000000
00000000
00000000
00000000
00000000
00000000
00000000
00000000
00000000
00000000
00000000
00000000
FFFFFFFF
FFFFFFFF
FFFFFFFF
FFFFFFFF
FFFFFFFF
FFFFFFFF
FFFFFFFF
FFFFFFFF
FFFFFFFF
FFFFFFFF
FFFFFFFF
FFFFFFFF
ENDCHAR
STARTCHAR 2584
ENCODING 9604
SWIDTH 3840 0
DWIDTH 32 0
BBX 32 32 0 0
BITMAP
00000000
00000000
00000000
00000000
00000000
00000000
00000000
00000000
00000000
00000000
00000000
00000000
00000000
00000000
00000000
00000000
FFFFFFFF
FFFFFFFF
FFFFFFFF
FFFFFFFF
FFFFFFFF
FFFFFFFF
FFFFFFFF
FFFFFFFF
FFFFFFFF
FFFFFFFF
FFFFFFFF
FFFFFFFF
FFFFFFFF
FFFFFFFF
FFFFFFFF
FFFFFFFF
ENDCHAR
STARTCHAR 258d
ENCODING 9613
SWIDTH 3840 0
DWIDTH 32 0
BBX 32 32 0 0
BITMAP
FFFF0000
FFFF0000
FFFF0000
FFFF0000
FFFF0000
FFFF0000
FFFF0000
FFFF0000
FFFF0000
FFFF0000
FFFF0000
FFFF0000
FFFF0000
FFFF0000
FFFF0000
FFFF0000
FFFF0000
FFFF0000
FFFF0000
FFFF0000
FFFF0000
FFFF0000
FFFF0000
FFFF0000
FFFF0000
FFFF0000
FFFF0000
FFFF0000
FFFF0000
FFFF0000
FFFF0000
FFFF0000
ENDCHAR
STARTCHAR 258e
ENCODING 9614
SWIDTH 3840 0
DWIDTH 32 0
BBX 32 32 0 0
BITMAP
FF000000
FF000000
FF000000
FF000000
FF000000
FF000000
FF000000
FF000000
FF000000
FF000000
FF000000
FF000000
FF000000
FF000000
FF000000
FF000000
FF000000
FF000000
FF000000
FF000000
FF000000
FF000000
FF000000
FF000000
FF000000
FF000000
FF000000
FF000000
FF000000
FF000000
FF000000
FF000000
ENDCHAR
STARTCHAR 258f
ENCODING 9615
SWIDTH 3840 0
DWIDTH 32 0
BBX 32 32 0 0
BITMAP
F0000000
F0000000
F0000000
F0000000
F0000000
F0000000
F0000000
F0000000
F0000000
F0000000
F0000000
F0000000
F0000000
F0000000
F0000000
F0000000
F0000000
F0000000
F0000000
F0000000
F0000000
F0000000
F0000000
F0000000
F0000000
F0000000
F0000000
F0000000
F0000000
F0000000
F0000000
F0000000
ENDCHAR
STARTCHAR 2590
ENCODING 9616
SWIDTH 3840 0
DWIDTH 32 0
BBX 32 32 0 0
BITMAP
0000FFFF
0000FFFF
0000FFFF
0000FFFF
0000FFFF
0000FFFF
0000FFFF
0000FFFF
0000FFFF
0000FFFF
0000FFFF
0000FFFF
0000FFFF
0000FFFF
0000FFFF
0000FFFF
0000FFFF
0000FFFF
0000FFFF
0000FFFF
0000FFFF
0000FFFF
0000FFFF
0000FFFF
0000FFFF
0000FFFF
0000FFFF
0000FFFF
0000FFFF
0000FFFF
0000FFFF
0000FFFF
ENDCHAR
STARTCHAR 2591
ENCODING 9617
SWIDTH 3840 0
DWIDTH 32 0
BBX 32 32 0 0
BITMAP
0F0F0F0F
0F0F0F0F
0F0F0F0F
0F0F0F0F
F0F0F0F0
F0F0F0F0
F0F0F0F0
F0F0F0F0
0F0F0F0F
0F0F0F0F
0F0F0F0F
0F0F0F0F
F0F0F0F0
F0F0F0F0
F0F0F0F0
F0F0F0F0
0F0F0F0F
0F0F0F0F
0F0F0F0F
0F0F0F0F
F0F0F0F0
F0F0F0F0
F0F0F0F0
F0F0F0F0
0F0F0F0F
0F0F0F0F
0F0F0F0F
0F0F0F0F
F0F0F0F0
F0F0F0F0
F0F0F0F0
F0F0F0F0
ENDCHAR
STARTCHAR 2592
ENCODING 9618
SWIDTH 3840 0
DWIDTH 32 0
BBX 32 32 0 0
BITMAP
F0F0F0F0
F0F0F0F0
F0F0F0F0
F0F0F0F0
0F0F0F0F
0F0F0F0F
0F0F0F0F
0F0F0F0F
F0F0F0F0
F0F0F0F0
F0F0F0F0
F0F0F0F0
0F0F0F0F
0F0F0F0F
0F0F0F0F
0F0F0F0F
F0F0F0F0
F0F0F0F0
F0F0F0F0
F0F0F0F0
0F0F0F0F
0F0F0F0F
0F0F0F0F
0F0F0F0F
F0F0F0F0
F0F0F0F0
F0F0F0F0
F0F0F0F0
0F0F0F0F
0F0F0F0F
0F0F0F0F
0F0F0F0F
ENDCHAR
STARTCHAR 2593
ENCODING 9619
SWIDTH 3840 0
DWIDTH 32 0
BBX 32 32 0 0
BITMAP
F0F00000
F0F00000
F0F00000
F0F00000
0F0F0000
0F0F0000
0F0F0000
0F0F0000
F0F00000
F0F00000
F0F00000
F0F00000
0F0F0000
0F0F0000
0F0F0000
0F0F0000
F0F00000
F0F00000
F0F00000
F0F00000
0F0F0000
0F0F0000
0F0F0000
0F0F0000
F0F00000
F0F00000
F0F00000
F0F00000
0F0F0000
0F0F0000
0F0F0000
0F0F0000
ENDCHAR
STARTCHAR 2595
ENCODING 9621
SWIDTH 3840 0
DWIDTH 32 0
BBX 32 32 0 0
BITMAP
0000000F
0000000F
0000000F
0000000F
0000000F
0000000F
0000000F
0000000F
0000000F
0000000F
0000000F
0000000F
0000000F
0000000F
0000000F
0000000F
0000000F
0000000F
0000000F
0000000F
0000000F
0000000F
0000000F
0000000F
0000000F
0000000F
0000000F
0000000F
0000000F
0000000F
0000000F
0000000F
ENDCHAR
STARTCHAR 259a
ENCODING 9626
SWIDTH 3840 0
DWIDTH 32 0
BBX 32 32 0 0
BITMAP
FFFF0000
FFFF0000
FFFF0000
FFFF0000
FFFF0000
FFFF0000
FFFF0000
FFFF0000
FFFF0000
FFFF0000
FFFF0000
FFFF0000
FFFF0000
FFFF0000
FFFF0000
FFFF0000
0000FFFF
0000FFFF
0000FFFF
0000FFFF
0000FFFF
0000FFFF
0000FFFF
0000FFFF
0000FFFF
0000FFFF
0000FFFF
0000FFFF
0000FFFF
0000FFFF
0000FFFF
0000FFFF
ENDCHAR
STARTCHAR 259e
ENCODING 9630
SWIDTH 3840 0
DWIDTH 32 0
BBX 32 32 0 0
BITMAP
0000FFFF
0000FFFF
0000FFFF
0000FFFF
0000FFFF
0000FFFF
0000FFFF
0000FFFF
0000FFFF
0000FFFF
0000FFFF
0000FFFF
0000FFFF
0000FFFF
0000FFFF
0000FFFF
FFFF0000
FFFF0000
FFFF0000
FFFF0000
FFFF0000
FFFF0000
FFFF0000
FFFF0000
FFFF0000
FFFF0000
FFFF0000
FFFF0000
FFFF0000
FFFF0000
FFFF0000
FFFF0000
ENDCHAR
STARTCHAR 25a0
ENCODING 9632
SWIDTH 3840 0
DWIDTH 32 0
BBX 32 32 0 0
BITMAP
FFFFFFFF
FFFFFFFF
FFFFFFFF
FFFFFFFF
FFFFFFFF
FFFFFFFF
FFFFFFFF
FFFFFFFF
FFFFFFFF
FFFFFFFF
FFFFFFFF
FFFFFFFF
FFFFFFFF
FFFFFFFF
FFFFFFFF
FFFFFFFF
FFFFFFFF
FFFFFFFF
FFFFFFFF
FFFFFFFF
FFFFFFFF
FFFFFFFF
FFFFFFFF
FFFFFFFF
FFFFFFFF
FFFFFFFF
FFFFFFFF
FFFFFFFF
FFFFFFFF
FFFFFFFF
FFFFFFFF
FFFFFFFF
ENDCHAR
STARTCHAR 25bd
ENCODING 9661
SWIDTH 3840 0
DWIDTH 32 0
BBX 32 32 0 0
BITMAP
FFFFFFFF
FFFFFFFF
FFFFFFFF
FFFFFFFF
FFFFFFFF
FFFFFFFF
FFFFFFFF
FFFFFFFF
00000000
00000000
00000000
00000000
00000000
00000000
00000000
00000000
00000000
00000000
00000000
00000000
00000000
00000000
00000000
00000000
00000000
00000000
00000000
00000000
00000000
00000000
00000000
00000000
ENDCHAR
STARTCHAR 25c0
ENCODING 9664
SWIDTH 3840 0
DWIDTH 32 0
BBX 32 32 0 0
BITMAP
00000FFF
00000FFF
00000FFF
00000FFF
00000FFF
00000FFF
00000FFF
00000FFF
00000FFF
00000FFF
00000FFF
00000FFF
00000FFF
00000FFF
00000FFF
00000FFF
00000FFF
00000FFF
00000FFF
00000FFF
00000FFF
00000FFF
00000FFF
00000FFF
00000FFF
00000FFF
00000FFF
00000FFF
00000FFF
00000FFF
00000FFF
00000FFF
ENDCHAR
STARTCHAR 25c1
ENCODING 9665
SWIDTH 3840 0
DWIDTH 32 0
BBX 32 32 0 0
BITMAP
000000FF
000000FF
000000FF
000000FF
000000FF
000000FF
000000FF
000000FF
000000FF
000000FF
000000FF
000000FF
000000FF
000000FF
000000FF
000000FF
000000FF
000000FF
000000FF
000000FF
000000FF
000000FF
000000FF
000000FF
000000FF
000000FF
000000FF
000000FF
000000FF
000000FF
000000FF
000000FF
ENDCHAR
STARTCHAR 25cb
ENCODING 9675
SWIDTH 3840 0
DWIDTH 32 0
BBX 32 32 0 0
BITMAP
00000000
00000000
00000000
00000000
00FFFF00
00FFFF00
00FFFF00
00FFFF00
0F0000F0
0F0000F0
0F0000F0
0F0000F0
0F0000F0
0F0000F0
0F0000F0
0F0000F0
0F0000F0
0F0000F0
0F0000F0
0F0000F0
0F0000F0
0F0000F0
0F0000F0
0F0000F0
00FFFF00
00FFFF00
00FFFF00
00FFFF00
00000000
00000000
00000000
00000000
ENDCHAR
STARTCHAR 25ce
ENCODING 9678
SWIDTH 3840 0
DWIDTH 32 0
BBX 32 32 0 0
BITMAP
FFFFFFFF
FFFFFFFF
FFFFFFFF
FFFFFFFF
FF0000FF
FF0000FF
FF0000FF
FF0000FF
F000000F
F000000F
F000000F
F000000F
F000000F
F000000F
F000000F
F000000F
F000000F
F000000F
F000000F
F000000F
F000000F
F000000F
F000000F
F000000F
FF0000FF
FF0000FF
FF0000FF
FF0000FF
FFFFFFFF
FFFFFFFF
FFFFFFFF
FFFFFFFF
ENDCHAR
STARTCHAR 25cf
ENCODING 9679
SWIDTH 3840 0
DWIDTH 32 0
BBX 32 32 0 0
BITMAP
00000000
00000000
00000000
00000000
00FFFF00
00FFFF00
00FFFF00
00FFFF00
0FFFFFF0
0FFFFFF0
0FFFFFF0
0FFFFFF0
0FFFFFF0
0FFFFFF0
0FFFFFF0
0FFFFFF0
0FFFFFF0
0FFFFFF0
0FFFFFF0
0FFFFFF0
0FFFFFF0
0FFFFFF0
0FFFFFF0
0FFFFFF0
00FFFF00
00FFFF00
00FFFF00
00FFFF00
00000000
00000000
00000000
00000000
ENDCHAR
STARTCHAR 25e2
ENCODING 9698
SWIDTH 3840 0
DWIDTH 32 0
BBX 32 32 0 0
BITMAP
0000000F
0000000F
0000000F
0000000F
000000FF
000000FF
000000FF
000000FF
00000FFF
00000FFF
00000FFF
00000FFF
0000FFFF
0000FFFF
0000FFFF
0000FFFF
000FFFFF
000FFFFF
000FFFFF
000FFFFF
00FFFFFF
00FFFFFF
00FFFFFF
00FFFFFF
0FFFFFFF
0FFFFFFF
0FFFFFFF
0FFFFFFF
FFFFFFFF
FFFFFFFF
FFFFFFFF
FFFFFFFF
ENDCHAR
STARTCHAR 25e3
ENCODING 9699
SWIDTH 3840 0
DWIDTH 32 0
BBX 32 32 0 0
BITMAP
F0000000
F0000000
F0000000
F0000000
FF000000
FF000000
FF000000
FF000000
FFF00000
FFF00000
FFF00000
FFF00000
FFFF0000
FFFF0000
FFFF0000
FFFF0000
FFFFF000
FFFFF000
FFFFF000
FFFFF000
FFFFFF00
FFFFFF00
FFFFFF00
FFFFFF00
FFFFFFF0
FFFFFFF0
FFFFFFF0
FFFFFFF0
FFFFFFFF
FFFFFFFF
FFFFFFFF
FFFFFFFF
ENDCHAR
STARTCHAR 25e4
ENCODING 9700
SWIDTH 3840 0
DWIDTH 32 0
BBX 32 32 0 0
BITMAP
FFFFFFFF
FFFFFFFF
FFFFFFFF
FFFFFFFF
FFFFFFF0
FFFFFFF0
FFFFFFF0
FFFFFFF0
FFFFFF00
FFFFFF00
FFFFFF00
FFFFFF00
FFFFF000
FFFFF000
FFFFF000
FFFFF000
FFFF0000
FFFF0000
FFFF0000
FFFF0000
FFF00000
FFF00000
FFF00000
FFF00000
FF000000
FF000000
FF000000
FF000000
F0000000
F0000000
F0000000
F0000000
ENDCHAR
STARTCHAR 25e5
ENCODING 9701
SWIDTH 3840 0
DWIDTH 32 0
BBX 32 32 0 0
BITMAP
FFFFFFFF
FFFFFFFF
FFFFFFFF
FFFFFFFF
0FFFFFFF
0FFFFFFF
0FFFFFFF
0FFFFFFF
00FFFFFF
00FFFFFF
00FFFFFF
00FFFFFF
000FFFFF
000FFFFF
000FFFFF
000FFFFF
0000FFFF
0000FFFF
0000FFFF
0000FFFF
00000FFF
00000FFF
00000FFF
00000FFF
000000FF
000000FF
000000FF
000000FF
0000000F
0000000F
0000000F
0000000F
ENDCHAR
STARTCHAR 263a
ENCODING 9786
SWIDTH 3840 0
DWIDTH 32 0
BBX 32 32 0 0
BITMAP
00FFFF00
00FFFF00
00FFFF00
00FFFF00
0F0000F0
0F0000F0
0F0000F0
0F0000F0
F0F00F0F
F0F00F0F
F0F00F0F
F0F00F0F
F000000F
F000000F
F000000F
F000000F
F0F00F0F
F0F00F0F
F0F00F0F
F0F00F0F
F00FF00F
F00FF00F
F00FF00F
F00FF00F
0F0000F0
0F0000F0
0F0000F0
0F0000F0
00FFFF00
00FFFF00
00FFFF00
00FFFF00
ENDCHAR
STARTCHAR 263b
ENCODING 9787
SWIDTH 3840 0
DWIDTH 32 0
BBX 32 32 0 0
BITMAP
00FFFF00
00FFFF00
00FFFF00
00FFFF00
0FFFFFF0
0FFFFFF0
0FFFFFF0
0FFFFFF0
FF0FF0FF
FF0FF0FF
FF0FF0FF
FF0FF0FF
FF0FF0FF
FF0FF0FF
FF0FF0FF
FF0FF0FF
FFFFFFFF
FFFFFFFF
FFFFFFFF
FFFFFFFF
FF0FF0FF
FF0FF0FF
FF0FF0FF
FF0FF0FF
0FF00FF0
0FF00FF0
0FF00FF0
0FF00FF0
00FFFF00
00FFFF00
00FFFF00
00FFFF00
ENDCHAR
STARTCHAR 2660
ENCODING 9824
SWIDTH 3840 0
DWIDTH 32 0
BBX 32 32 0 0
BITMAP
000F0000
000F0000
000F0000
000F0000
00FFF000
00FFF000
00FFF000
00FFF000
0FFFFF00
0FFFFF00
0FFFFF00
0FFFFF00
FFFFFFF0
FFFFFFF0
FFFFFFF0
FFFFFFF0
FFFFFFF0
FFFFFFF0
FFFFFFF0
FFFFFFF0
00FFF000
00FFF000
00FFF000
00FFF000
0FFFFF00
0FFFFF00
0FFFFF00
0FFFFF00
00000000
00000000
00000000
00000000
ENDCHAR
STARTCHAR 2663
ENCODING 9827
SWIDTH 3840 0
DWIDTH 32 0
BBX 32 32 0 0
BITMAP
00FFF000
00FFF000
00FFF000
00FFF000
00FFF000
00FFF000
00FFF000
00FFF000
FFFFFFF0
FFFFFFF0
FFFFFFF0
FFFFFFF0
FFFFFFF0
FFFFFFF0
FFFFFFF0
FFFFFFF0
FF0F0FF0
FF0F0FF0
FF0F0FF0
FF0F0FF0
000F0000
000F0000
000F0000
000F0000
0FFFFF00
0FFFFF00
0FFFFF00
0FFFFF00
00000000
00000000
00000000
00000000
ENDCHAR
STARTCHAR 2665
ENCODING 9829
SWIDTH 3840 0
DWIDTH 32 0
BBX 32 32 0 0
BITMAP
0FF0FF00
0FF0FF00
0FF0FF00
0FF0FF00
FFFFFFF0
FFFFFFF0
FFFFFFF0
FFFFFFF0
FFFFFFF0
FFFFFFF0
FFFFFFF0
FFFFFFF0
FFFFFFF0
FFFFFFF0
FFFFFFF0
FFFFFFF0
0FFFFF00
0FFFFF00
0FFFFF00
0FFFFF00
00FFF000
00FFF000
00FFF000
00FFF000
000F0000
000F0000
000F0000
000F0000
00000000
00000000
00000000
00000000
ENDCHAR
STARTCHAR 2666
ENCODING 9830
SWIDTH 3840 0
DWIDTH 32 0
BBX 32 32 0 0
BITMAP
000F0000
000F0000
000F0000
000F0000
00FFF000
00FFF000
00FFF000
00FFF000
0FFFFF00
0FFFFF00
0FFFFF00
0FFFFF00
FFFFFFF0
FFFFFFF0
FFFFFFF0
FFFFFFF0
0FFFFF00
0FFFFF00
0FFFFF00
0FFFFF00
00FFF000
00FFF000
00FFF000
00FFF000
000F0000
000F0000
000F0000
000F0000
00000000
00000000
00000000
00000000
ENDCHAR
STARTCHAR 3001
ENCODING 12289
SWIDTH 3840 0
DWIDTH 32 0
BBX 32 32 0 0
BITMAP
00000000
00000000
00000000
00000000
00000000
00000000
00000000
00000000
00000000
00000000
00000000
00000000
00000000
00000000
00000000
00000000
0F000000
0F000000
0F000000
0F000000
00F00000
00F00000
00F00000
00F00000
000F0000
000F0000
000F0000
000F0000
00000000
00000000
00000000
00000000
ENDCHAR
STARTCHAR 3002
ENCODING 12290
SWIDTH 3840 0
DWIDTH 32 0
BBX 32 32 0 0
BITMAP
00000000
00000000
00000000
00000000
00000000
00000000
00000000
00000000
00000000
00000000
00000000
00000000
00FF0000
00FF0000
00FF0000
00FF0000
0F00F000
0F00F000
0F00F000
0F00F000
0F00F000
0F00F000
0F00F000
0F00F000
00FF0000
00FF0000
00FF0000
00FF0000
00000000
00000000
00000000
00000000
ENDCHAR
STARTCHAR 300c
ENCODING 12300
SWIDTH 3840 0
DWIDTH 32 0
BBX 32 32 0 0
BITMAP
000FFFF0
000FFFF0
000FFFF0
000FFFF0
000F0000
000F0000
000F0000
000F0000
000F0000
000F0000
000F0000
000F0000
000F0000
000F0000
000F0000
000F0000
00000000
00000000
00000000
00000000
00000000
00000000
00000000
00000000
00000000
00000000
00000000
00000000
00000000
00000000
00000000
00000000
ENDCHAR
STARTCHAR 300d
ENCODING 12301
SWIDTH 3840 0
DWIDTH 32 0
BBX 32 32 0 0
BITMAP
00000000
00000000
00000000
00000000
00000000
00000000
00000000
00000000
00000000
00000000
00000000
00000000
0000F000
0000F000
0000F000
0000F000
0000F000
0000F000
0000F000
0000F000
0000F000
0000F000
0000F000
0000F000
0FFFF000
0FFFF000
0FFFF000
0FFFF000
00000000
00000000
00000000
00000000
ENDCHAR
STARTCHAR 300e
ENCODING 12302
SWIDTH 3840 0
DWIDTH 32 0
BBX 32 32 0 0
BITMAP
00FFFFF0
00FFFFF0
00FFFFF0
00FFFFF0
00F000F0
00F000F0
00F000F0
00F000F0
00F0FFF0
00F0FFF0
00F0FFF0
00F0FFF0
00F0F000
00F0F000
00F0F000
00F0F000
00FFF000
00FFF000
00FFF000
00FFF000
00000000
00000000
00000000
00000000
00000000
00000000
00000000
00000000
00000000
00000000
00000000
00000000
ENDCHAR
STARTCHAR 300f
ENCODING 12303
SWIDTH 3840 0
DWIDTH 32 0
BBX 32 32 0 0
BITMAP
00000000
00000000
00000000
00000000
00000000
00000000
00000000
00000000
00FFF000
00FFF000
00FFF000
00FFF000
00F0F000
00F0F000
00F0F000
00F0F000
FFF0F000
FFF0F000
FFF0F000
FFF0F000
F000F000
F000F000
F000F000
F000F000
FFFFF000
FFFFF000
FFFFF000
FFFFF000
00000000
00000000
00000000
00000000
ENDCHAR
STARTCHAR 301d
ENCODING 12317
SWIDTH 3840 0
DWIDTH 32 0
BBX 32 32 0 0
BITMAP
00F00000
00F00000
00F00000
00F00000
F00F0000
F00F0000
F00F0000
F00F0000
0F00F000
0F00F000
0F00F000
0F00F000
00F00000
00F00000
00F00000
00F00000
00000000
00000000
00000000
00000000
00000000
00000000
00000000
00000000
00000000
00000000
00000000
00000000
00000000
00000000
00000000
00000000
ENDCHAR
STARTCHAR 3041
ENCODING 12353
SWIDTH 3840 0
DWIDTH 32 0
BBX 32 32 0 0
BITMAP
00000000
00000000
00000000
00000000
000F0000
000F0000
000F0000
000F0000
FFFFFFF0
FFFFFFF0
FFFFFFF0
FFFFFFF0
000F0F00
000F0F00
000F0F00
000F0F00
0FFFFF00
0FFFFF00
0FFFFF00
0FFFFF00
F00FF0F0
F00FF0F0
F00FF0F0
F00FF0F0
0FFF0F00
0FFF0F00
0FFF0F00
0FFF0F00
00000000
00000000
00000000
00000000
ENDCHAR
STARTCHAR 3042
ENCODING 12354
SWIDTH 3840 0
DWIDTH 32 0
BBX 32 32 0 0
BITMAP
00F00000
00F00000
00F00000
00F00000
FFFFFFF0
FFFFFFF0
FFFFFFF0
FFFFFFF0
00F00000
00F00000
00F00000
00F00000
0FFFFF00
0FFFFF00
0FFFFF00
0FFFFF00
F0F0F0F0
F0F0F0F0
F0F0F0F0
F0F0F0F0
F00F00F0
F00F00F0
F00F00F0
F00F00F0
0FF00F00
0FF00F00
0FF00F00
0FF00F00
00000000
00000000
00000000
00000000
ENDCHAR
STARTCHAR 3043
ENCODING 12355
SWIDTH 3840 0
DWIDTH 32 0
BBX 32 32 0 0
BITMAP
00000000
00000000
00000000
00000000
00000000
00000000
00000000
00000000
F0000F00
F0000F00
F0000F00
F0000F00
F00000F0
F00000F0
F00000F0
F00000F0
F00000F0
F00000F0
F00000F0
F00000F0
F00000F0
F00000F0
F00000F0
F00000F0
0F000000
0F000000
0F000000
0F000000
00000000
00000000
00000000
00000000
ENDCHAR
STARTCHAR 3044
ENCODING 12356
SWIDTH 3840 0
DWIDTH 32 0
BBX 32 32 0 0
BITMAP
F0000F00
F0000F00
F0000F00
F0000F00
F00000F0
F00000F0
F00000F0
F00000F0
F00000F0
F00000F0
F00000F0
F00000F0
F00000F0
F00000F0
F00000F0
F00000F0
F00000F0
F00000F0
F00000F0
F00000F0
0F0000F0
0F0000F0
0F0000F0
0F0000F0
00FF0000
00FF0000
00FF0000
00FF0000
00000000
00000000
00000000
00000000
ENDCHAR
STARTCHAR 3045
ENCODING 12357
SWIDTH 3840 0
DWIDTH 32 0
BBX 32 32 0 0
BITMAP
00000000
00000000
00000000
00000000
0FFF0000
0FFF0000
0FFF0000
0FFF0000
00000000
00000000
00000000
00000000
FFFFF000
FFFFF000
FFFFF000
FFFFF000
00000F00
00000F00
00000F00
00000F00
00000F00
00000F00
00000F00
00000F00
000FF000
000FF000
000FF000
000FF000
00000000
00000000
00000000
00000000
ENDCHAR
STARTCHAR 3046
ENCODING 12358
SWIDTH 3840 0
DWIDTH 32 0
BBX 32 32 0 0
BITMAP
0FFFFF00
0FFFFF00
0FFFFF00
0FFFFF00
00000000
00000000
00000000
00000000
FFFFFF00
FFFFFF00
FFFFFF00
FFFFFF00
000000F0
000000F0
000000F0
000000F0
000000F0
000000F0
000000F0
000000F0
00000F00
00000F00
00000F00
00000F00
00FFF000
00FFF000
00FFF000
00FFF000
00000000
00000000
00000000
00000000
ENDCHAR
STARTCHAR 3047
ENCODING 12359
SWIDTH 3840 0
DWIDTH 32 0
BBX 32 32 0 0
BITMAP
00000000
00000000
00000000
00000000
00FFF000
00FFF000
00FFF000
00FFF000
00000000
00000000
00000000
00000000
FFFFFF00
FFFFFF00
FFFFFF00
FFFFFF00
000FF000
000FF000
000FF000
000FF000
0FF0F000
0FF0F000
0FF0F000
0FF0F000
F0000F00
F0000F00
F0000F00
F0000F00
00000000
00000000
00000000
00000000
ENDCHAR
STARTCHAR 3048
ENCODING 12360
SWIDTH 3840 0
DWIDTH 32 0
BBX 32 32 0 0
BITMAP
0FFFFF00
0FFFFF00
0FFFFF00
0FFFFF00
00000000
00000000
00000000
00000000
FFFFFFF0
FFFFFFF0
FFFFFFF0
FFFFFFF0
00000F00
00000F00
00000F00
00000F00
0000F000
0000F000
0000F000
0000F000
00FF0F00
00FF0F00
00FF0F00
00FF0F00
FF0000F0
FF0000F0
FF0000F0
FF0000F0
00000000
00000000
00000000
00000000
ENDCHAR
STARTCHAR 3049
ENCODING 12361
SWIDTH 3840 0
DWIDTH 32 0
BBX 32 32 0 0
BITMAP
00000000
00000000
00000000
00000000
00F00000
00F00000
00F00000
00F00000
FFFFF0F0
FFFFF0F0
FFFFF0F0
FFFFF0F0
00F00000
00F00000
00F00000
00F00000
0FFFFF00
0FFFFF00
0FFFFF00
0FFFFF00
F0F000F0
F0F000F0
F0F000F0
F0F000F0
0FF0FF00
0FF0FF00
0FF0FF00
0FF0FF00
00000000
00000000
00000000
00000000
ENDCHAR
STARTCHAR 304a
ENCODING 12362
SWIDTH 3840 0
DWIDTH 32 0
BBX 32 32 0 0
BITMAP
00F00000
00F00000
00F00000
00F00000
FFFFFF00
FFFFFF00
FFFFFF00
FFFFFF00
00F0000F
00F0000F
00F0000F
00F0000F
0FFFFF00
0FFFFF00
0FFFFF00
0FFFFF00
F0F000F0
F0F000F0
F0F000F0
F0F000F0
F0F000F0
F0F000F0
F0F000F0
F0F000F0
0FF0FF00
0FF0FF00
0FF0FF00
0FF0FF00
00000000
00000000
00000000
00000000
ENDCHAR
STARTCHAR 304b
ENCODING 12363
SWIDTH 3840 0
DWIDTH 32 0
BBX 32 32 0 0
BITMAP
00F000F0
00F000F0
00F000F0
00F000F0
FFFFF00F
FFFFF00F
FFFFF00F
FFFFF00F
00F00F0F
00F00F0F
00F00F0F
00F00F0F
00F00F00
00F00F00
00F00F00
00F00F00
00F00F00
00F00F00
00F00F00
00F00F00
00F00F00
00F00F00
00F00F00
00F00F00
0F00F000
0F00F000
0F00F000
0F00F000
00000000
00000000
00000000
00000000
ENDCHAR
STARTCHAR 304d
ENCODING 12365
SWIDTH 3840 0
DWIDTH 32 0
BBX 32 32 0 0
BITMAP
0000F000
0000F000
0000F000
0000F000
FFFFFFF0
FFFFFFF0
FFFFFFF0
FFFFFFF0
0000F000
0000F000
0000F000
0000F000
FFFFFFF0
FFFFFFF0
FFFFFFF0
FFFFFFF0
0000F000
0000F000
0000F000
0000F000
0FFFF000
0FFFF000
0FFFF000
0FFFF000
F0000000
F0000000
F0000000
F0000000
0FFFFF00
0FFFFF00
0FFFFF00
0FFFFF00
ENDCHAR
STARTCHAR 304f
ENCODING 12367
SWIDTH 3840 0
DWIDTH 32 0
BBX 32 32 0 0
BITMAP
00000FF0
00000FF0
00000FF0
00000FF0
000FF000
000FF000
000FF000
000FF000
00F00000
00F00000
00F00000
00F00000
FF000000
FF000000
FF000000
FF000000
00F00000
00F00000
00F00000
00F00000
000FF000
000FF000
000FF000
000FF000
00000FF0
00000FF0
00000FF0
00000FF0
00000000
00000000
00000000
00000000
ENDCHAR
STARTCHAR 3051
ENCODING 12369
SWIDTH 3840 0
DWIDTH 32 0
BBX 32 32 0 0
BITMAP
F0000F00
F0000F00
F0000F00
F0000F00
F0FFFFF0
F0FFFFF0
F0FFFFF0
F0FFFFF0
F0000F00
F0000F00
F0000F00
F0000F00
F0000F00
F0000F00
F0000F00
F0000F00
F0000F00
F0000F00
F0000F00
F0000F00
F0000F00
F0000F00
F0000F00
F0000F00
0F0FF000
0F0FF000
0F0FF000
0F0FF000
00000000
00000000
00000000
00000000
ENDCHAR
STARTCHAR 3053
ENCODING 12371
SWIDTH 3840 0
DWIDTH 32 0
BBX 32 32 0 0
BITMAP
0FFFFF00
0FFFFF00
0FFFFF00
0FFFFF00
000000F0
000000F0
000000F0
000000F0
000000F0
000000F0
000000F0
000000F0
00000000
00000000
00000000
00000000
F0000000
F0000000
F0000000
F0000000
F0000000
F0000000
F0000000
F0000000
0FFFFFF0
0FFFFFF0
0FFFFFF0
0FFFFFF0
00000000
00000000
00000000
00000000
ENDCHAR
STARTCHAR 3055
ENCODING 12373
SWIDTH 3840 0
DWIDTH 32 0
BBX 32 32 0 0
BITMAP
00000F00
00000F00
00000F00
00000F00
FFFFFFF0
FFFFFFF0
FFFFFFF0
FFFFFFF0
00000F00
00000F00
00000F00
00000F00
0FFFFF00
0FFFFF00
0FFFFF00
0FFFFF00
F0000000
F0000000
F0000000
F0000000
F0000000
F0000000
F0000000
F0000000
0FFFFFF0
0FFFFFF0
0FFFFFF0
0FFFFFF0
00000000
00000000
00000000
00000000
ENDCHAR
STARTCHAR 3057
ENCODING 12375
SWIDTH 3840 0
DWIDTH 32 0
BBX 32 32 0 0
BITMAP
F0000000
F0000000
F0000000
F0000000
F0000000
F0000000
F0000000
F0000000
F0000000
F0000000
F0000000
F0000000
F00000F0
F00000F0
F00000F0
F00000F0
F00000F0
F00000F0
F00000F0
F00000F0
0F000F00
0F000F00
0F000F00
0F000F00
00FFF000
00FFF000
00FFF000
00FFF000
00000000
00000000
00000000
00000000
ENDCHAR
STARTCHAR 3059
ENCODING 12377
SWIDTH 3840 0
DWIDTH 32 0
BBX 32 32 0 0
BITMAP
0000F000
0000F000
0000F000
0000F000
FFFFFFF0
FFFFFFF0
FFFFFFF0
FFFFFFF0
0000F000
0000F000
0000F000
0000F000
000FF000
000FF000
000FF000
000FF000
00F00F00
00F00F00
00F00F00
00F00F00
000FF000
000FF000
000FF000
000FF000
0000F000
0000F000
0000F000
0000F000
0FFF0000
0FFF0000
0FFF0000
0FFF0000
ENDCHAR
STARTCHAR 305b
ENCODING 12379
SWIDTH 3840 0
DWIDTH 32 0
BBX 32 32 0 0
BITMAP
0F000F00
0F000F00
0F000F00
0F000F00
FFFFFFF0
FFFFFFF0
FFFFFFF0
FFFFFFF0
0F000F00
0F000F00
0F000F00
0F000F00
0F000F00
0F000F00
0F000F00
0F000F00
0F00F000
0F00F000
0F00F000
0F00F000
0F000000
0F000000
0F000000
0F000000
00FFFFF0
00FFFFF0
00FFFFF0
00FFFFF0
00000000
00000000
00000000
00000000
ENDCHAR
STARTCHAR 305d
ENCODING 12381
SWIDTH 3840 0
DWIDTH 32 0
BBX 32 32 0 0
BITMAP
FFFFFF00
FFFFFF00
FFFFFF00
FFFFFF00
000F0000
000F0000
000F0000
000F0000
00F00000
00F00000
00F00000
00F00000
FFFFFFF0
FFFFFFF0
FFFFFFF0
FFFFFFF0
000F0000
000F0000
000F0000
000F0000
00F00000
00F00000
00F00000
00F00000
000FFFF0
000FFFF0
000FFFF0
000FFFF0
00000000
00000000
00000000
00000000
ENDCHAR
STARTCHAR 305f
ENCODING 12383
SWIDTH 3840 0
DWIDTH 32 0
BBX 32 32 0 0
BITMAP
00F00000
00F00000
00F00000
00F00000
FFFFFFF0
FFFFFFF0
FFFFFFF0
FFFFFFF0
0F000000
0F000000
0F000000
0F000000
0F0FFFF0
0F0FFFF0
0F0FFFF0
0F0FFFF0
F0000000
F0000000
F0000000
F0000000
F0F00000
F0F00000
F0F00000
F0F00000
F00FFFF0
F00FFFF0
F00FFFF0
F00FFFF0
00000000
00000000
00000000
00000000
ENDCHAR
STARTCHAR 3061
ENCODING 12385
SWIDTH 3840 0
DWIDTH 32 0
BBX 32 32 0 0
BITMAP
000F0000
000F0000
000F0000
000F0000
FFFFFFF0
FFFFFFF0
FFFFFFF0
FFFFFFF0
0F000000
0F000000
0F000000
0F000000
FFFFFF00
FFFFFF00
FFFFFF00
FFFFFF00
000000F0
000000F0
000000F0
000000F0
000000F0
000000F0
000000F0
000000F0
FFFFFF00
FFFFFF00
FFFFFF00
FFFFFF00
00000000
00000000
00000000
00000000
ENDCHAR
STARTCHAR 3063
ENCODING 12387
SWIDTH 3840 0
DWIDTH 32 0
BBX 32 32 0 0
BITMAP
00000000
00000000
00000000
00000000
00000000
00000000
00000000
00000000
00000000
00000000
00000000
00000000
FFFFFF00
FFFFFF00
FFFFFF00
FFFFFF00
000000F0
000000F0
000000F0
000000F0
000000F0
000000F0
000000F0
000000F0
00FFFF00
00FFFF00
00FFFF00
00FFFF00
00000000
00000000
00000000
00000000
ENDCHAR
STARTCHAR 3064
ENCODING 12388
SWIDTH 3840 0
DWIDTH 32 0
BBX 32 32 0 0
BITMAP
00000000
00000000
00000000
00000000
FFFFFF00
FFFFFF00
FFFFFF00
FFFFFF00
000000F0
000000F0
000000F0
000000F0
000000F0
000000F0
000000F0
000000F0
000000F0
000000F0
000000F0
000000F0
00000F00
00000F00
00000F00
00000F00
0FFFF000
0FFFF000
0FFFF000
0FFFF000
00000000
00000000
00000000
00000000
ENDCHAR
STARTCHAR 3066
ENCODING 12390
SWIDTH 3840 0
DWIDTH 32 0
BBX 32 32 0 0
BITMAP
00000000
00000000
00000000
00000000
FFFFFFF0
FFFFFFF0
FFFFFFF0
FFFFFFF0
0000F000
0000F000
0000F000
0000F000
000F0000
000F0000
000F0000
000F0000
00F00000
00F00000
00F00000
00F00000
000F0000
000F0000
000F0000
000F0000
0000FFF0
0000FFF0
0000FFF0
0000FFF0
00000000
00000000
00000000
00000000
ENDCHAR
STARTCHAR 3068
ENCODING 12392
SWIDTH 3840 0
DWIDTH 32 0
BBX 32 32 0 0
BITMAP
00F00000
00F00000
00F00000
00F00000
00F00000
00F00000
00F00000
00F00000
0FFFFFF0
0FFFFFF0
0FFFFFF0
0FFFFFF0
F0000000
F0000000
F0000000
F0000000
F0000000
F0000000
F0000000
F0000000
F0000000
F0000000
F0000000
F0000000
0FFFFFF0
0FFFFFF0
0FFFFFF0
0FFFFFF0
00000000
00000000
00000000
00000000
ENDCHAR
STARTCHAR 306a
ENCODING 12394
SWIDTH 3840 0
DWIDTH 32 0
BBX 32 32 0 0
BITMAP
00F00000
00F00000
00F00000
00F00000
FFFFF0F0
FFFFF0F0
FFFFF0F0
FFFFF0F0
0F000000
0F000000
0F000000
0F000000
0F000F00
0F000F00
0F000F00
0F000F00
F000FF00
F000FF00
F000FF00
F000FF00
F00F00F0
F00F00F0
F00F00F0
F00F00F0
F000FF00
F000FF00
F000FF00
F000FF00
00000000
00000000
00000000
00000000
ENDCHAR
STARTCHAR 306b
ENCODING 12395
SWIDTH 3840 0
DWIDTH 32 0
BBX 32 32 0 0
BITMAP
0F0FFFF0
0F0FFFF0
0F0FFFF0
0F0FFFF0
F0000000
F0000000
F0000000
F0000000
F0000000
F0000000
F0000000
F0000000
F0000000
F0000000
F0000000
F0000000
F0000000
F0000000
F0000000
F0000000
F0F00000
F0F00000
F0F00000
F0F00000
0F0FFFF0
0F0FFFF0
0F0FFFF0
0F0FFFF0
00000000
00000000
00000000
00000000
ENDCHAR
STARTCHAR 306c
ENCODING 12396
SWIDTH 3840 0
DWIDTH 32 0
BBX 32 32 0 0
BITMAP
0F00F000
0F00F000
0F00F000
0F00F000
0FFFFF00
0FFFFF00
0FFFFF00
0FFFFF00
F00F00F0
F00F00F0
F00F00F0
F00F00F0
F00F00F0
F00F00F0
F00F00F0
F00F00F0
F0F00FF0
F0F00FF0
F0F00FF0
F0F00FF0
F0F0F0FF
F0F0F0FF
F0F0F0FF
F0F0F0FF
0F000F00
0F000F00
0F000F00
0F000F00
00000000
00000000
00000000
00000000
ENDCHAR
STARTCHAR 306d
ENCODING 12397
SWIDTH 3840 0
DWIDTH 32 0
BBX 32 32 0 0
BITMAP
00F00000
00F00000
00F00000
00F00000
FFF00000
FFF00000
FFF00000
FFF00000
00F0FF00
00F0FF00
00F0FF00
00F0FF00
00FF00F0
00FF00F0
00FF00F0
00FF00F0
0FF00FF0
0FF00FF0
0FF00FF0
0FF00FF0
F0F0F0FF
F0F0F0FF
F0F0F0FF
F0F0F0FF
00F00F00
00F00F00
00F00F00
00F00F00
00000000
00000000
00000000
00000000
ENDCHAR
STARTCHAR 306e
ENCODING 12398
SWIDTH 3840 0
DWIDTH 32 0
BBX 32 32 0 0
BITMAP
0FFFFF00
0FFFFF00
0FFFFF00
0FFFFF00
F00F00F0
F00F00F0
F00F00F0
F00F00F0
F00F00F0
F00F00F0
F00F00F0
F00F00F0
F00F00F0
F00F00F0
F00F00F0
F00F00F0
F00F00F0
F00F00F0
F00F00F0
F00F00F0
F00F00F0
F00F00F0
F00F00F0
F00F00F0
0FFF0F00
0FFF0F00
0FFF0F00
0FFF0F00
00000000
00000000
00000000
00000000
ENDCHAR
STARTCHAR 306f
ENCODING 12399
SWIDTH 3840 0
DWIDTH 32 0
BBX 32 32 0 0
BITMAP
F0000F00
F0000F00
F0000F00
F0000F00
F0FFFFF0
F0FFFFF0
F0FFFFF0
F0FFFFF0
F0000F00
F0000F00
F0000F00
F0000F00
F0000F00
F0000F00
F0000F00
F0000F00
F000FF00
F000FF00
F000FF00
F000FF00
F00F0FF0
F00F0FF0
F00F0FF0
F00F0FF0
0F00FF00
0F00FF00
0F00FF00
0F00FF00
00000000
00000000
00000000
00000000
ENDCHAR
STARTCHAR 3072
ENCODING 12402
SWIDTH 3840 0
DWIDTH 32 0
BBX 32 32 0 0
BITMAP
FFF00000
FFF00000
FFF00000
FFF00000
00F00F00
00F00F00
00F00F00
00F00F00
0F000FF0
0F000FF0
0F000FF0
0F000FF0
F0000F00
F0000F00
F0000F00
F0000F00
F0000F00
F0000F00
F0000F00
F0000F00
F0000F00
F0000F00
F0000F00
F0000F00
0FFFF000
0FFFF000
0FFFF000
0FFFF000
00000000
00000000
00000000
00000000
ENDCHAR
STARTCHAR 3075
ENCODING 12405
SWIDTH 3840 0
DWIDTH 32 0
BBX 32 32 0 0
BITMAP
0FFFF000
0FFFF000
0FFFF000
0FFFF000
000F0000
000F0000
000F0000
000F0000
00F00000
00F00000
00F00000
00F00000
000F0000
000F0000
000F0000
000F0000
F000F0F0
F000F0F0
F000F0F0
F000F0F0
F000F0F0
F000F0F0
F000F0F0
F000F0F0
00FF0000
00FF0000
00FF0000
00FF0000
00000000
00000000
00000000
00000000
ENDCHAR
STARTCHAR 3078
ENCODING 12408
SWIDTH 3840 0
DWIDTH 32 0
BBX 32 32 0 0
BITMAP
00F00000
00F00000
00F00000
00F00000
0F0F0000
0F0F0000
0F0F0000
0F0F0000
F000F000
F000F000
F000F000
F000F000
F0000F00
F0000F00
F0000F00
F0000F00
000000F0
000000F0
000000F0
000000F0
000000F0
000000F0
000000F0
000000F0
000000F0
000000F0
000000F0
000000F0
00000000
00000000
00000000
00000000
ENDCHAR
STARTCHAR 307b
ENCODING 12411
SWIDTH 3840 0
DWIDTH 32 0
BBX 32 32 0 0
BITMAP
F0FFFFF0
F0FFFFF0
F0FFFFF0
F0FFFFF0
F0000F00
F0000F00
F0000F00
F0000F00
F0FFFFF0
F0FFFFF0
F0FFFFF0
F0FFFFF0
F0000F00
F0000F00
F0000F00
F0000F00
F000FF00
F000FF00
F000FF00
F000FF00
F00F00F0
F00F00F0
F00F00F0
F00F00F0
0F00FF00
0F00FF00
0F00FF00
0F00FF00
00000000
00000000
00000000
00000000
ENDCHAR
STARTCHAR 307e
ENCODING 12414
SWIDTH 3840 0
DWIDTH 32 0
BBX 32 32 0 0
BITMAP
000F0000
000F0000
000F0000
000F0000
FFFFFFF0
FFFFFFF0
FFFFFFF0
FFFFFFF0
000F0000
000F0000
000F0000
000F0000
FFFFFFF0
FFFFFFF0
FFFFFFF0
FFFFFFF0
000F0000
000F0000
000F0000
000F0000
0FFF0000
0FFF0000
0FFF0000
0FFF0000
F000FFF0
F000FFF0
F000FFF0
F000FFF0
0FFF0000
0FFF0000
0FFF0000
0FFF0000
ENDCHAR
STARTCHAR 307f
ENCODING 12415
SWIDTH 3840 0
DWIDTH 32 0
BBX 32 32 0 0
BITMAP
FFFF0000
FFFF0000
FFFF0000
FFFF0000
000F00F0
000F00F0
000F00F0
000F00F0
000F00F0
000F00F0
000F00F0
000F00F0
0FFFFFFF
0FFFFFFF
0FFFFFFF
0FFFFFFF
F00F00F0
F00F00F0
F00F00F0
F00F00F0
F00F00F0
F00F00F0
F00F00F0
F00F00F0
0FF00F00
0FF00F00
0FF00F00
0FF00F00
00000000
00000000
00000000
00000000
ENDCHAR
STARTCHAR 3080
ENCODING 12416
SWIDTH 3840 0
DWIDTH 32 0
BBX 32 32 0 0
BITMAP
00F00000
00F00000
00F00000
00F00000
FFFFFFF0
FFFFFFF0
FFFFFFF0
FFFFFFF0
00F00000
00F00000
00F00000
00F00000
0FF000FF
0FF000FF
0FF000FF
0FF000FF
F00F0000
F00F0000
F00F0000
F00F0000
0FF000F0
0FF000F0
0FF000F0
0FF000F0
000FFF00
000FFF00
000FFF00
000FFF00
00000000
00000000
00000000
00000000
ENDCHAR
STARTCHAR 3081
ENCODING 12417
SWIDTH 3840 0
DWIDTH 32 0
BBX 32 32 0 0
BITMAP
0F000F00
0F000F00
0F000F00
0F000F00
0F000F00
0F000F00
0F000F00
0F000F00
0FFFFF00
0FFFFF00
0FFFFF00
0FFFFF00
F0F0F0F0
F0F0F0F0
F0F0F0F0
F0F0F0F0
F00F00F0
F00F00F0
F00F00F0
F00F00F0
F00F00F0
F00F00F0
F00F00F0
F00F00F0
0FF00F00
0FF00F00
0FF00F00
0FF00F00
00000000
00000000
00000000
00000000
ENDCHAR
STARTCHAR 3082
ENCODING 12418
SWIDTH 3840 0
DWIDTH 32 0
BBX 32 32 0 0
BITMAP
0F000000
0F000000
0F000000
0F000000
FFFFFFF0
FFFFFFF0
FFFFFFF0
FFFFFFF0
0F000000
0F000000
0F000000
0F000000
FFFFFFF0
FFFFFFF0
FFFFFFF0
FFFFFFF0
0F000000
0F000000
0F000000
0F000000
0F0000F0
0F0000F0
0F0000F0
0F0000F0
00FFFF00
00FFFF00
00FFFF00
00FFFF00
00000000
00000000
00000000
00000000
ENDCHAR
STARTCHAR 3083
ENCODING 12419
SWIDTH 3840 0
DWIDTH 32 0
BBX 32 32 0 0
BITMAP
00000000
00000000
00000000
00000000
000000F0
000000F0
000000F0
000000F0
0F0FFF00
0F0FFF00
0F0FFF00
0F0FFF00
FFF000F0
FFF000F0
FFF000F0
FFF000F0
00F000F0
00F000F0
00F000F0
00F000F0
00F00F00
00F00F00
00F00F00
00F00F00
000F0000
000F0000
000F0000
000F0000
00000000
00000000
00000000
00000000
ENDCHAR
STARTCHAR 3084
ENCODING 12420
SWIDTH 3840 0
DWIDTH 32 0
BBX 32 32 0 0
BITMAP
0F0000F0
0F0000F0
0F0000F0
0F0000F0
FFFFFF00
FFFFFF00
FFFFFF00
FFFFFF00
0F0000F0
0F0000F0
0F0000F0
0F0000F0
0F0000F0
0F0000F0
0F0000F0
0F0000F0
00F00F00
00F00F00
00F00F00
00F00F00
00F00000
00F00000
00F00000
00F00000
00F00000
00F00000
00F00000
00F00000
00000000
00000000
00000000
00000000
ENDCHAR
STARTCHAR 3085
ENCODING 12421
SWIDTH 3840 0
DWIDTH 32 0
BBX 32 32 0 0
BITMAP
00000000
00000000
00000000
00000000
00000000
00000000
00000000
00000000
F00F0000
F00F0000
F00F0000
F00F0000
F0FFFF00
F0FFFF00
F0FFFF00
F0FFFF00
FF0F00F0
FF0F00F0
FF0F00F0
FF0F00F0
F00F0F00
F00F0F00
F00F0F00
F00F0F00
00F00000
00F00000
00F00000
00F00000
00000000
00000000
00000000
00000000
ENDCHAR
STARTCHAR 3086
ENCODING 12422
SWIDTH 3840 0
DWIDTH 32 0
BBX 32 32 0 0
BITMAP
0000F000
0000F000
0000F000
0000F000
F00FFF00
F00FFF00
F00FFF00
F00FFF00
F0F0F0F0
F0F0F0F0
F0F0F0F0
F0F0F0F0
FF00F0F0
FF00F0F0
FF00F0F0
FF00F0F0
F000F0F0
F000F0F0
F000F0F0
F000F0F0
F000FF00
F000FF00
F000FF00
F000FF00
00FF0000
00FF0000
00FF0000
00FF0000
00000000
00000000
00000000
00000000
ENDCHAR
STARTCHAR 3087
ENCODING 12423
SWIDTH 3840 0
DWIDTH 32 0
BBX 32 32 0 0
BITMAP
00000000
00000000
00000000
00000000
000F0000
000F0000
000F0000
000F0000
000FFF00
000FFF00
000FFF00
000FFF00
000F0000
000F0000
000F0000
000F0000
0FFFF000
0FFFF000
0FFFF000
0FFFF000
F00F0000
F00F0000
F00F0000
F00F0000
0FF00000
0FF00000
0FF00000
0FF00000
00000000
00000000
00000000
00000000
ENDCHAR
STARTCHAR 3088
ENCODING 12424
SWIDTH 3840 0
DWIDTH 32 0
BBX 32 32 0 0
BITMAP
00F00000
00F00000
00F00000
00F00000
00FFFFF0
00FFFFF0
00FFFFF0
00FFFFF0
00F00000
00F00000
00F00000
00F00000
0FF00000
0FF00000
0FF00000
0FF00000
F00FFF00
F00FFF00
F00FFF00
F00FFF00
F00F0000
F00F0000
F00F0000
F00F0000
0FF00000
0FF00000
0FF00000
0FF00000
00000000
00000000
00000000
00000000
ENDCHAR
STARTCHAR 3089
ENCODING 12425
SWIDTH 3840 0
DWIDTH 32 0
BBX 32 32 0 0
BITMAP
00FFFFF0
00FFFFF0
00FFFFF0
00FFFFF0
F0000000
F0000000
F0000000
F0000000
F00FFF00
F00FFF00
F00FFF00
F00FFF00
FFF000F0
FFF000F0
FFF000F0
FFF000F0
F00000F0
F00000F0
F00000F0
F00000F0
000000F0
000000F0
000000F0
000000F0
00FFFF00
00FFFF00
00FFFF00
00FFFF00
00000000
00000000
00000000
00000000
ENDCHAR
STARTCHAR 308a
ENCODING 12426
SWIDTH 3840 0
DWIDTH 32 0
BBX 32 32 0 0
BITMAP
F00000F0
F00000F0
F00000F0
F00000F0
F00000F0
F00000F0
F00000F0
F00000F0
F00000F0
F00000F0
F00000F0
F00000F0
F00000F0
F00000F0
F00000F0
F00000F0
0F0000F0
0F0000F0
0F0000F0
0F0000F0
00000F00
00000F00
00000F00
00000F00
000FF000
000FF000
000FF000
000FF000
00000000
00000000
00000000
00000000
ENDCHAR
STARTCHAR 308b
ENCODING 12427
SWIDTH 3840 0
DWIDTH 32 0
BBX 32 32 0 0
BITMAP
FFFFFFF0
FFFFFFF0
FFFFFFF0
FFFFFFF0
0000F000
0000F000
0000F000
0000F000
000F0000
000F0000
000F0000
000F0000
0FFFFF00
0FFFFF00
0FFFFF00
0FFFFF00
F00000F0
F00000F0
F00000F0
F00000F0
00FFF0F0
00FFF0F0
00FFF0F0
00FFF0F0
0F000F00
0F000F00
0F000F00
0F000F00
00FFF000
00FFF000
00FFF000
00FFF000
ENDCHAR
STARTCHAR 308c
ENCODING 12428
SWIDTH 3840 0
DWIDTH 32 0
BBX 32 32 0 0
BITMAP
00F00000
00F00000
00F00000
00F00000
FFF00FF0
FFF00FF0
FFF00FF0
FFF00FF0
00F0FF00
00F0FF00
00F0FF00
00F0FF00
00FF0F00
00FF0F00
00FF0F00
00FF0F00
00F00F00
00F00F00
00F00F00
00F00F00
0FF00F00
0FF00F00
0FF00F00
0FF00F00
F0F000F0
F0F000F0
F0F000F0
F0F000F0
00000000
00000000
00000000
00000000
ENDCHAR
STARTCHAR 308d
ENCODING 12429
SWIDTH 3840 0
DWIDTH 32 0
BBX 32 32 0 0
BITMAP
FFFFFFF0
FFFFFFF0
FFFFFFF0
FFFFFFF0
0000F000
0000F000
0000F000
0000F000
000F0000
000F0000
000F0000
000F0000
0FFFFF00
0FFFFF00
0FFFFF00
0FFFFF00
F00000F0
F00000F0
F00000F0
F00000F0
000000F0
000000F0
000000F0
000000F0
0F000F00
0F000F00
0F000F00
0F000F00
00FFF000
00FFF000
00FFF000
00FFF000
ENDCHAR
STARTCHAR 308f
ENCODING 12431
SWIDTH 3840 0
DWIDTH 32 0
BBX 32 32 0 0
BITMAP
00F00000
00F00000
00F00000
00F00000
FFF0FF00
FFF0FF00
FFF0FF00
FFF0FF00
00FF00F0
00FF00F0
00FF00F0
00FF00F0
00FF00F0
00FF00F0
00FF00F0
00FF00F0
00F000F0
00F000F0
00F000F0
00F000F0
0FF000F0
0FF000F0
0FF000F0
0FF000F0
F0F0FF00
F0F0FF00
F0F0FF00
F0F0FF00
00000000
00000000
00000000
00000000
ENDCHAR
STARTCHAR 3092
ENCODING 12434
SWIDTH 3840 0
DWIDTH 32 0
BBX 32 32 0 0
BITMAP
000F0000
000F0000
000F0000
000F0000
FFFFFFF0
FFFFFFF0
FFFFFFF0
FFFFFFF0
00F00000
00F00000
00F00000
00F00000
0FFFFF00
0FFFFF00
0FFFFF00
0FFFFF00
F00F0000
F00F0000
F00F0000
F00F0000
0F000000
0F000000
0F000000
0F000000
00FFFFF0
00FFFFF0
00FFFFF0
00FFFFF0
00000000
00000000
00000000
00000000
ENDCHAR
STARTCHAR 3093
ENCODING 12435
SWIDTH 3840 0
DWIDTH 32 0
BBX 32 32 0 0
BITMAP
000F0000
000F0000
000F0000
000F0000
00F00000
00F00000
00F00000
00F00000
00FFF000
00FFF000
00FFF000
00FFF000
0F000F00
0F000F00
0F000F00
0F000F00
0F000F00
0F000F00
0F000F00
0F000F00
F000F000
F000F000
F000F000
F000F000
F000FFF0
F000FFF0
F000FFF0
F000FFF0
00000000
00000000
00000000
00000000
ENDCHAR
STARTCHAR 309b
ENCODING 12443
SWIDTH 3840 0
DWIDTH 32 0
BBX 32 32 0 0
BITMAP
00F00000
00F00000
00F00000
00F00000
F00F0000
F00F0000
F00F0000
F00F0000
0F00F000
0F00F000
0F00F000
0F00F000
00F00000
00F00000
00F00000
00F00000
00000000
00000000
00000000
00000000
00000000
00000000
00000000
00000000
00000000
00000000
00000000
00000000
00000000
00000000
00000000
00000000
ENDCHAR
STARTCHAR 309c
ENCODING 12444
SWIDTH 3840 0
DWIDTH 32 0
BBX 32 32 0 0
BITMAP
0FF00000
0FF00000
0FF00000
0FF00000
F00F0000
F00F0000
F00F0000
F00F0000
F00F0000
F00F0000
F00F0000
F00F0000
0FF00000
0FF00000
0FF00000
0FF00000
00000000
00000000
00000000
00000000
00000000
00000000
00000000
00000000
00000000
00000000
00000000
00000000
00000000
00000000
00000000
00000000
ENDCHAR
STARTCHAR 30a1
ENCODING 12449
SWIDTH 3840 0
DWIDTH 32 0
BBX 32 32 0 0
BITMAP
00000000
00000000
00000000
00000000
00000000
00000000
00000000
00000000
FFFFFFF0
FFFFFFF0
FFFFFFF0
FFFFFFF0
000000F0
000000F0
000000F0
000000F0
000F0F00
000F0F00
000F0F00
000F0F00
000F0000
000F0000
000F0000
000F0000
00F00000
00F00000
00F00000
00F00000
00000000
00000000
00000000
00000000
ENDCHAR
STARTCHAR 30a2
ENCODING 12450
SWIDTH 3840 0
DWIDTH 32 0
BBX 32 32 0 0
BITMAP
FFFFFFF0
FFFFFFF0
FFFFFFF0
FFFFFFF0
000000F0
000000F0
000000F0
000000F0
000F0F00
000F0F00
000F0F00
000F0F00
000FF000
000FF000
000FF000
000FF000
000F0000
000F0000
000F0000
000F0000
00F00000
00F00000
00F00000
00F00000
0F000000
0F000000
0F000000
0F000000
00000000
00000000
00000000
00000000
ENDCHAR
STARTCHAR 30a3
ENCODING 12451
SWIDTH 3840 0
DWIDTH 32 0
BBX 32 32 0 0
BITMAP
00000000
00000000
00000000
00000000
00000000
00000000
00000000
00000000
00000FF0
00000FF0
00000FF0
00000FF0
0000F000
0000F000
0000F000
0000F000
00FFF000
00FFF000
00FFF000
00FFF000
FF00F000
FF00F000
FF00F000
FF00F000
0000F000
0000F000
0000F000
0000F000
00000000
00000000
00000000
00000000
ENDCHAR
STARTCHAR 30a4
ENCODING 12452
SWIDTH 3840 0
DWIDTH 32 0
BBX 32 32 0 0
BITMAP
000000F0
000000F0
000000F0
000000F0
00000F00
00000F00
00000F00
00000F00
000FF000
000FF000
000FF000
000FF000
FFF0F000
FFF0F000
FFF0F000
FFF0F000
0000F000
0000F000
0000F000
0000F000
0000F000
0000F000
0000F000
0000F000
0000F000
0000F000
0000F000
0000F000
00000000
00000000
00000000
00000000
ENDCHAR
STARTCHAR 30a5
ENCODING 12453
SWIDTH 3840 0
DWIDTH 32 0
BBX 32 32 0 0
BITMAP
00000000
00000000
00000000
00000000
00000000
00000000
00000000
00000000
000F0000
000F0000
000F0000
000F0000
FFFFFFF0
FFFFFFF0
FFFFFFF0
FFFFFFF0
F00000F0
F00000F0
F00000F0
F00000F0
00000F00
00000F00
00000F00
00000F00
00FFF000
00FFF000
00FFF000
00FFF000
00000000
00000000
00000000
00000000
ENDCHAR
STARTCHAR 30a6
ENCODING 12454
SWIDTH 3840 0
DWIDTH 32 0
BBX 32 32 0 0
BITMAP
000F0000
000F0000
000F0000
000F0000
FFFFFFF0
FFFFFFF0
FFFFFFF0
FFFFFFF0
F00000F0
F00000F0
F00000F0
F00000F0
F00000F0
F00000F0
F00000F0
F00000F0
000000F0
000000F0
000000F0
000000F0
0000FF00
0000FF00
0000FF00
0000FF00
00FF0000
00FF0000
00FF0000
00FF0000
00000000
00000000
00000000
00000000
ENDCHAR
STARTCHAR 30a7
ENCODING 12455
SWIDTH 3840 0
DWIDTH 32 0
BBX 32 32 0 0
BITMAP
00000000
00000000
00000000
00000000
00000000
00000000
00000000
00000000
00000000
00000000
00000000
00000000
0FFFFF00
0FFFFF00
0FFFFF00
0FFFFF00
000F0000
000F0000
000F0000
000F0000
000F0000
000F0000
000F0000
000F0000
FFFFFFF0
FFFFFFF0
FFFFFFF0
FFFFFFF0
00000000
00000000
00000000
00000000
ENDCHAR
STARTCHAR 30a8
ENCODING 12456
SWIDTH 3840 0
DWIDTH 32 0
BBX 32 32 0 0
BITMAP
00000000
00000000
00000000
00000000
FFFFFFF0
FFFFFFF0
FFFFFFF0
FFFFFFF0
000F0000
000F0000
000F0000
000F0000
000F0000
000F0000
000F0000
000F0000
000F0000
000F0000
000F0000
000F0000
000F0000
000F0000
000F0000
000F0000
FFFFFFF0
FFFFFFF0
FFFFFFF0
FFFFFFF0
00000000
00000000
00000000
00000000
ENDCHAR
STARTCHAR 30a9
ENCODING 12457
SWIDTH 3840 0
DWIDTH 32 0
BBX 32 32 0 0
BITMAP
00000000
00000000
00000000
00000000
00000000
00000000
00000000
00000000
0000F000
0000F000
0000F000
0000F000
FFFFFFF0
FFFFFFF0
FFFFFFF0
FFFFFFF0
000FF000
000FF000
000FF000
000FF000
00F0F000
00F0F000
00F0F000
00F0F000
FF00F000
FF00F000
FF00F000
FF00F000
00000000
00000000
00000000
00000000
ENDCHAR
STARTCHAR 30aa
ENCODING 12458
SWIDTH 3840 0
DWIDTH 32 0
BBX 32 32 0 0
BITMAP
0000F000
0000F000
0000F000
0000F000
FFFFFFF0
FFFFFFF0
FFFFFFF0
FFFFFFF0
0000F000
0000F000
0000F000
0000F000
000FF000
000FF000
000FF000
000FF000
00F0F000
00F0F000
00F0F000
00F0F000
0F00F000
0F00F000
0F00F000
0F00F000
F000F000
F000F000
F000F000
F000F000
00000000
00000000
00000000
00000000
ENDCHAR
STARTCHAR 30ab
ENCODING 12459
SWIDTH 3840 0
DWIDTH 32 0
BBX 32 32 0 0
BITMAP
00F00000
00F00000
00F00000
00F00000
FFFFFFF0
FFFFFFF0
FFFFFFF0
FFFFFFF0
00F000F0
00F000F0
00F000F0
00F000F0
00F000F0
00F000F0
00F000F0
00F000F0
00F000F0
00F000F0
00F000F0
00F000F0
0F0000F0
0F0000F0
0F0000F0
0F0000F0
F0000F00
F0000F00
F0000F00
F0000F00
00000000
00000000
00000000
00000000
ENDCHAR
STARTCHAR 30ad
ENCODING 12461
SWIDTH 3840 0
DWIDTH 32 0
BBX 32 32 0 0
BITMAP
000F0000
000F0000
000F0000
000F0000
FFFFFFF0
FFFFFFF0
FFFFFFF0
FFFFFFF0
000F0000
000F0000
000F0000
000F0000
FFFFFFF0
FFFFFFF0
FFFFFFF0
FFFFFFF0
000F0000
000F0000
000F0000
000F0000
000F0000
000F0000
000F0000
000F0000
000F0000
000F0000
000F0000
000F0000
00000000
00000000
00000000
00000000
ENDCHAR
STARTCHAR 30af
ENCODING 12463
SWIDTH 3840 0
DWIDTH 32 0
BBX 32 32 0 0
BITMAP
00000000
00000000
00000000
00000000
0FFFFFF0
0FFFFFF0
0FFFFFF0
0FFFFFF0
0F0000F0
0F0000F0
0F0000F0
0F0000F0
F00000F0
F00000F0
F00000F0
F00000F0
000000F0
000000F0
000000F0
000000F0
00000F00
00000F00
00000F00
00000F00
000FF000
000FF000
000FF000
000FF000
00000000
00000000
00000000
00000000
ENDCHAR
STARTCHAR 30b1
ENCODING 12465
SWIDTH 3840 0
DWIDTH 32 0
BBX 32 32 0 0
BITMAP
0F000000
0F000000
0F000000
0F000000
0FFFFFF0
0FFFFFF0
0FFFFFF0
0FFFFFF0
0F000F00
0F000F00
0F000F00
0F000F00
F0000F00
F0000F00
F0000F00
F0000F00
00000F00
00000F00
00000F00
00000F00
0000F000
0000F000
0000F000
0000F000
00FF0000
00FF0000
00FF0000
00FF0000
00000000
00000000
00000000
00000000
ENDCHAR
STARTCHAR 30b3
ENCODING 12467
SWIDTH 3840 0
DWIDTH 32 0
BBX 32 32 0 0
BITMAP
00000000
00000000
00000000
00000000
FFFFFFF0
FFFFFFF0
FFFFFFF0
FFFFFFF0
000000F0
000000F0
000000F0
000000F0
000000F0
000000F0
000000F0
000000F0
000000F0
000000F0
000000F0
000000F0
000000F0
000000F0
000000F0
000000F0
FFFFFFF0
FFFFFFF0
FFFFFFF0
FFFFFFF0
00000000
00000000
00000000
00000000
ENDCHAR
STARTCHAR 30b5
ENCODING 12469
SWIDTH 3840 0
DWIDTH 32 0
BBX 32 32 0 0
BITMAP
0F000F00
0F000F00
0F000F00
0F000F00
FFFFFFF0
FFFFFFF0
FFFFFFF0
FFFFFFF0
0F000F00
0F000F00
0F000F00
0F000F00
0F000F00
0F000F00
0F000F00
0F000F00
00000F00
00000F00
00000F00
00000F00
0000F000
0000F000
0000F000
0000F000
00FF0000
00FF0000
00FF0000
00FF0000
00000000
00000000
00000000
00000000
ENDCHAR
STARTCHAR 30b7
ENCODING 12471
SWIDTH 3840 0
DWIDTH 32 0
BBX 32 32 0 0
BITMAP
00000000
00000000
00000000
00000000
0FFF0000
0FFF0000
0FFF0000
0FFF0000
00000000
00000000
00000000
00000000
FFF000F0
FFF000F0
FFF000F0
FFF000F0
000000F0
000000F0
000000F0
000000F0
00000F00
00000F00
00000F00
00000F00
FFFFF000
FFFFF000
FFFFF000
FFFFF000
00000000
00000000
00000000
00000000
ENDCHAR
STARTCHAR 30b9
ENCODING 12473
SWIDTH 3840 0
DWIDTH 32 0
BBX 32 32 0 0
BITMAP
00000000
00000000
00000000
00000000
FFFFFFF0
FFFFFFF0
FFFFFFF0
FFFFFFF0
00000F00
00000F00
00000F00
00000F00
0000F000
0000F000
0000F000
0000F000
000FF000
000FF000
000FF000
000FF000
00F00F00
00F00F00
00F00F00
00F00F00
FF0000F0
FF0000F0
FF0000F0
FF0000F0
00000000
00000000
00000000
00000000
ENDCHAR
STARTCHAR 30bb
ENCODING 12475
SWIDTH 3840 0
DWIDTH 32 0
BBX 32 32 0 0
BITMAP
0F000000
0F000000
0F000000
0F000000
FFFFFFF0
FFFFFFF0
FFFFFFF0
FFFFFFF0
0F0000F0
0F0000F0
0F0000F0
0F0000F0
0F000F00
0F000F00
0F000F00
0F000F00
0F00F000
0F00F000
0F00F000
0F00F000
0F000000
0F000000
0F000000
0F000000
00FFFF00
00FFFF00
00FFFF00
00FFFF00
00000000
00000000
00000000
00000000
ENDCHAR
STARTCHAR 30bd
ENCODING 12477
SWIDTH 3840 0
DWIDTH 32 0
BBX 32 32 0 0
BITMAP
00000000
00000000
00000000
00000000
F00000F0
F00000F0
F00000F0
F00000F0
0F0000F0
0F0000F0
0F0000F0
0F0000F0
00F000F0
00F000F0
00F000F0
00F000F0
00000F00
00000F00
00000F00
00000F00
0000F000
0000F000
0000F000
0000F000
0FFF0000
0FFF0000
0FFF0000
0FFF0000
00000000
00000000
00000000
00000000
ENDCHAR
STARTCHAR 30bf
ENCODING 12479
SWIDTH 3840 0
DWIDTH 32 0
BBX 32 32 0 0
BITMAP
00000000
00000000
00000000
00000000
0FFFFFF0
0FFFFFF0
0FFFFFF0
0FFFFFF0
0F0000F0
0F0000F0
0F0000F0
0F0000F0
0FFFFFF0
0FFFFFF0
0FFFFFF0
0FFFFFF0
F00000F0
F00000F0
F00000F0
F00000F0
00000F00
00000F00
00000F00
00000F00
000FF000
000FF000
000FF000
000FF000
00000000
00000000
00000000
00000000
ENDCHAR
STARTCHAR 30c1
ENCODING 12481
SWIDTH 3840 0
DWIDTH 32 0
BBX 32 32 0 0
BITMAP
00000F00
00000F00
00000F00
00000F00
0FFFF000
0FFFF000
0FFFF000
0FFFF000
0000F000
0000F000
0000F000
0000F000
FFFFFFF0
FFFFFFF0
FFFFFFF0
FFFFFFF0
0000F000
0000F000
0000F000
0000F000
000F0000
000F0000
000F0000
000F0000
0FF00000
0FF00000
0FF00000
0FF00000
00000000
00000000
00000000
00000000
ENDCHAR
STARTCHAR 30c3
ENCODING 12483
SWIDTH 3840 0
DWIDTH 32 0
BBX 32 32 0 0
BITMAP
00000000
00000000
00000000
00000000
00000000
00000000
00000000
00000000
00000000
00000000
00000000
00000000
F0F000F0
F0F000F0
F0F000F0
F0F000F0
F0F000F0
F0F000F0
F0F000F0
F0F000F0
00000F00
00000F00
00000F00
00000F00
0FFFF000
0FFFF000
0FFFF000
0FFFF000
00000000
00000000
00000000
00000000
ENDCHAR
STARTCHAR 30c4
ENCODING 12484
SWIDTH 3840 0
DWIDTH 32 0
BBX 32 32 0 0
BITMAP
00000000
00000000
00000000
00000000
F0F000F0
F0F000F0
F0F000F0
F0F000F0
F0F000F0
F0F000F0
F0F000F0
F0F000F0
F0F000F0
F0F000F0
F0F000F0
F0F000F0
000000F0
000000F0
000000F0
000000F0
00000F00
00000F00
00000F00
00000F00
0FFFF000
0FFFF000
0FFFF000
0FFFF000
00000000
00000000
00000000
00000000
ENDCHAR
STARTCHAR 30c6
ENCODING 12486
SWIDTH 3840 0
DWIDTH 32 0
BBX 32 32 0 0
BITMAP
0FFFFF00
0FFFFF00
0FFFFF00
0FFFFF00
00000000
00000000
00000000
00000000
FFFFFFF0
FFFFFFF0
FFFFFFF0
FFFFFFF0
0000F000
0000F000
0000F000
0000F000
0000F000
0000F000
0000F000
0000F000
000F0000
000F0000
000F0000
000F0000
0FF00000
0FF00000
0FF00000
0FF00000
00000000
00000000
00000000
00000000
ENDCHAR
STARTCHAR 30c8
ENCODING 12488
SWIDTH 3840 0
DWIDTH 32 0
BBX 32 32 0 0
BITMAP
00F00000
00F00000
00F00000
00F00000
00F00000
00F00000
00F00000
00F00000
00F00000
00F00000
00F00000
00F00000
00FFF000
00FFF000
00FFF000
00FFF000
00F00FF0
00F00FF0
00F00FF0
00F00FF0
00F00000
00F00000
00F00000
00F00000
00F00000
00F00000
00F00000
00F00000
00000000
00000000
00000000
00000000
ENDCHAR
STARTCHAR 30ca
ENCODING 12490
SWIDTH 3840 0
DWIDTH 32 0
BBX 32 32 0 0
BITMAP
0000F000
0000F000
0000F000
0000F000
0000F000
0000F000
0000F000
0000F000
FFFFFFF0
FFFFFFF0
FFFFFFF0
FFFFFFF0
0000F000
0000F000
0000F000
0000F000
0000F000
0000F000
0000F000
0000F000
000F0000
000F0000
000F0000
000F0000
0FF00000
0FF00000
0FF00000
0FF00000
00000000
00000000
00000000
00000000
ENDCHAR
STARTCHAR 30cb
ENCODING 12491
SWIDTH 3840 0
DWIDTH 32 0
BBX 32 32 0 0
BITMAP
00000000
00000000
00000000
00000000
0FFFFF00
0FFFFF00
0FFFFF00
0FFFFF00
00000000
00000000
00000000
00000000
00000000
00000000
00000000
00000000
00000000
00000000
00000000
00000000
00000000
00000000
00000000
00000000
FFFFFFF0
FFFFFFF0
FFFFFFF0
FFFFFFF0
00000000
00000000
00000000
00000000
ENDCHAR
STARTCHAR 30cc
ENCODING 12492
SWIDTH 3840 0
DWIDTH 32 0
BBX 32 32 0 0
BITMAP
00000000
00000000
00000000
00000000
FFFFFFF0
FFFFFFF0
FFFFFFF0
FFFFFFF0
000000F0
000000F0
000000F0
000000F0
00F000F0
00F000F0
00F000F0
00F000F0
000F0F00
000F0F00
000F0F00
000F0F00
0000F000
0000F000
0000F000
0000F000
0FFF0F00
0FFF0F00
0FFF0F00
0FFF0F00
00000000
00000000
00000000
00000000
ENDCHAR
STARTCHAR 30cd
ENCODING 12493
SWIDTH 3840 0
DWIDTH 32 0
BBX 32 32 0 0
BITMAP
000F0000
000F0000
000F0000
000F0000
FFFFFFF0
FFFFFFF0
FFFFFFF0
FFFFFFF0
00000F00
00000F00
00000F00
00000F00
0000F000
0000F000
0000F000
0000F000
00FF0F00
00FF0F00
00FF0F00
00FF0F00
FF0F00F0
FF0F00F0
FF0F00F0
FF0F00F0
000F0000
000F0000
000F0000
000F0000
00000000
00000000
00000000
00000000
ENDCHAR
STARTCHAR 30ce
ENCODING 12494
SWIDTH 3840 0
DWIDTH 32 0
BBX 32 32 0 0
BITMAP
00000F00
00000F00
00000F00
00000F00
00000F00
00000F00
00000F00
00000F00
00000F00
00000F00
00000F00
00000F00
00000F00
00000F00
00000F00
00000F00
00000F00
00000F00
00000F00
00000F00
0000F000
0000F000
0000F000
0000F000
00FF0000
00FF0000
00FF0000
00FF0000
00000000
00000000
00000000
00000000
ENDCHAR
STARTCHAR 30cf
ENCODING 12495
SWIDTH 3840 0
DWIDTH 32 0
BBX 32 32 0 0
BITMAP
000FF000
000FF000
000FF000
000FF000
00000F00
00000F00
00000F00
00000F00
0F0000F0
0F0000F0
0F0000F0
0F0000F0
0F0000F0
0F0000F0
0F0000F0
0F0000F0
0F0000F0
0F0000F0
0F0000F0
0F0000F0
F00000F0
F00000F0
F00000F0
F00000F0
00000F00
00000F00
00000F00
00000F00
00000000
00000000
00000000
00000000
ENDCHAR
STARTCHAR 30d2
ENCODING 12498
SWIDTH 3840 0
DWIDTH 32 0
BBX 32 32 0 0
BITMAP
F0000000
F0000000
F0000000
F0000000
F0000000
F0000000
F0000000
F0000000
FFFFFF00
FFFFFF00
FFFFFF00
FFFFFF00
F0000000
F0000000
F0000000
F0000000
F0000000
F0000000
F0000000
F0000000
F0000000
F0000000
F0000000
F0000000
0FFFFF00
0FFFFF00
0FFFFF00
0FFFFF00
00000000
00000000
00000000
00000000
ENDCHAR
STARTCHAR 30d5
ENCODING 12501
SWIDTH 3840 0
DWIDTH 32 0
BBX 32 32 0 0
BITMAP
00000000
00000000
00000000
00000000
FFFFFFF0
FFFFFFF0
FFFFFFF0
FFFFFFF0
000000F0
000000F0
000000F0
000000F0
000000F0
000000F0
000000F0
000000F0
000000F0
000000F0
000000F0
000000F0
00000F00
00000F00
00000F00
00000F00
0FFFF000
0FFFF000
0FFFF000
0FFFF000
00000000
00000000
00000000
00000000
ENDCHAR
STARTCHAR 30d8
ENCODING 12504
SWIDTH 3840 0
DWIDTH 32 0
BBX 32 32 0 0
BITMAP
00000000
00000000
00000000
00000000
00F00000
00F00000
00F00000
00F00000
0F0F0000
0F0F0000
0F0F0000
0F0F0000
0F00F000
0F00F000
0F00F000
0F00F000
F0000F00
F0000F00
F0000F00
F0000F00
F00000F0
F00000F0
F00000F0
F00000F0
000000F0
000000F0
000000F0
000000F0
00000000
00000000
00000000
00000000
ENDCHAR
STARTCHAR 30db
ENCODING 12507
SWIDTH 3840 0
DWIDTH 32 0
BBX 32 32 0 0
BITMAP
000F0000
000F0000
000F0000
000F0000
FFFFFFF0
FFFFFFF0
FFFFFFF0
FFFFFFF0
000F0000
000F0000
000F0000
000F0000
000F0000
000F0000
000F0000
000F0000
0F0F0F00
0F0F0F00
0F0F0F00
0F0F0F00
F00F00F0
F00F00F0
F00F00F0
F00F00F0
F00F00F0
F00F00F0
F00F00F0
F00F00F0
00000000
00000000
00000000
00000000
ENDCHAR
STARTCHAR 30de
ENCODING 12510
SWIDTH 3840 0
DWIDTH 32 0
BBX 32 32 0 0
BITMAP
00000000
00000000
00000000
00000000
FFFFFFF0
FFFFFFF0
FFFFFFF0
FFFFFFF0
000000F0
000000F0
000000F0
000000F0
000000F0
000000F0
000000F0
000000F0
00F0FF00
00F0FF00
00F0FF00
00F0FF00
000F0000
000F0000
000F0000
000F0000
0000F000
0000F000
0000F000
0000F000
00000000
00000000
00000000
00000000
ENDCHAR
STARTCHAR 30df
ENCODING 12511
SWIDTH 3840 0
DWIDTH 32 0
BBX 32 32 0 0
BITMAP
00FFF000
00FFF000
00FFF000
00FFF000
00000FF0
00000FF0
00000FF0
00000FF0
0FFF0000
0FFF0000
0FFF0000
0FFF0000
0000FFF0
0000FFF0
0000FFF0
0000FFF0
00000000
00000000
00000000
00000000
FFFF0000
FFFF0000
FFFF0000
FFFF0000
0000FFF0
0000FFF0
0000FFF0
0000FFF0
00000000
00000000
00000000
00000000
ENDCHAR
STARTCHAR 30e0
ENCODING 12512
SWIDTH 3840 0
DWIDTH 32 0
BBX 32 32 0 0
BITMAP
00000000
00000000
00000000
00000000
000F0000
000F0000
000F0000
000F0000
000F0000
000F0000
000F0000
000F0000
00F000F0
00F000F0
00F000F0
00F000F0
0F0000F0
0F0000F0
0F0000F0
0F0000F0
FFFFFFF0
FFFFFFF0
FFFFFFF0
FFFFFFF0
000000F0
000000F0
000000F0
000000F0
00000000
00000000
00000000
00000000
ENDCHAR
STARTCHAR 30e1
ENCODING 12513
SWIDTH 3840 0
DWIDTH 32 0
BBX 32 32 0 0
BITMAP
00000000
00000000
00000000
00000000
00000F00
00000F00
00000F00
00000F00
0F000F00
0F000F00
0F000F00
0F000F00
00F0F000
00F0F000
00F0F000
00F0F000
000F0000
000F0000
000F0000
000F0000
00F0F000
00F0F000
00F0F000
00F0F000
FF000F00
FF000F00
FF000F00
FF000F00
00000000
00000000
00000000
00000000
ENDCHAR
STARTCHAR 30e2
ENCODING 12514
SWIDTH 3840 0
DWIDTH 32 0
BBX 32 32 0 0
BITMAP
00000000
00000000
00000000
00000000
FFFFFFF0
FFFFFFF0
FFFFFFF0
FFFFFFF0
0F000000
0F000000
0F000000
0F000000
FFFFFFF0
FFFFFFF0
FFFFFFF0
FFFFFFF0
0F000000
0F000000
0F000000
0F000000
0F000000
0F000000
0F000000
0F000000
00FFFFF0
00FFFFF0
00FFFFF0
00FFFFF0
00000000
00000000
00000000
00000000
ENDCHAR
STARTCHAR 30e3
ENCODING 12515
SWIDTH 3840 0
DWIDTH 32 0
BBX 32 32 0 0
BITMAP
00000000
00000000
00000000
00000000
00000000
00000000
00000000
00000000
0F000000
0F000000
0F000000
0F000000
FFFFFFF0
FFFFFFF0
FFFFFFF0
FFFFFFF0
0F0000F0
0F0000F0
0F0000F0
0F0000F0
00F00F00
00F00F00
00F00F00
00F00F00
00F00000
00F00000
00F00000
00F00000
00000000
00000000
00000000
00000000
ENDCHAR
STARTCHAR 30e4
ENCODING 12516
SWIDTH 3840 0
DWIDTH 32 0
BBX 32 32 0 0
BITMAP
0F000000
0F000000
0F000000
0F000000
0F000000
0F000000
0F000000
0F000000
FFFFFFF0
FFFFFFF0
FFFFFFF0
FFFFFFF0
0F0000F0
0F0000F0
0F0000F0
0F0000F0
00F00F00
00F00F00
00F00F00
00F00F00
00F00000
00F00000
00F00000
00F00000
00F00000
00F00000
00F00000
00F00000
00000000
00000000
00000000
00000000
ENDCHAR
STARTCHAR 30e5
ENCODING 12517
SWIDTH 3840 0
DWIDTH 32 0
BBX 32 32 0 0
BITMAP
00000000
00000000
00000000
00000000
00000000
00000000
00000000
00000000
00000000
00000000
00000000
00000000
0FFFFF00
0FFFFF00
0FFFFF00
0FFFFF00
00000F00
00000F00
00000F00
00000F00
00000F00
00000F00
00000F00
00000F00
FFFFFFF0
FFFFFFF0
FFFFFFF0
FFFFFFF0
00000000
00000000
00000000
00000000
ENDCHAR
STARTCHAR 30e6
ENCODING 12518
SWIDTH 3840 0
DWIDTH 32 0
BBX 32 32 0 0
BITMAP
00000000
00000000
00000000
00000000
0FFFF000
0FFFF000
0FFFF000
0FFFF000
0000F000
0000F000
0000F000
0000F000
0000F000
0000F000
0000F000
0000F000
0000F000
0000F000
0000F000
0000F000
0000F000
0000F000
0000F000
0000F000
FFFFFFF0
FFFFFFF0
FFFFFFF0
FFFFFFF0
00000000
00000000
00000000
00000000
ENDCHAR
STARTCHAR 30e7
ENCODING 12519
SWIDTH 3840 0
DWIDTH 32 0
BBX 32 32 0 0
BITMAP
00000000
00000000
00000000
00000000
00000000
00000000
00000000
00000000
FFFFFFF0
FFFFFFF0
FFFFFFF0
FFFFFFF0
000000F0
000000F0
000000F0
000000F0
FFFFFFF0
FFFFFFF0
FFFFFFF0
FFFFFFF0
000000F0
000000F0
000000F0
000000F0
FFFFFFF0
FFFFFFF0
FFFFFFF0
FFFFFFF0
00000000
00000000
00000000
00000000
ENDCHAR
STARTCHAR 30e8
ENCODING 12520
SWIDTH 3840 0
DWIDTH 32 0
BBX 32 32 0 0
BITMAP
00000000
00000000
00000000
00000000
FFFFFFF0
FFFFFFF0
FFFFFFF0
FFFFFFF0
000000F0
000000F0
000000F0
000000F0
FFFFFFF0
FFFFFFF0
FFFFFFF0
FFFFFFF0
000000F0
000000F0
000000F0
000000F0
000000F0
000000F0
000000F0
000000F0
FFFFFFF0
FFFFFFF0
FFFFFFF0
FFFFFFF0
00000000
00000000
00000000
00000000
ENDCHAR
STARTCHAR 30e9
ENCODING 12521
SWIDTH 3840 0
DWIDTH 32 0
BBX 32 32 0 0
BITMAP
FFFFFFF0
FFFFFFF0
FFFFFFF0
FFFFFFF0
00000000
00000000
00000000
00000000
FFFFFFF0
FFFFFFF0
FFFFFFF0
FFFFFFF0
000000F0
000000F0
000000F0
000000F0
000000F0
000000F0
000000F0
000000F0
00000F00
00000F00
00000F00
00000F00
0FFFF000
0FFFF000
0FFFF000
0FFFF000
00000000
00000000
00000000
00000000
ENDCHAR
STARTCHAR 30ea
ENCODING 12522
SWIDTH 3840 0
DWIDTH 32 0
BBX 32 32 0 0
BITMAP
0F000F00
0F000F00
0F000F00
0F000F00
0F000F00
0F000F00
0F000F00
0F000F00
0F000F00
0F000F00
0F000F00
0F000F00
0F000F00
0F000F00
0F000F00
0F000F00
00000F00
00000F00
00000F00
00000F00
0000F000
0000F000
0000F000
0000F000
0FFF0000
0FFF0000
0FFF0000
0FFF0000
00000000
00000000
00000000
00000000
ENDCHAR
STARTCHAR 30eb
ENCODING 12523
SWIDTH 3840 0
DWIDTH 32 0
BBX 32 32 0 0
BITMAP
0F0F0000
0F0F0000
0F0F0000
0F0F0000
0F0F0000
0F0F0000
0F0F0000
0F0F0000
0F0F0000
0F0F0000
0F0F0000
0F0F0000
0F0F0000
0F0F0000
0F0F0000
0F0F0000
0F0F00F0
0F0F00F0
0F0F00F0
0F0F00F0
0F0F00F0
0F0F00F0
0F0F00F0
0F0F00F0
F00FFF00
F00FFF00
F00FFF00
F00FFF00
00000000
00000000
00000000
00000000
ENDCHAR
STARTCHAR 30ec
ENCODING 12524
SWIDTH 3840 0
DWIDTH 32 0
BBX 32 32 0 0
BITMAP
00000000
00000000
00000000
00000000
F0000000
F0000000
F0000000
F0000000
F0000000
F0000000
F0000000
F0000000
F00000F0
F00000F0
F00000F0
F00000F0
F0000F00
F0000F00
F0000F00
F0000F00
F00FF000
F00FF000
F00FF000
F00FF000
FFF00000
FFF00000
FFF00000
FFF00000
00000000
00000000
00000000
00000000
ENDCHAR
STARTCHAR 30ed
ENCODING 12525
SWIDTH 3840 0
DWIDTH 32 0
BBX 32 32 0 0
BITMAP
00000000
00000000
00000000
00000000
FFFFFFF0
FFFFFFF0
FFFFFFF0
FFFFFFF0
F00000F0
F00000F0
F00000F0
F00000F0
F00000F0
F00000F0
F00000F0
F00000F0
F00000F0
F00000F0
F00000F0
F00000F0
F00000F0
F00000F0
F00000F0
F00000F0
FFFFFFF0
FFFFFFF0
FFFFFFF0
FFFFFFF0
00000000
00000000
00000000
00000000
ENDCHAR
STARTCHAR 30ef
ENCODING 12527
SWIDTH 3840 0
DWIDTH 32 0
BBX 32 32 0 0
BITMAP
00000000
00000000
00000000
00000000
FFFFFFF0
FFFFFFF0
FFFFFFF0
FFFFFFF0
F00000F0
F00000F0
F00000F0
F00000F0
F00000F0
F00000F0
F00000F0
F00000F0
000000F0
000000F0
000000F0
000000F0
00000F00
00000F00
00000F00
00000F00
000FF000
000FF000
000FF000
000FF000
00000000
00000000
00000000
00000000
ENDCHAR
STARTCHAR 30f2
ENCODING 12530
SWIDTH 3840 0
DWIDTH 32 0
BBX 32 32 0 0
BITMAP
FFFFFFF0
FFFFFFF0
FFFFFFF0
FFFFFFF0
000000F0
000000F0
000000F0
000000F0
000000F0
000000F0
000000F0
000000F0
0FFFFFF0
0FFFFFF0
0FFFFFF0
0FFFFFF0
000000F0
000000F0
000000F0
000000F0
00000F00
00000F00
00000F00
00000F00
00FFF000
00FFF000
00FFF000
00FFF000
00000000
00000000
00000000
00000000
ENDCHAR
STARTCHAR 30f3
ENCODING 12531
SWIDTH 3840 0
DWIDTH 32 0
BBX 32 32 0 0
BITMAP
00000000
00000000
00000000
00000000
FFF00000
FFF00000
FFF00000
FFF00000
00000000
00000000
00000000
00000000
000000F0
000000F0
000000F0
000000F0
000000F0
000000F0
000000F0
000000F0
00000F00
00000F00
00000F00
00000F00
FFFFF000
FFFFF000
FFFFF000
FFFFF000
00000000
00000000
00000000
00000000
ENDCHAR
STARTCHAR 30fb
ENCODING 12539
SWIDTH 3840 0
DWIDTH 32 0
BBX 32 32 0 0
BITMAP
00000000
00000000
00000000
00000000
00000000
00000000
00000000
00000000
00000000
00000000
00000000
00000000
00FF0000
00FF0000
00FF0000
00FF0000
0FFFF000
0FFFF000
0FFFF000
0FFFF000
00FF0000
00FF0000
00FF0000
00FF0000
00000000
00000000
00000000
00000000
00000000
00000000
00000000
00000000
ENDCHAR
STARTCHAR 30fc
ENCODING 12540
SWIDTH 3840 0
DWIDTH 32 0
BBX 32 32 0 0
BITMAP
00000000
00000000
00000000
00000000
00000000
00000000
00000000
00000000
00000000
00000000
00000000
00000000
FF000000
FF000000
FF000000
FF000000
00FFFFF0
00FFFFF0
00FFFFF0
00FFFFF0
00000000
00000000
00000000
00000000
00000000
00000000
00000000
00000000
00000000
00000000
00000000
00000000
ENDCHAR
STARTCHAR 4eba
ENCODING 20154
SWIDTH 3840 0
DWIDTH 32 0
BBX 32 32 0 0
BITMAP
00FFFF00
00FFFF00
00FFFF00
00FFFF00
00FFFF00
00FFFF00
00FFFF00
00FFFF00
00FFFF00
00FFFF00
00FFFF00
00FFFF00
F00FF00F
F00FF00F
F00FF00F
F00FF00F
0FFFFFF0
0FFFFFF0
0FFFFFF0
0FFFFFF0
000FF000
000FF000
000FF000
000FF000
00FFFF00
00FFFF00
00FFFF00
00FFFF00
FFF00FFF
FFF00FFF
FFF00FFF
FFF00FFF
ENDCHAR
STARTCHAR 5012
ENCODING 20498
SWIDTH 3840 0
DWIDTH 32 0
BBX 32 32 0 0
BITMAP
F000F000
F000F000
F000F000
F000F000
F00F0000
F00F0000
F00F0000
F00F0000
FF0F0FFF
FF0F0FFF
FF0F0FFF
FF0F0FFF
0FFFFFFF
0FFFFFFF
0FFFFFFF
0FFFFFFF
0FFFFFFF
0FFFFFFF
0FFFFFFF
0FFFFFFF
FF0F0FFF
FF0F0FFF
FF0F0FFF
FF0F0FFF
F00F0000
F00F0000
F00F0000
F00F0000
F000F000
F000F000
F000F000
F000F000
ENDCHAR
STARTCHAR 516b
ENCODING 20843
SWIDTH 3840 0
DWIDTH 32 0
BBX 32 32 0 0
BITMAP
000F000F
000F000F
000F000F
000F000F
0000F00F
0000F00F
0000F00F
0000F00F
FFF0F0FF
FFF0F0FF
FFF0F0FF
FFF0F0FF
FFFFFFF0
FFFFFFF0
FFFFFFF0
FFFFFFF0
FFFFFFF0
FFFFFFF0
FFFFFFF0
FFFFFFF0
FFF0F0FF
FFF0F0FF
FFF0F0FF
FFF0F0FF
0000F00F
0000F00F
0000F00F
0000F00F
000F000F
000F000F
000F000F
000F000F
ENDCHAR
STARTCHAR 5186
ENCODING 20870
SWIDTH 3840 0
DWIDTH 32 0
BBX 32 32 0 0
BITMAP
FFFFFFF0
FFFFFFF0
FFFFFFF0
FFFFFFF0
F00F00F0
F00F00F0
F00F00F0
F00F00F0
F00F00F0
F00F00F0
F00F00F0
F00F00F0
FFFFFFF0
FFFFFFF0
FFFFFFF0
FFFFFFF0
F00000F0
F00000F0
F00000F0
F00000F0
F00000F0
F00000F0
F00000F0
F00000F0
F0000FF0
F0000FF0
F0000FF0
F0000FF0
00000000
00000000
00000000
00000000
ENDCHAR
STARTCHAR 5206
ENCODING 20998
SWIDTH 3840 0
DWIDTH 32 0
BBX 32 32 0 0
BITMAP
000F0000
000F0000
000F0000
000F0000
00F0F000
00F0F000
00F0F000
00F0F000
0F000F00
0F000F00
0F000F00
0F000F00
F0FFF0F0
F0FFF0F0
F0FFF0F0
F0FFF0F0
00F00F00
00F00F00
00F00F00
00F00F00
00F00F00
00F00F00
00F00F00
00F00F00
0F00F000
0F00F000
0F00F000
0F00F000
00000000
00000000
00000000
00000000
ENDCHAR
STARTCHAR 53cd
ENCODING 21453
SWIDTH 3840 0
DWIDTH 32 0
BBX 32 32 0 0
BITMAP
F000F000
F000F000
F000F000
F000F000
F00F0000
F00F0000
F00F0000
F00F0000
F0F00000
F0F00000
F0F00000
F0F00000
FF000000
FF000000
FF000000
FF000000
FF000000
FF000000
FF000000
FF000000
F0F0F000
F0F0F000
F0F0F000
F0F0F000
F00FF000
F00FF000
F00FF000
F00FF000
F0FFF000
F0FFF000
F0FFF000
F0FFF000
ENDCHAR
STARTCHAR 571f
ENCODING 22303
SWIDTH 3840 0
DWIDTH 32 0
BBX 32 32 0 0
BITMAP
000F0000
000F0000
000F0000
000F0000
000F0000
000F0000
000F0000
000F0000
0FFFFF00
0FFFFF00
0FFFFF00
0FFFFF00
000F0000
000F0000
000F0000
000F0000
000F0000
000F0000
000F0000
000F0000
000F0000
000F0000
000F0000
000F0000
FFFFFFF0
FFFFFFF0
FFFFFFF0
FFFFFFF0
00000000
00000000
00000000
00000000
ENDCHAR
STARTCHAR 5c04
ENCODING 23556
SWIDTH 3840 0
DWIDTH 32 0
BBX 32 32 0 0
BITMAP
F0F0F000
F0F0F000
F0F0F000
F0F0F000
F0FF0000
F0FF0000
F0FF0000
F0FF0000
F0FFF000
F0FFF000
F0FFF000
F0FFF000
FF000000
FF000000
FF000000
FF000000
FF000000
FF000000
FF000000
FF000000
F0F00000
F0F00000
F0F00000
F0F00000
F00F0000
F00F0000
F00F0000
F00F0000
F000F000
F000F000
F000F000
F000F000
ENDCHAR
STARTCHAR 5e74
ENCODING 24180
SWIDTH 3840 0
DWIDTH 32 0
BBX 32 32 0 0
BITMAP
0F000000
0F000000
0F000000
0F000000
0FFFFF00
0FFFFF00
0FFFFF00
0FFFFF00
F00F0000
F00F0000
F00F0000
F00F0000
0FFFFF00
0FFFFF00
0FFFFF00
0FFFFF00
0F0F0000
0F0F0000
0F0F0000
0F0F0000
FFFFFFF0
FFFFFFF0
FFFFFFF0
FFFFFFF0
000F0000
000F0000
000F0000
000F0000
00000000
00000000
00000000
00000000
ENDCHAR
STARTCHAR 62bc
ENCODING 25276
SWIDTH 3840 0
DWIDTH 32 0
BBX 32 32 0 0
BITMAP
00FFF000
00FFF000
00FFF000
00FFF000
00FFF000
00FFF000
00FFF000
00FFF000
FFFFFFF0
FFFFFFF0
FFFFFFF0
FFFFFFF0
0FFFFF00
0FFFFF00
0FFFFF00
0FFFFF00
00FFF000
00FFF000
00FFF000
00FFF000
000F0000
000F0000
000F0000
000F0000
FFFFFFF0
FFFFFFF0
FFFFFFF0
FFFFFFF0
00000000
00000000
00000000
00000000
ENDCHAR
STARTCHAR 65e5
ENCODING 26085
SWIDTH 3840 0
DWIDTH 32 0
BBX 32 32 0 0
BITMAP
FFFFFFF0
FFFFFFF0
FFFFFFF0
FFFFFFF0
F00000F0
F00000F0
F00000F0
F00000F0
F00000F0
F00000F0
F00000F0
F00000F0
FFFFFFF0
FFFFFFF0
FFFFFFF0
FFFFFFF0
F00000F0
F00000F0
F00000F0
F00000F0
F00000F0
F00000F0
F00000F0
F00000F0
FFFFFFF0
FFFFFFF0
FFFFFFF0
FFFFFFF0
00000000
00000000
00000000
00000000
ENDCHAR
STARTCHAR 661f
ENCODING 26143
SWIDTH 3840 0
DWIDTH 32 0
BBX 32 32 0 0
BITMAP
00000000
00000000
00000000
00000000
00F000FF
00F000FF
00F000FF
00F000FF
00F00F0F
00F00F0F
00F00F0F
00F00F0F
00F0F00F
00F0F00F
00F0F00F
00F0F00F
FFFF000F
FFFF000F
FFFF000F
FFFF000F
00F0F00F
00F0F00F
00F0F00F
00F0F00F
00F00F0F
00F00F0F
00F00F0F
00F00F0F
00F000FF
00F000FF
00F000FF
00F000FF
ENDCHAR
STARTCHAR 6642
ENCODING 26178
SWIDTH 3840 0
DWIDTH 32 0
BBX 32 32 0 0
BITMAP
0000F000
0000F000
0000F000
0000F000
FFFFFF00
FFFFFF00
FFFFFF00
FFFFFF00
F0F0F000
F0F0F000
F0F0F000
F0F0F000
FFFFFFF0
FFFFFFF0
FFFFFFF0
FFFFFFF0
F0F00F00
F0F00F00
F0F00F00
F0F00F00
FFFFFFF0
FFFFFFF0
FFFFFFF0
FFFFFFF0
000F0F00
000F0F00
000F0F00
000F0F00
00000000
00000000
00000000
00000000
ENDCHAR
STARTCHAR 6708
ENCODING 26376
SWIDTH 3840 0
DWIDTH 32 0
BBX 32 32 0 0
BITMAP
0FFFFFF0
0FFFFFF0
0FFFFFF0
0FFFFFF0
0F0000F0
0F0000F0
0F0000F0
0F0000F0
0FFFFFF0
0FFFFFF0
0FFFFFF0
0FFFFFF0
0F0000F0
0F0000F0
0F0000F0
0F0000F0
0FFFFFF0
0FFFFFF0
0FFFFFF0
0FFFFFF0
0F0000F0
0F0000F0
0F0000F0
0F0000F0
F00000F0
F00000F0
F00000F0
F00000F0
00000000
00000000
00000000
00000000
ENDCHAR
STARTCHAR 6728
ENCODING 26408
SWIDTH 3840 0
DWIDTH 32 0
BBX 32 32 0 0
BITMAP
000F0000
000F0000
000F0000
000F0000
FFFFFFF0
FFFFFFF0
FFFFFFF0
FFFFFFF0
000F0000
000F0000
000F0000
000F0000
00FFF000
00FFF000
00FFF000
00FFF000
0F0F0F00
0F0F0F00
0F0F0F00
0F0F0F00
0F0F0F00
0F0F0F00
0F0F0F00
0F0F0F00
F00F00F0
F00F00F0
F00F00F0
F00F00F0
00000000
00000000
00000000
00000000
ENDCHAR
STARTCHAR 672a
ENCODING 26410
SWIDTH 3840 0
DWIDTH 32 0
BBX 32 32 0 0
BITMAP
00000000
00000000
00000000
00000000
000FF000
000FF000
000FF000
000FF000
00F00F00
00F00F00
00F00F00
00F00F00
0FFFFFF0
0FFFFFF0
0FFFFFF0
0FFFFFF0
FFFFFFFF
FFFFFFFF
FFFFFFFF
FFFFFFFF
0FFFFFF0
0FFFFFF0
0FFFFFF0
0FFFFFF0
00F00F00
00F00F00
00F00F00
00F00F00
00000000
00000000
00000000
00000000
ENDCHAR
STARTCHAR 6a2a
ENCODING 27178
SWIDTH 3840 0
DWIDTH 32 0
BBX 32 32 0 0
BITMAP
FFF00000
FFF00000
FFF00000
FFF00000
FFF00FFF
FFF00FFF
FFF00FFF
FFF00FFF
0F000FFF
0F000FFF
0F000FFF
0F000FFF
F0FFF0F0
F0FFF0F0
F0FFF0F0
F0FFF0F0
F0FFF0F0
F0FFF0F0
F0FFF0F0
F0FFF0F0
0F000FFF
0F000FFF
0F000FFF
0F000FFF
FFF00FFF
FFF00FFF
FFF00FFF
FFF00FFF
FFF00000
FFF00000
FFF00000
FFF00000
ENDCHAR
STARTCHAR 6c34
ENCODING 27700
SWIDTH 3840 0
DWIDTH 32 0
BBX 32 32 0 0
BITMAP
000F0000
000F0000
000F0000
000F0000
FFFF00F0
FFFF00F0
FFFF00F0
FFFF00F0
000F0F00
000F0F00
000F0F00
000F0F00
00FFF000
00FFF000
00FFF000
00FFF000
0F0FF000
0F0FF000
0F0FF000
0F0FF000
F00F0F00
F00F0F00
F00F0F00
F00F0F00
F00F00F0
F00F00F0
F00F00F0
F00F00F0
00000000
00000000
00000000
00000000
ENDCHAR
STARTCHAR 6c60
ENCODING 27744
SWIDTH 3840 0
DWIDTH 32 0
BBX 32 32 0 0
BITMAP
0000F000
0000F000
0000F000
0000F000
0000F000
0000F000
0000F000
0000F000
00FFFFF0
00FFFFF0
00FFFFF0
00FFFFF0
00000000
00000000
00000000
00000000
00000000
00000000
00000000
00000000
00FFFFF0
00FFFFF0
00FFFFF0
00FFFFF0
0000F000
0000F000
0000F000
0000F000
0000F000
0000F000
0000F000
0000F000
ENDCHAR
STARTCHAR 706b
ENCODING 28779
SWIDTH 3840 0
DWIDTH 32 0
BBX 32 32 0 0
BITMAP
000F0000
000F0000
000F0000
000F0000
F00F00F0
F00F00F0
F00F00F0
F00F00F0
F00F00F0
F00F00F0
F00F00F0
F00F00F0
000F0000
000F0000
000F0000
000F0000
00F0F000
00F0F000
00F0F000
00F0F000
0F000F00
0F000F00
0F000F00
0F000F00
F00000F0
F00000F0
F00000F0
F00000F0
00000000
00000000
00000000
00000000
ENDCHAR
STARTCHAR 751f
ENCODING 29983
SWIDTH 3840 0
DWIDTH 32 0
BBX 32 32 0 0
BITMAP
000F0000
000F0000
000F0000
000F0000
0F0F0000
0F0F0000
0F0F0000
0F0F0000
FFFFFFF0
FFFFFFF0
FFFFFFF0
FFFFFFF0
F00F0000
F00F0000
F00F0000
F00F0000
0FFFFF00
0FFFFF00
0FFFFF00
0FFFFF00
000F0000
000F0000
000F0000
000F0000
FFFFFFF0
FFFFFFF0
FFFFFFF0
FFFFFFF0
00000000
00000000
00000000
00000000
ENDCHAR
STARTCHAR 79d2
ENCODING 31186
SWIDTH 3840 0
DWIDTH 32 0
BBX 32 32 0 0
BITMAP
0FFF0000
0FFF0000
0FFF0000
0FFF0000
00F00F00
00F00F00
00F00F00
00F00F00
FFFFFFF0
FFFFFFF0
FFFFFFF0
FFFFFFF0
00F0FFF0
00F0FFF0
00F0FFF0
00F0FFF0
0FFF0FF0
0FFF0FF0
0FFF0FF0
0FFF0FF0
F0F00F00
F0F00F00
F0F00F00
F0F00F00
00F0F000
00F0F000
00F0F000
00F0F000
00000000
00000000
00000000
00000000
ENDCHAR
STARTCHAR 86c7
ENCODING 34503
SWIDTH 3840 0
DWIDTH 32 0
BBX 32 32 0 0
BITMAP
FFF00000
FFF00000
FFF00000
FFF00000
FFF00000
FFF00000
FFF00000
FFF00000
FFF00000
FFF00000
FFF00000
FFF00000
00F00F00
00F00F00
00F00F00
00F00F00
0F00F0F0
0F00F0F0
0F00F0F0
0F00F0F0
F000F0F0
F000F0F0
F000F0F0
F000F0F0
F00F00F0
F00F00F0
F00F00F0
F00F00F0
0FF0000F
0FF0000F
0FF0000F
0FF0000F
ENDCHAR
STARTCHAR 885b
ENCODING 34907
SWIDTH 3840 0
DWIDTH 32 0
BBX 32 32 0 0
BITMAP
00000000
00000000
00000000
00000000
FF000F00
FF000F00
FF000F00
FF000F00
F0F00F00
F0F00F00
F0F00F00
F0F00F00
F00F0F00
F00F0F00
F00F0F00
F00F0F00
F000FFFF
F000FFFF
F000FFFF
F000FFFF
F00F0F00
F00F0F00
F00F0F00
F00F0F00
F0F00F00
F0F00F00
F0F00F00
F0F00F00
FF000F00
FF000F00
FF000F00
FF000F00
ENDCHAR
STARTCHAR 8eca
ENCODING 36554
SWIDTH 3840 0
DWIDTH 32 0
BBX 32 32 0 0
BITMAP
0FF00FF0
0FF00FF0
0FF00FF0
0FF00FF0
0FFFFFF0
0FFFFFF0
0FFFFFF0
0FFFFFF0
0FF00FF0
0FF00FF0
0FF00FF0
0FF00FF0
000FF000
000FF000
000FF000
000FF000
000FF000
000FF000
000FF000
000FF000
FF0FF0FF
FF0FF0FF
FF0FF0FF
FF0FF0FF
FFF00FFF
FFF00FFF
FFF00FFF
FFF00FFF
FF0FF0FF
FF0FF0FF
FF0FF0FF
FF0FF0FF
ENDCHAR
STARTCHAR 9006
ENCODING 36870
SWIDTH 3840 0
DWIDTH 32 0
BBX 32 32 0 0
BITMAP
FFF00FFF
FFF00FFF
FFF00FFF
FFF00FFF
00FFFF00
00FFFF00
00FFFF00
00FFFF00
000FF000
000FF000
000FF000
000FF000
0FFFFFF0
0FFFFFF0
0FFFFFF0
0FFFFFF0
F00FF00F
F00FF00F
F00FF00F
F00FF00F
00FFFF00
00FFFF00
00FFFF00
00FFFF00
00FFFF00
00FFFF00
00FFFF00
00FFFF00
00FFFF00
00FFFF00
00FFFF00
00FFFF00
ENDCHAR
STARTCHAR 91d1
ENCODING 37329
SWIDTH 3840 0
DWIDTH 32 0
BBX 32 32 0 0
BITMAP
000F0000
000F0000
000F0000
000F0000
00F0F000
00F0F000
00F0F000
00F0F000
0FFFFF00
0FFFFF00
0FFFFF00
0FFFFF00
F0FFF0F0
F0FFF0F0
F0FFF0F0
F0FFF0F0
0F0F0F00
0F0F0F00
0F0F0F00
0F0F0F00
00FFF000
00FFF000
00FFF000
00FFF000
FFFFFFF0
FFFFFFF0
FFFFFFF0
FFFFFFF0
00000000
00000000
00000000
00000000
ENDCHAR
STARTCHAR 96fb
ENCODING 38651
SWIDTH 3840 0
DWIDTH 32 0
BBX 32 32 0 0
BITMAP
00000000
00000000
00000000
00000000
00000000
00000000
00000000
00000000
00F00F00
00F00F00
00F00F00
00F00F00
00F00F00
00F00F00
00F00F00
00F00F00
FFF00FFF
FFF00FFF
FFF00FFF
FFF00FFF
00F00F00
00F00F00
00F00F00
00F00F00
00F00F00
00F00F00
00F00F00
00F00F00
00000000
00000000
00000000
00000000
ENDCHAR
STARTCHAR ff01
ENCODING 65281
SWIDTH 3840 0
DWIDTH 32 0
BBX 32 32 0 0
BITMAP
000F0000
000F0000
000F0000
000F0000
00F00000
00F00000
00F00000
00F00000
00F00000
00F00000
00F00000
00F00000
000F0000
000F0000
000F0000
000F0000
0000F000
0000F000
0000F000
0000F000
00000F00
00000F00
00000F00
00000F00
00000F00
00000F00
00000F00
00000F00
0000F000
0000F000
0000F000
0000F000
ENDCHAR
STARTCHAR ff0c
ENCODING 65292
SWIDTH 3840 0
DWIDTH 32 0
BBX 32 32 0 0
BITMAP
00000000
00000000
00000000
00000000
00000000
00000000
00000000
00000000
00000000
00000000
00000000
00000000
00000000
00000000
00000000
00000000
F0000000
F0000000
F0000000
F0000000
0F000000
0F000000
0F000000
0F000000
00F00000
00F00000
00F00000
00F00000
00000000
00000000
00000000
00000000
ENDCHAR
STARTCHAR ff0e
ENCODING 65294
SWIDTH 3840 0
DWIDTH 32 0
BBX 32 32 0 0
BITMAP
00000000
00000000
00000000
00000000
00000000
00000000
00000000
00000000
00000000
00000000
00000000
00000000
000FF000
000FF000
000FF000
000FF000
000FF000
000FF000
000FF000
000FF000
00000000
00000000
00000000
00000000
00000000
00000000
00000000
00000000
00000000
00000000
00000000
00000000
ENDCHAR
STARTCHAR ff0f
ENCODING 65295
SWIDTH 3840 0
DWIDTH 32 0
BBX 32 32 0 0
BITMAP
0000000F
0000000F
0000000F
0000000F
000000F0
000000F0
000000F0
000000F0
00000F00
00000F00
00000F00
00000F00
0000F000
0000F000
0000F000
0000F000
000F0000
000F0000
000F0000
000F0000
00F00000
00F00000
00F00000
00F00000
0F000000
0F000000
0F000000
0F000000
F0000000
F0000000
F0000000
F0000000
ENDCHAR
STARTCHAR ff11
ENCODING 65297
SWIDTH 3840 0
DWIDTH 32 0
BBX 32 32 0 0
BITMAP
00000000
00000000
00000000
00000000
00000000
00000000
00000000
00000000
00000000
00000000
00000000
00000000
00000000
00000000
00000000
00000000
00000000
00000000
00000000
00000000
00000000
00000000
00000000
00000000
FFFFFFFF
FFFFFFFF
FFFFFFFF
FFFFFFFF
00000000
00000000
00000000
00000000
ENDCHAR
STARTCHAR ff12
ENCODING 65298
SWIDTH 3840 0
DWIDTH 32 0
BBX 32 32 0 0
BITMAP
00000000
00000000
00000000
00000000
00000000
00000000
00000000
00000000
00000000
00000000
00000000
00000000
00000000
00000000
00000000
00000000
00000000
00000000
00000000
00000000
FFFFFFFF
FFFFFFFF
FFFFFFFF
FFFFFFFF
00000000
00000000
00000000
00000000
00000000
00000000
00000000
00000000
ENDCHAR
STARTCHAR ff13
ENCODING 65299
SWIDTH 3840 0
DWIDTH 32 0
BBX 32 32 0 0
BITMAP
00000000
00000000
00000000
00000000
00000000
00000000
00000000
00000000
00000000
00000000
00000000
00000000
FFFFFFFF
FFFFFFFF
FFFFFFFF
FFFFFFFF
00000000
00000000
00000000
00000000
00000000
00000000
00000000
00000000
00000000
00000000
00000000
00000000
00000000
00000000
00000000
00000000
ENDCHAR
STARTCHAR ff14
ENCODING 65300
SWIDTH 3840 0
DWIDTH 32 0
BBX 32 32 0 0
BITMAP
00000000
00000000
00000000
00000000
00000000
00000000
00000000
00000000
FFFFFFFF
FFFFFFFF
FFFFFFFF
FFFFFFFF
00000000
00000000
00000000
00000000
00000000
00000000
00000000
00000000
00000000
00000000
00000000
00000000
00000000
00000000
00000000
00000000
00000000
00000000
00000000
00000000
ENDCHAR
STARTCHAR ff15
ENCODING 65301
SWIDTH 3840 0
DWIDTH 32 0
BBX 32 32 0 0
BITMAP
00000000
00000000
00000000
00000000
FFFFFFFF
FFFFFFFF
FFFFFFFF
FFFFFFFF
00000000
00000000
00000000
00000000
00000000
00000000
00000000
00000000
00000000
00000000
00000000
00000000
00000000
00000000
00000000
00000000
00000000
00000000
00000000
00000000
00000000
00000000
00000000
00000000
ENDCHAR
STARTCHAR ff1c
ENCODING 65308
SWIDTH 3840 0
DWIDTH 32 0
BBX 32 32 0 0
BITMAP
00000000
00000000
00000000
00000000
0FFF0000
0FFF0000
0FFF0000
0FFF0000
F000F000
F000F000
F000F000
F000F000
0F000F00
0F000F00
0F000F00
0F000F00
00F000FF
00F000FF
00F000FF
00F000FF
00F00000
00F00000
00F00000
00F00000
0F000000
0F000000
0F000000
0F000000
F0000000
F0000000
F0000000
F0000000
ENDCHAR
STARTCHAR ff1d
ENCODING 65309
SWIDTH 3840 0
DWIDTH 32 0
BBX 32 32 0 0
BITMAP
00000000
00000000
00000000
00000000
FFFFFFFF
FFFFFFFF
FFFFFFFF
FFFFFFFF
00000000
00000000
00000000
00000000
F000000F
F000000F
F000000F
F000000F
0F0000F0
0F0000F0
0F0000F0
0F0000F0
0F0000F0
0F0000F0
0F0000F0
0F0000F0
F000000F
F000000F
F000000F
F000000F
00000000
00000000
00000000
00000000
ENDCHAR
STARTCHAR ff1e
ENCODING 65310
SWIDTH 3840 0
DWIDTH 32 0
BBX 32 32 0 0
BITMAP
00000000
00000000
00000000
00000000
0000FFF0
0000FFF0
0000FFF0
0000FFF0
000F000F
000F000F
000F000F
000F000F
00F000F0
00F000F0
00F000F0
00F000F0
FF000F00
FF000F00
FF000F00
FF000F00
00000F00
00000F00
00000F00
00000F00
000000F0
000000F0
000000F0
000000F0
0000000F
0000000F
0000000F
0000000F
ENDCHAR
STARTCHAR ff39
ENCODING 65337
SWIDTH 3840 0
DWIDTH 32 0
BBX 32 32 0 0
BITMAP
F0000000
F0000000
F0000000
F0000000
0F000000
0F000000
0F000000
0F000000
00F00000
00F00000
00F00000
00F00000
000F0000
000F0000
000F0000
000F0000
000FFFFF
000FFFFF
000FFFFF
000FFFFF
00F00000
00F00000
00F00000
00F00000
0F000000
0F000000
0F000000
0F000000
F0000000
F0000000
F0000000
F0000000
ENDCHAR
STARTCHAR ff3c
ENCODING 65340
SWIDTH 3840 0
DWIDTH 32 0
BBX 32 32 0 0
BITMAP
F0000000
F0000000
F0000000
F0000000
0F000000
0F000000
0F000000
0F000000
00F00000
00F00000
00F00000
00F00000
000F0000
000F0000
000F0000
000F0000
0000F000
0000F000
0000F000
0000F000
00000F00
00000F00
00000F00
00000F00
000000F0
000000F0
000000F0
000000F0
0000000F
0000000F
0000000F
0000000F
ENDCHAR
STARTCHAR ffe1
ENCODING 65505
SWIDTH 3840 0
DWIDTH 32 0
BBX 32 32 0 0
BITMAP
000FFF00
000FFF00
000FFF00
000FFF00
00F00000
00F00000
00F00000
00F00000
00F00000
00F00000
00F00000
00F00000
0FFFF000
0FFFF000
0FFFF000
0FFFF000
00F00000
00F00000
00F00000
00F00000
00F00000
00F00000
00F00000
00F00000
FFFFFF00
FFFFFF00
FFFFFF00
FFFFFF00
00000000
00000000
00000000
00000000
ENDCHAR
STARTCHAR ffe3
ENCODING 65507
SWIDTH 3840 0
DWIDTH 32 0
BBX 32 32 0 0
BITMAP
FFFFFFFF
FFFFFFFF
FFFFFFFF
FFFFFFFF
00000000
00000000
00000000
00000000
00000000
00000000
00000000
00000000
00000000
00000000
00000000
00000000
00000000
00000000
00000000
00000000
00000000
00000000
00000000
00000000
00000000
00000000
00000000
00000000
00000000
00000000
00000000
00000000
ENDCHAR
STARTCHAR ffe5
ENCODING 65509
SWIDTH 3840 0
DWIDTH 32 0
BBX 32 32 0 0
BITMAP
F00000F0
F00000F0
F00000F0
F00000F0
0F000F00
0F000F00
0F000F00
0F000F00
00F0F000
00F0F000
00F0F000
00F0F000
FFFFFFF0
FFFFFFF0
FFFFFFF0
FFFFFFF0
000F0000
000F0000
000F0000
000F0000
FFFFFFF0
FFFFFFF0
FFFFFFF0
FFFFFFF0
000F0000
000F0000
000F0000
000F0000
00000000
00000000
00000000
00000000
ENDCHAR
ENDFONT
